<ttFont>
<head>
    <!-- Most of this table will be recalculated by the compiler -->
    <tableVersion value="1.0"/>
    <fontRevision value="0.1"/>
    <checkSumAdjustment value="0x1c92008a"/>
    <magicNumber value="0x5f0f3cf5"/>
    <flags value="00000000 00000011"/>
    <unitsPerEm value="1000"/>
    <created value="Wed Dec 18 09:31:32 2024"/>
    <modified value="Fri Dec 20 10:14:53 2024"/>
    <xMin value="-728"/>
    <yMin value="-438"/>
    <xMax value="1344"/>
    <yMax value="1220"/>
    <macStyle value="00000000 00000000"/>
    <lowestRecPPEM value="6"/>
    <fontDirectionHint value="2"/>
    <indexToLocFormat value="0"/>
    <glyphDataFormat value="0"/>
  </head>
    <TTGlyph name=".notdef" xMin="193" yMin="0" xMax="683" yMax="794">
      <contour>
        <pt x="208" y="794" on="1"/>
        <pt x="668" y="794" on="1"/>
        <pt x="674" y="794" on="0"/>
        <pt x="683" y="785" on="0"/>
        <pt x="683" y="779" on="1"/>
        <pt x="683" y="15" on="1"/>
        <pt x="683" y="9" on="0"/>
        <pt x="674" y="0" on="0"/>
        <pt x="668" y="0" on="1"/>
        <pt x="208" y="0" on="1"/>
        <pt x="202" y="0" on="0"/>
        <pt x="193" y="9" on="0"/>
        <pt x="193" y="15" on="1"/>
        <pt x="193" y="779" on="1"/>
        <pt x="193" y="785" on="0"/>
        <pt x="202" y="794" on="0"/>
      </contour>
      <contour>
        <pt x="258" y="732" on="1"/>
        <pt x="252" y="732" on="0"/>
        <pt x="243" y="723" on="0"/>
        <pt x="243" y="717" on="1"/>
        <pt x="243" y="81" on="1"/>
        <pt x="243" y="75" on="0"/>
        <pt x="252" y="66" on="0"/>
        <pt x="258" y="66" on="1"/>
        <pt x="620" y="66" on="1"/>
        <pt x="626" y="66" on="0"/>
        <pt x="635" y="75" on="0"/>
        <pt x="635" y="81" on="1"/>
        <pt x="635" y="717" on="1"/>
        <pt x="635" y="723" on="0"/>
        <pt x="626" y="732" on="0"/>
        <pt x="620" y="732" on="1"/>
      </contour>
      <contour>
        <pt x="371" y="621" on="1"/>
        <pt x="375" y="621" on="0"/>
        <pt x="384" y="621" on="1"/>
        <pt x="438" y="621" on="0"/>
        <pt x="513" y="546" on="0"/>
        <pt x="513" y="493" on="1"/>
        <pt x="513" y="457" on="0"/>
        <pt x="477" y="397" on="0"/>
        <pt x="447" y="380" on="1"/>
        <pt x="447" y="322" on="1"/>
        <pt x="371" y="322" on="1"/>
        <pt x="371" y="364" on="1"/>
        <pt x="371" y="427" on="1"/>
        <pt x="371" y="441" on="1"/>
        <pt x="377" y="439" on="0"/>
        <pt x="384" y="439" on="1"/>
        <pt x="406" y="439" on="0"/>
        <pt x="438" y="470" on="0"/>
        <pt x="438" y="493" on="1"/>
        <pt x="438" y="515" on="0"/>
        <pt x="406" y="546" on="0"/>
        <pt x="384" y="546" on="1"/>
        <pt x="377" y="546" on="0"/>
        <pt x="371" y="544" on="1"/>
      </contour>
      <contour>
        <pt x="371" y="206" on="1"/>
        <pt x="371" y="277" on="1"/>
        <pt x="447" y="277" on="1"/>
        <pt x="447" y="206" on="1"/>
      </contour>
    </TTGlyph>
    <TTGlyph name="A" xMin="50" yMin="0" xMax="702" yMax="769">
      <contour>
        <pt x="407" y="367" on="1"/>
        <pt x="357" y="535" on="1"/>
        <pt x="297" y="367" on="1"/>
      </contour>
      <contour>
        <pt x="550" y="0" on="1"/>
        <pt x="461" y="228" on="1"/>
        <pt x="461" y="227" on="1"/>
        <pt x="261" y="227" on="1"/>
        <pt x="202" y="0" on="1"/>
        <pt x="50" y="0" on="1"/>
        <pt x="266" y="769" on="1"/>
        <pt x="418" y="769" on="1"/>
        <pt x="702" y="0" on="1"/>
      </contour>
    </TTGlyph>
    <TTGlyph name="A.0" xMin="50" yMin="0" xMax="702" yMax="769">
      <component glyphName="A" x="0" y="0" flags="0x204"/>
    </TTGlyph>
    <TTGlyph name="A.1" xMin="50" yMin="0" xMax="702" yMax="769">
      <component glyphName="A" x="0" y="0" flags="0x204"/>
    </TTGlyph>
    <TTGlyph name="A.2" xMin="50" yMin="0" xMax="702" yMax="769">
      <component glyphName="A" x="0" y="0" flags="0x204"/>
    </TTGlyph>
    <TTGlyph name="AE" xMin="50" yMin="-3" xMax="974" yMax="778">
      <contour>
        <pt x="865" y="485" on="1"/>
        <pt x="866" y="333" on="1"/>
        <pt x="558" y="333" on="1"/>
        <pt x="558" y="149" on="1"/>
        <pt x="973" y="149" on="1"/>
        <pt x="974" y="-3" on="1"/>
        <pt x="407" y="-3" on="1"/>
        <pt x="407" y="-2" on="1"/>
        <pt x="406" y="-2" on="1"/>
        <pt x="406" y="227" on="1"/>
        <pt x="261" y="227" on="1"/>
        <pt x="202" y="0" on="1"/>
        <pt x="50" y="0" on="1"/>
        <pt x="250" y="778" on="1"/>
        <pt x="973" y="778" on="1"/>
        <pt x="974" y="626" on="1"/>
        <pt x="558" y="626" on="1"/>
        <pt x="558" y="485" on="1"/>
      </contour>
      <contour>
        <pt x="407" y="367" on="1"/>
        <pt x="341" y="535" on="1"/>
        <pt x="297" y="367" on="1"/>
      </contour>
    </TTGlyph>
    <TTGlyph name="AE.0" xMin="50" yMin="-3" xMax="974" yMax="778">
      <component glyphName="AE" x="0" y="0" flags="0x204"/>
    </TTGlyph>
    <TTGlyph name="AE.1" xMin="50" yMin="-3" xMax="974" yMax="778">
      <component glyphName="AE" x="0" y="0" flags="0x204"/>
    </TTGlyph>
    <TTGlyph name="AE.2" xMin="50" yMin="-3" xMax="974" yMax="778">
      <component glyphName="AE" x="0" y="0" flags="0x204"/>
    </TTGlyph>
    <TTGlyph name="Aacute" xMin="50" yMin="0" xMax="702" yMax="1122">
      <component glyphName="acutecomb" x="379" y="317" flags="0x4"/>
      <component glyphName="A" x="0" y="0" flags="0x204"/>
    </TTGlyph>
    <TTGlyph name="Aacute.0" xMin="50" yMin="0" xMax="702" yMax="1122">
      <component glyphName="Aacute" x="0" y="0" flags="0x204"/>
    </TTGlyph>
    <TTGlyph name="Aacute.1" xMin="50" yMin="0" xMax="702" yMax="1122">
      <component glyphName="Aacute" x="0" y="0" flags="0x204"/>
    </TTGlyph>
    <TTGlyph name="Aacute.2" xMin="50" yMin="0" xMax="702" yMax="1122">
      <component glyphName="Aacute" x="0" y="0" flags="0x204"/>
    </TTGlyph>
    <TTGlyph name="Abreve" xMin="50" yMin="0" xMax="702" yMax="957">
      <component glyphName="uni0306" x="326" y="25" flags="0x4"/>
      <component glyphName="A" x="0" y="0" flags="0x204"/>
    </TTGlyph>
    <TTGlyph name="Abreve.0" xMin="50" yMin="0" xMax="702" yMax="957">
      <component glyphName="Abreve" x="0" y="0" flags="0x204"/>
    </TTGlyph>
    <TTGlyph name="Abreve.1" xMin="50" yMin="0" xMax="702" yMax="957">
      <component glyphName="Abreve" x="0" y="0" flags="0x204"/>
    </TTGlyph>
    <TTGlyph name="Abreve.2" xMin="50" yMin="0" xMax="702" yMax="957">
      <component glyphName="Abreve" x="0" y="0" flags="0x204"/>
    </TTGlyph>
    <TTGlyph name="Acircumflex" xMin="50" yMin="0" xMax="702" yMax="1000">
      <component glyphName="uni0302" x="326" y="66" flags="0x4"/>
      <component glyphName="A" x="0" y="0" flags="0x204"/>
    </TTGlyph>
    <TTGlyph name="Acircumflex.0" xMin="50" yMin="0" xMax="702" yMax="1000">
      <component glyphName="Acircumflex" x="0" y="0" flags="0x204"/>
    </TTGlyph>
    <TTGlyph name="Acircumflex.1" xMin="50" yMin="0" xMax="702" yMax="1000">
      <component glyphName="Acircumflex" x="0" y="0" flags="0x204"/>
    </TTGlyph>
    <TTGlyph name="Acircumflex.2" xMin="50" yMin="0" xMax="702" yMax="1000">
      <component glyphName="Acircumflex" x="0" y="0" flags="0x204"/>
    </TTGlyph>
    <TTGlyph name="Adieresis" xMin="50" yMin="0" xMax="702" yMax="975">
      <component glyphName="uni0308" x="326" y="335" flags="0x4"/>
      <component glyphName="A" x="0" y="0" flags="0x204"/>
    </TTGlyph>
    <TTGlyph name="Adieresis.0" xMin="50" yMin="0" xMax="702" yMax="975">
      <component glyphName="Adieresis" x="0" y="0" flags="0x204"/>
    </TTGlyph>
    <TTGlyph name="Adieresis.1" xMin="50" yMin="0" xMax="702" yMax="975">
      <component glyphName="Adieresis" x="0" y="0" flags="0x204"/>
    </TTGlyph>
    <TTGlyph name="Adieresis.2" xMin="50" yMin="0" xMax="702" yMax="975">
      <component glyphName="Adieresis" x="0" y="0" flags="0x204"/>
    </TTGlyph>
    <TTGlyph name="Agrave" xMin="50" yMin="0" xMax="702" yMax="1122">
      <component glyphName="gravecomb" x="305" y="317" flags="0x4"/>
      <component glyphName="A" x="0" y="0" flags="0x204"/>
    </TTGlyph>
    <TTGlyph name="Agrave.0" xMin="50" yMin="0" xMax="702" yMax="1122">
      <component glyphName="Agrave" x="0" y="0" flags="0x204"/>
    </TTGlyph>
    <TTGlyph name="Agrave.1" xMin="50" yMin="0" xMax="702" yMax="1122">
      <component glyphName="Agrave" x="0" y="0" flags="0x204"/>
    </TTGlyph>
    <TTGlyph name="Agrave.2" xMin="50" yMin="0" xMax="702" yMax="1122">
      <component glyphName="Agrave" x="0" y="0" flags="0x204"/>
    </TTGlyph>
    <TTGlyph name="Amacron" xMin="50" yMin="0" xMax="702" yMax="909">
      <component glyphName="uni0304" x="326" y="51" flags="0x4"/>
      <component glyphName="A" x="0" y="0" flags="0x204"/>
    </TTGlyph>
    <TTGlyph name="Amacron.0" xMin="50" yMin="0" xMax="702" yMax="909">
      <component glyphName="Amacron" x="0" y="0" flags="0x204"/>
    </TTGlyph>
    <TTGlyph name="Amacron.1" xMin="50" yMin="0" xMax="702" yMax="909">
      <component glyphName="Amacron" x="0" y="0" flags="0x204"/>
    </TTGlyph>
    <TTGlyph name="Amacron.2" xMin="50" yMin="0" xMax="702" yMax="909">
      <component glyphName="Amacron" x="0" y="0" flags="0x204"/>
    </TTGlyph>
    <TTGlyph name="Aogonek" xMin="50" yMin="-252" xMax="702" yMax="769">
      <component glyphName="uni0328" x="614" y="-184" flags="0x4"/>
      <component glyphName="A" x="0" y="0" flags="0x204"/>
    </TTGlyph>
    <TTGlyph name="Aogonek.0" xMin="50" yMin="-252" xMax="702" yMax="769">
      <component glyphName="Aogonek" x="0" y="0" flags="0x204"/>
    </TTGlyph>
    <TTGlyph name="Aogonek.1" xMin="50" yMin="-252" xMax="702" yMax="769">
      <component glyphName="Aogonek" x="0" y="0" flags="0x204"/>
    </TTGlyph>
    <TTGlyph name="Aogonek.2" xMin="50" yMin="-252" xMax="702" yMax="769">
      <component glyphName="Aogonek" x="0" y="0" flags="0x204"/>
    </TTGlyph>
    <TTGlyph name="Aring" xMin="50" yMin="0" xMax="702" yMax="1061">
      <component glyphName="uni030A" x="335" y="372" flags="0x4"/>
      <component glyphName="A" x="0" y="0" flags="0x204"/>
    </TTGlyph>
    <TTGlyph name="Aring.0" xMin="50" yMin="0" xMax="702" yMax="1061">
      <component glyphName="Aring" x="0" y="0" flags="0x204"/>
    </TTGlyph>
    <TTGlyph name="Aring.1" xMin="50" yMin="0" xMax="702" yMax="1061">
      <component glyphName="Aring" x="0" y="0" flags="0x204"/>
    </TTGlyph>
    <TTGlyph name="Aring.2" xMin="50" yMin="0" xMax="702" yMax="1061">
      <component glyphName="Aring" x="0" y="0" flags="0x204"/>
    </TTGlyph>
    <TTGlyph name="Atilde" xMin="50" yMin="0" xMax="702" yMax="950">
      <component glyphName="tildecomb" x="342" y="31" flags="0x4"/>
      <component glyphName="A" x="0" y="0" flags="0x204"/>
    </TTGlyph>
    <TTGlyph name="Atilde.0" xMin="50" yMin="0" xMax="702" yMax="950">
      <component glyphName="Atilde" x="0" y="0" flags="0x204"/>
    </TTGlyph>
    <TTGlyph name="Atilde.1" xMin="50" yMin="0" xMax="702" yMax="950">
      <component glyphName="Atilde" x="0" y="0" flags="0x204"/>
    </TTGlyph>
    <TTGlyph name="Atilde.2" xMin="50" yMin="0" xMax="702" yMax="950">
      <component glyphName="Atilde" x="0" y="0" flags="0x204"/>
    </TTGlyph>
    <TTGlyph name="B" xMin="50" yMin="3" xMax="484" yMax="780">
      <contour>
        <pt x="202" y="454" on="1"/>
        <pt x="214" y="451" on="0"/>
        <pt x="226" y="451" on="1"/>
        <pt x="271" y="451" on="0"/>
        <pt x="333" y="513" on="0"/>
        <pt x="333" y="557" on="1"/>
        <pt x="333" y="602" on="0"/>
        <pt x="271" y="664" on="0"/>
        <pt x="226" y="664" on="1"/>
        <pt x="214" y="664" on="0"/>
        <pt x="202" y="661" on="1"/>
      </contour>
      <contour>
        <pt x="202" y="136" on="1"/>
        <pt x="214" y="133" on="0"/>
        <pt x="226" y="133" on="1"/>
        <pt x="271" y="133" on="0"/>
        <pt x="333" y="195" on="0"/>
        <pt x="333" y="239" on="1"/>
        <pt x="333" y="284" on="0"/>
        <pt x="271" y="346" on="0"/>
        <pt x="226" y="346" on="1"/>
        <pt x="214" y="346" on="0"/>
        <pt x="202" y="343" on="1"/>
      </contour>
      <contour>
        <pt x="202" y="780" on="1"/>
        <pt x="208" y="780" on="0"/>
        <pt x="220" y="780" on="1"/>
        <pt x="327" y="780" on="0"/>
        <pt x="478" y="629" on="0"/>
        <pt x="478" y="522" on="1"/>
        <pt x="478" y="499" on="0"/>
        <pt x="450" y="455" on="0"/>
        <pt x="401" y="403" on="0"/>
        <pt x="395" y="396" on="1"/>
        <pt x="397" y="394" on="0"/>
        <pt x="458" y="330" on="0"/>
        <pt x="484" y="285" on="0"/>
        <pt x="484" y="260" on="1"/>
        <pt x="484" y="153" on="0"/>
        <pt x="333" y="3" on="0"/>
        <pt x="226" y="3" on="1"/>
        <pt x="210" y="3" on="0"/>
        <pt x="202" y="4" on="1"/>
        <pt x="50" y="4" on="1"/>
        <pt x="50" y="780" on="1"/>
      </contour>
    </TTGlyph>
    <TTGlyph name="B.0" xMin="50" yMin="3" xMax="484" yMax="780">
      <component glyphName="B" x="0" y="0" flags="0x204"/>
    </TTGlyph>
    <TTGlyph name="B.1" xMin="50" yMin="3" xMax="484" yMax="780">
      <component glyphName="B" x="0" y="0" flags="0x204"/>
    </TTGlyph>
    <TTGlyph name="B.2" xMin="50" yMin="3" xMax="484" yMax="780">
      <component glyphName="B" x="0" y="0" flags="0x204"/>
    </TTGlyph>
    <TTGlyph name="C" xMin="50" yMin="-14" xMax="505" yMax="773">
      <contour>
        <pt x="432" y="612" on="1"/>
        <pt x="337" y="612" on="0"/>
        <pt x="203" y="475" on="0"/>
        <pt x="203" y="378" on="1"/>
        <pt x="203" y="280" on="0"/>
        <pt x="337" y="143" on="0"/>
        <pt x="432" y="143" on="1"/>
        <pt x="470" y="143" on="0"/>
        <pt x="505" y="155" on="1"/>
        <pt x="505" y="-7" on="1"/>
        <pt x="469" y="-14" on="0"/>
        <pt x="432" y="-14" on="1"/>
        <pt x="274" y="-14" on="0"/>
        <pt x="50" y="217" on="0"/>
        <pt x="50" y="543" on="0"/>
        <pt x="274" y="773" on="0"/>
        <pt x="432" y="773" on="1"/>
        <pt x="469" y="773" on="0"/>
        <pt x="505" y="766" on="1"/>
        <pt x="505" y="600" on="1"/>
        <pt x="470" y="612" on="0"/>
      </contour>
    </TTGlyph>
    <TTGlyph name="C.0" xMin="50" yMin="-14" xMax="505" yMax="773">
      <component glyphName="C" x="0" y="0" flags="0x204"/>
    </TTGlyph>
    <TTGlyph name="C.1" xMin="50" yMin="-14" xMax="505" yMax="773">
      <component glyphName="C" x="0" y="0" flags="0x204"/>
    </TTGlyph>
    <TTGlyph name="C.2" xMin="50" yMin="-14" xMax="505" yMax="773">
      <component glyphName="C" x="0" y="0" flags="0x204"/>
    </TTGlyph>
    <TTGlyph name="Cacute" xMin="42" yMin="-14" xMax="505" yMax="1086">
      <component glyphName="acutecomb" x="187" y="281" flags="0x4"/>
      <component glyphName="C" x="0" y="0" flags="0x4"/>
    </TTGlyph>
    <TTGlyph name="Cacute.0" xMin="42" yMin="-14" xMax="505" yMax="1086">
      <component glyphName="Cacute" x="0" y="0" flags="0x204"/>
    </TTGlyph>
    <TTGlyph name="Cacute.1" xMin="42" yMin="-14" xMax="505" yMax="1086">
      <component glyphName="Cacute" x="0" y="0" flags="0x204"/>
    </TTGlyph>
    <TTGlyph name="Cacute.2" xMin="42" yMin="-14" xMax="505" yMax="1086">
      <component glyphName="Cacute" x="0" y="0" flags="0x204"/>
    </TTGlyph>
    <TTGlyph name="Ccaron" xMin="50" yMin="-14" xMax="532" yMax="1001">
      <component glyphName="uni030C" x="432" y="67" flags="0x4"/>
      <component glyphName="C" x="0" y="0" flags="0x4"/>
    </TTGlyph>
    <TTGlyph name="Ccaron.0" xMin="50" yMin="-14" xMax="532" yMax="1001">
      <component glyphName="Ccaron" x="0" y="0" flags="0x204"/>
    </TTGlyph>
    <TTGlyph name="Ccaron.1" xMin="50" yMin="-14" xMax="532" yMax="1001">
      <component glyphName="Ccaron" x="0" y="0" flags="0x204"/>
    </TTGlyph>
    <TTGlyph name="Ccaron.2" xMin="50" yMin="-14" xMax="532" yMax="1001">
      <component glyphName="Ccaron" x="0" y="0" flags="0x204"/>
    </TTGlyph>
    <TTGlyph name="Ccedilla" xMin="50" yMin="-262" xMax="517" yMax="773">
      <component glyphName="uni0327" x="496" y="-194" flags="0x4"/>
      <component glyphName="C" x="0" y="0" flags="0x4"/>
    </TTGlyph>
    <TTGlyph name="Ccedilla.0" xMin="50" yMin="-262" xMax="517" yMax="773">
      <component glyphName="Ccedilla" x="0" y="0" flags="0x204"/>
    </TTGlyph>
    <TTGlyph name="Ccedilla.1" xMin="50" yMin="-262" xMax="517" yMax="773">
      <component glyphName="Ccedilla" x="0" y="0" flags="0x204"/>
    </TTGlyph>
    <TTGlyph name="Ccedilla.2" xMin="50" yMin="-262" xMax="517" yMax="773">
      <component glyphName="Ccedilla" x="0" y="0" flags="0x204"/>
    </TTGlyph>
    <TTGlyph name="Ccircumflex" xMin="50" yMin="-14" xMax="532" yMax="1000">
      <component glyphName="uni0302" x="432" y="66" flags="0x4"/>
      <component glyphName="C" x="0" y="0" flags="0x4"/>
    </TTGlyph>
    <TTGlyph name="Ccircumflex.0" xMin="50" yMin="-14" xMax="532" yMax="1000">
      <component glyphName="Ccircumflex" x="0" y="0" flags="0x204"/>
    </TTGlyph>
    <TTGlyph name="Ccircumflex.1" xMin="50" yMin="-14" xMax="532" yMax="1000">
      <component glyphName="Ccircumflex" x="0" y="0" flags="0x204"/>
    </TTGlyph>
    <TTGlyph name="Ccircumflex.2" xMin="50" yMin="-14" xMax="532" yMax="1000">
      <component glyphName="Ccircumflex" x="0" y="0" flags="0x204"/>
    </TTGlyph>
    <TTGlyph name="Cdotaccent" xMin="50" yMin="-14" xMax="505" yMax="975">
      <component glyphName="uni0307" x="384" y="335" flags="0x4"/>
      <component glyphName="C" x="0" y="0" flags="0x204"/>
    </TTGlyph>
    <TTGlyph name="Cdotaccent.0" xMin="50" yMin="-14" xMax="505" yMax="975">
      <component glyphName="Cdotaccent" x="0" y="0" flags="0x204"/>
    </TTGlyph>
    <TTGlyph name="Cdotaccent.1" xMin="50" yMin="-14" xMax="505" yMax="975">
      <component glyphName="Cdotaccent" x="0" y="0" flags="0x204"/>
    </TTGlyph>
    <TTGlyph name="Cdotaccent.2" xMin="50" yMin="-14" xMax="505" yMax="975">
      <component glyphName="Cdotaccent" x="0" y="0" flags="0x204"/>
    </TTGlyph>
    <TTGlyph name="D" xMin="50" yMin="-14" xMax="580" yMax="773">
      <contour>
        <pt x="202" y="143" on="1"/>
        <pt x="296" y="145" on="0"/>
        <pt x="427" y="282" on="0"/>
        <pt x="427" y="378" on="1"/>
        <pt x="427" y="474" on="0"/>
        <pt x="296" y="610" on="0"/>
        <pt x="202" y="612" on="1"/>
      </contour>
      <contour>
        <pt x="50" y="768" on="1"/>
        <pt x="65" y="763" on="0"/>
        <pt x="183" y="773" on="0"/>
        <pt x="198" y="773" on="1"/>
        <pt x="356" y="773" on="0"/>
        <pt x="580" y="543" on="0"/>
        <pt x="580" y="380" on="1"/>
        <pt x="580" y="273" on="0"/>
        <pt x="479" y="93" on="0"/>
        <pt x="305" y="-13" on="0"/>
        <pt x="202" y="-14" on="1"/>
        <pt x="50" y="-14" on="1"/>
      </contour>
    </TTGlyph>
    <TTGlyph name="D.0" xMin="50" yMin="-14" xMax="580" yMax="773">
      <component glyphName="D" x="0" y="0" flags="0x204"/>
    </TTGlyph>
    <TTGlyph name="D.1" xMin="50" yMin="-14" xMax="580" yMax="773">
      <component glyphName="D" x="0" y="0" flags="0x204"/>
    </TTGlyph>
    <TTGlyph name="D.2" xMin="50" yMin="-14" xMax="580" yMax="773">
      <component glyphName="D" x="0" y="0" flags="0x204"/>
    </TTGlyph>
    <TTGlyph name="Dcaron" xMin="50" yMin="-14" xMax="580" yMax="1001">
      <component glyphName="uni030C" x="315" y="67" flags="0x4"/>
      <component glyphName="D" x="0" y="0" flags="0x204"/>
    </TTGlyph>
    <TTGlyph name="Dcaron.0" xMin="50" yMin="-14" xMax="580" yMax="1001">
      <component glyphName="Dcaron" x="0" y="0" flags="0x204"/>
    </TTGlyph>
    <TTGlyph name="Dcaron.1" xMin="50" yMin="-14" xMax="580" yMax="1001">
      <component glyphName="Dcaron" x="0" y="0" flags="0x204"/>
    </TTGlyph>
    <TTGlyph name="Dcaron.2" xMin="50" yMin="-14" xMax="580" yMax="1001">
      <component glyphName="Dcaron" x="0" y="0" flags="0x204"/>
    </TTGlyph>
    <TTGlyph name="Dcroat" xMin="100" yMin="-14" xMax="690" yMax="773">
      <component glyphName="Eth" x="50" y="0" flags="0x4"/>
    </TTGlyph>
    <TTGlyph name="Dcroat.0" xMin="100" yMin="-14" xMax="690" yMax="773">
      <component glyphName="Dcroat" x="0" y="0" flags="0x204"/>
    </TTGlyph>
    <TTGlyph name="Dcroat.1" xMin="100" yMin="-14" xMax="690" yMax="773">
      <component glyphName="Dcroat" x="0" y="0" flags="0x204"/>
    </TTGlyph>
    <TTGlyph name="Dcroat.2" xMin="100" yMin="-14" xMax="690" yMax="773">
      <component glyphName="Dcroat" x="0" y="0" flags="0x204"/>
    </TTGlyph>
    <TTGlyph name="E" xMin="50" yMin="-3" xMax="618" yMax="778">
      <contour>
        <pt x="509" y="485" on="1"/>
        <pt x="510" y="333" on="1"/>
        <pt x="202" y="333" on="1"/>
        <pt x="202" y="149" on="1"/>
        <pt x="617" y="149" on="1"/>
        <pt x="618" y="-3" on="1"/>
        <pt x="51" y="-3" on="1"/>
        <pt x="51" y="-2" on="1"/>
        <pt x="50" y="-2" on="1"/>
        <pt x="50" y="774" on="1"/>
        <pt x="50" y="778" on="1"/>
        <pt x="617" y="778" on="1"/>
        <pt x="618" y="626" on="1"/>
        <pt x="202" y="626" on="1"/>
        <pt x="202" y="485" on="1"/>
      </contour>
    </TTGlyph>
    <TTGlyph name="E.0" xMin="50" yMin="-3" xMax="618" yMax="778">
      <component glyphName="E" x="0" y="0" flags="0x204"/>
    </TTGlyph>
    <TTGlyph name="E.1" xMin="50" yMin="-3" xMax="618" yMax="778">
      <component glyphName="E" x="0" y="0" flags="0x204"/>
    </TTGlyph>
    <TTGlyph name="E.2" xMin="50" yMin="-3" xMax="618" yMax="778">
      <component glyphName="E" x="0" y="0" flags="0x204"/>
    </TTGlyph>
    <TTGlyph name="Eacute" xMin="6" yMin="-3" xMax="618" yMax="1091">
      <component glyphName="acutecomb" x="151" y="286" flags="0x4"/>
      <component glyphName="E" x="0" y="0" flags="0x204"/>
    </TTGlyph>
    <TTGlyph name="Eacute.0" xMin="6" yMin="-3" xMax="618" yMax="1091">
      <component glyphName="Eacute" x="0" y="0" flags="0x204"/>
    </TTGlyph>
    <TTGlyph name="Eacute.1" xMin="6" yMin="-3" xMax="618" yMax="1091">
      <component glyphName="Eacute" x="0" y="0" flags="0x204"/>
    </TTGlyph>
    <TTGlyph name="Eacute.2" xMin="6" yMin="-3" xMax="618" yMax="1091">
      <component glyphName="Eacute" x="0" y="0" flags="0x204"/>
    </TTGlyph>
    <TTGlyph name="Ebreve" xMin="50" yMin="-3" xMax="618" yMax="962">
      <component glyphName="uni0306" x="334" y="30" flags="0x4"/>
      <component glyphName="E" x="0" y="0" flags="0x204"/>
    </TTGlyph>
    <TTGlyph name="Ebreve.0" xMin="50" yMin="-3" xMax="618" yMax="962">
      <component glyphName="Ebreve" x="0" y="0" flags="0x204"/>
    </TTGlyph>
    <TTGlyph name="Ebreve.1" xMin="50" yMin="-3" xMax="618" yMax="962">
      <component glyphName="Ebreve" x="0" y="0" flags="0x204"/>
    </TTGlyph>
    <TTGlyph name="Ebreve.2" xMin="50" yMin="-3" xMax="618" yMax="962">
      <component glyphName="Ebreve" x="0" y="0" flags="0x204"/>
    </TTGlyph>
    <TTGlyph name="Ecaron" xMin="50" yMin="-3" xMax="618" yMax="1006">
      <component glyphName="uni030C" x="334" y="72" flags="0x4"/>
      <component glyphName="E" x="0" y="0" flags="0x204"/>
    </TTGlyph>
    <TTGlyph name="Ecaron.0" xMin="50" yMin="-3" xMax="618" yMax="1006">
      <component glyphName="Ecaron" x="0" y="0" flags="0x204"/>
    </TTGlyph>
    <TTGlyph name="Ecaron.1" xMin="50" yMin="-3" xMax="618" yMax="1006">
      <component glyphName="Ecaron" x="0" y="0" flags="0x204"/>
    </TTGlyph>
    <TTGlyph name="Ecaron.2" xMin="50" yMin="-3" xMax="618" yMax="1006">
      <component glyphName="Ecaron" x="0" y="0" flags="0x204"/>
    </TTGlyph>
    <TTGlyph name="Ecircumflex" xMin="50" yMin="-3" xMax="618" yMax="1006">
      <component glyphName="uni0302" x="334" y="72" flags="0x4"/>
      <component glyphName="E" x="0" y="0" flags="0x204"/>
    </TTGlyph>
    <TTGlyph name="Ecircumflex.0" xMin="50" yMin="-3" xMax="618" yMax="1006">
      <component glyphName="Ecircumflex" x="0" y="0" flags="0x204"/>
    </TTGlyph>
    <TTGlyph name="Ecircumflex.1" xMin="50" yMin="-3" xMax="618" yMax="1006">
      <component glyphName="Ecircumflex" x="0" y="0" flags="0x204"/>
    </TTGlyph>
    <TTGlyph name="Ecircumflex.2" xMin="50" yMin="-3" xMax="618" yMax="1006">
      <component glyphName="Ecircumflex" x="0" y="0" flags="0x204"/>
    </TTGlyph>
    <TTGlyph name="Edieresis" xMin="50" yMin="-3" xMax="618" yMax="980">
      <component glyphName="uni0308" x="334" y="340" flags="0x4"/>
      <component glyphName="E" x="0" y="0" flags="0x204"/>
    </TTGlyph>
    <TTGlyph name="Edieresis.0" xMin="50" yMin="-3" xMax="618" yMax="980">
      <component glyphName="Edieresis" x="0" y="0" flags="0x204"/>
    </TTGlyph>
    <TTGlyph name="Edieresis.1" xMin="50" yMin="-3" xMax="618" yMax="980">
      <component glyphName="Edieresis" x="0" y="0" flags="0x204"/>
    </TTGlyph>
    <TTGlyph name="Edieresis.2" xMin="50" yMin="-3" xMax="618" yMax="980">
      <component glyphName="Edieresis" x="0" y="0" flags="0x204"/>
    </TTGlyph>
    <TTGlyph name="Edotaccent" xMin="50" yMin="-3" xMax="618" yMax="980">
      <component glyphName="uni0307" x="334" y="340" flags="0x4"/>
      <component glyphName="E" x="0" y="0" flags="0x204"/>
    </TTGlyph>
    <TTGlyph name="Edotaccent.0" xMin="50" yMin="-3" xMax="618" yMax="980">
      <component glyphName="Edotaccent" x="0" y="0" flags="0x204"/>
    </TTGlyph>
    <TTGlyph name="Edotaccent.1" xMin="50" yMin="-3" xMax="618" yMax="980">
      <component glyphName="Edotaccent" x="0" y="0" flags="0x204"/>
    </TTGlyph>
    <TTGlyph name="Edotaccent.2" xMin="50" yMin="-3" xMax="618" yMax="980">
      <component glyphName="Edotaccent" x="0" y="0" flags="0x204"/>
    </TTGlyph>
    <TTGlyph name="Egrave" xMin="-23" yMin="-3" xMax="618" yMax="1091">
      <component glyphName="gravecomb" x="122" y="286" flags="0x4"/>
      <component glyphName="E" x="0" y="0" flags="0x204"/>
    </TTGlyph>
    <TTGlyph name="Egrave.0" xMin="-23" yMin="-3" xMax="618" yMax="1091">
      <component glyphName="Egrave" x="0" y="0" flags="0x204"/>
    </TTGlyph>
    <TTGlyph name="Egrave.1" xMin="-23" yMin="-3" xMax="618" yMax="1091">
      <component glyphName="Egrave" x="0" y="0" flags="0x204"/>
    </TTGlyph>
    <TTGlyph name="Egrave.2" xMin="-23" yMin="-3" xMax="618" yMax="1091">
      <component glyphName="Egrave" x="0" y="0" flags="0x204"/>
    </TTGlyph>
    <TTGlyph name="Emacron" xMin="50" yMin="-3" xMax="618" yMax="914">
      <component glyphName="uni0304" x="334" y="56" flags="0x4"/>
      <component glyphName="E" x="0" y="0" flags="0x204"/>
    </TTGlyph>
    <TTGlyph name="Emacron.0" xMin="50" yMin="-3" xMax="618" yMax="914">
      <component glyphName="Emacron" x="0" y="0" flags="0x204"/>
    </TTGlyph>
    <TTGlyph name="Emacron.1" xMin="50" yMin="-3" xMax="618" yMax="914">
      <component glyphName="Emacron" x="0" y="0" flags="0x204"/>
    </TTGlyph>
    <TTGlyph name="Emacron.2" xMin="50" yMin="-3" xMax="618" yMax="914">
      <component glyphName="Emacron" x="0" y="0" flags="0x204"/>
    </TTGlyph>
    <TTGlyph name="Eogonek" xMin="50" yMin="-263" xMax="618" yMax="778">
      <component glyphName="uni0328" x="548" y="-195" flags="0x4"/>
      <component glyphName="E" x="0" y="0" flags="0x204"/>
    </TTGlyph>
    <TTGlyph name="Eogonek.0" xMin="50" yMin="-263" xMax="618" yMax="778">
      <component glyphName="Eogonek" x="0" y="0" flags="0x204"/>
    </TTGlyph>
    <TTGlyph name="Eogonek.1" xMin="50" yMin="-263" xMax="618" yMax="778">
      <component glyphName="Eogonek" x="0" y="0" flags="0x204"/>
    </TTGlyph>
    <TTGlyph name="Eogonek.2" xMin="50" yMin="-263" xMax="618" yMax="778">
      <component glyphName="Eogonek" x="0" y="0" flags="0x204"/>
    </TTGlyph>
    <TTGlyph name="Eth" xMin="50" yMin="-14" xMax="640" yMax="773">
      <contour>
        <pt x="110" y="768" on="1"/>
        <pt x="125" y="763" on="0"/>
        <pt x="243" y="773" on="0"/>
        <pt x="258" y="773" on="1"/>
        <pt x="416" y="773" on="0"/>
        <pt x="640" y="543" on="0"/>
        <pt x="640" y="380" on="1"/>
        <pt x="640" y="273" on="0"/>
        <pt x="539" y="93" on="0"/>
        <pt x="365" y="-13" on="0"/>
        <pt x="262" y="-14" on="1"/>
        <pt x="110" y="-14" on="1"/>
        <pt x="110" y="344" on="1"/>
        <pt x="50" y="344" on="1"/>
        <pt x="50" y="496" on="1"/>
        <pt x="110" y="496" on="1"/>
      </contour>
      <contour>
        <pt x="262" y="143" on="1"/>
        <pt x="356" y="145" on="0"/>
        <pt x="487" y="282" on="0"/>
        <pt x="487" y="378" on="1"/>
        <pt x="487" y="474" on="0"/>
        <pt x="356" y="610" on="0"/>
        <pt x="262" y="612" on="1"/>
        <pt x="262" y="496" on="1"/>
        <pt x="321" y="496" on="1"/>
        <pt x="321" y="344" on="1"/>
        <pt x="262" y="344" on="1"/>
      </contour>
    </TTGlyph>
    <TTGlyph name="Eth.0" xMin="50" yMin="-14" xMax="640" yMax="773">
      <component glyphName="Eth" x="0" y="0" flags="0x204"/>
    </TTGlyph>
    <TTGlyph name="Eth.1" xMin="50" yMin="-14" xMax="640" yMax="773">
      <component glyphName="Eth" x="0" y="0" flags="0x204"/>
    </TTGlyph>
    <TTGlyph name="Eth.2" xMin="50" yMin="-14" xMax="640" yMax="773">
      <component glyphName="Eth" x="0" y="0" flags="0x204"/>
    </TTGlyph>
    <TTGlyph name="Euro" xMin="50" yMin="-14" xMax="555" yMax="773">
      <contour>
        <pt x="65" y="358" on="1"/>
        <pt x="473" y="358" on="1"/>
        <pt x="479" y="358" on="0"/>
        <pt x="488" y="349" on="0"/>
        <pt x="488" y="343" on="1"/>
        <pt x="488" y="287" on="1"/>
        <pt x="488" y="281" on="0"/>
        <pt x="479" y="272" on="0"/>
        <pt x="473" y="272" on="1"/>
        <pt x="65" y="272" on="1"/>
        <pt x="59" y="272" on="0"/>
        <pt x="50" y="281" on="0"/>
        <pt x="50" y="287" on="1"/>
        <pt x="50" y="343" on="1"/>
        <pt x="50" y="349" on="0"/>
        <pt x="59" y="358" on="0"/>
      </contour>
      <contour>
        <pt x="65" y="533" on="1"/>
        <pt x="473" y="533" on="1"/>
        <pt x="479" y="533" on="0"/>
        <pt x="488" y="524" on="0"/>
        <pt x="488" y="518" on="1"/>
        <pt x="488" y="462" on="1"/>
        <pt x="488" y="456" on="0"/>
        <pt x="479" y="447" on="0"/>
        <pt x="473" y="447" on="1"/>
        <pt x="65" y="447" on="1"/>
        <pt x="59" y="447" on="0"/>
        <pt x="50" y="456" on="0"/>
        <pt x="50" y="462" on="1"/>
        <pt x="50" y="518" on="1"/>
        <pt x="50" y="524" on="0"/>
        <pt x="59" y="533" on="0"/>
      </contour>
      <contour>
        <pt x="482" y="612" on="1"/>
        <pt x="387" y="612" on="0"/>
        <pt x="253" y="475" on="0"/>
        <pt x="253" y="378" on="1"/>
        <pt x="253" y="280" on="0"/>
        <pt x="387" y="143" on="0"/>
        <pt x="482" y="143" on="1"/>
        <pt x="520" y="143" on="0"/>
        <pt x="555" y="155" on="1"/>
        <pt x="555" y="-7" on="1"/>
        <pt x="519" y="-14" on="0"/>
        <pt x="482" y="-14" on="1"/>
        <pt x="324" y="-14" on="0"/>
        <pt x="100" y="217" on="0"/>
        <pt x="100" y="543" on="0"/>
        <pt x="324" y="773" on="0"/>
        <pt x="482" y="773" on="1"/>
        <pt x="519" y="773" on="0"/>
        <pt x="555" y="766" on="1"/>
        <pt x="555" y="600" on="1"/>
        <pt x="520" y="612" on="0"/>
      </contour>
    </TTGlyph>
    <TTGlyph name="Euro.0" xMin="50" yMin="-14" xMax="555" yMax="773">
      <component glyphName="Euro" x="0" y="0" flags="0x204"/>
    </TTGlyph>
    <TTGlyph name="Euro.1" xMin="50" yMin="-14" xMax="555" yMax="773">
      <component glyphName="Euro" x="0" y="0" flags="0x204"/>
    </TTGlyph>
    <TTGlyph name="Euro.2" xMin="50" yMin="-14" xMax="555" yMax="773">
      <component glyphName="Euro" x="0" y="0" flags="0x204"/>
    </TTGlyph>
    <TTGlyph name="F" xMin="50" yMin="-2" xMax="618" yMax="778">
      <contour>
        <pt x="509" y="485" on="1"/>
        <pt x="510" y="333" on="1"/>
        <pt x="202" y="333" on="1"/>
        <pt x="202" y="-2" on="1"/>
        <pt x="50" y="-2" on="1"/>
        <pt x="50" y="774" on="1"/>
        <pt x="50" y="778" on="1"/>
        <pt x="617" y="778" on="1"/>
        <pt x="618" y="626" on="1"/>
        <pt x="202" y="626" on="1"/>
        <pt x="202" y="485" on="1"/>
      </contour>
    </TTGlyph>
    <TTGlyph name="F.0" xMin="50" yMin="-2" xMax="618" yMax="778">
      <component glyphName="F" x="0" y="0" flags="0x204"/>
    </TTGlyph>
    <TTGlyph name="F.1" xMin="50" yMin="-2" xMax="618" yMax="778">
      <component glyphName="F" x="0" y="0" flags="0x204"/>
    </TTGlyph>
    <TTGlyph name="F.2" xMin="50" yMin="-2" xMax="618" yMax="778">
      <component glyphName="F" x="0" y="0" flags="0x204"/>
    </TTGlyph>
    <TTGlyph name="G" xMin="50" yMin="-14" xMax="601" yMax="773">
      <contour>
        <pt x="432" y="612" on="1"/>
        <pt x="337" y="612" on="0"/>
        <pt x="203" y="475" on="0"/>
        <pt x="203" y="378" on="1"/>
        <pt x="203" y="280" on="0"/>
        <pt x="337" y="143" on="0"/>
        <pt x="432" y="143" on="1"/>
        <pt x="441" y="143" on="0"/>
        <pt x="449" y="144" on="1"/>
        <pt x="449" y="313" on="1"/>
        <pt x="601" y="313" on="1"/>
        <pt x="601" y="-14" on="1"/>
        <pt x="449" y="-14" on="1"/>
        <pt x="441" y="-14" on="0"/>
        <pt x="432" y="-14" on="1"/>
        <pt x="274" y="-14" on="0"/>
        <pt x="50" y="217" on="0"/>
        <pt x="50" y="543" on="0"/>
        <pt x="274" y="773" on="0"/>
        <pt x="432" y="773" on="1"/>
        <pt x="469" y="773" on="0"/>
        <pt x="505" y="766" on="1"/>
        <pt x="505" y="600" on="1"/>
        <pt x="470" y="612" on="0"/>
      </contour>
    </TTGlyph>
    <TTGlyph name="G.0" xMin="50" yMin="-14" xMax="601" yMax="773">
      <component glyphName="G" x="0" y="0" flags="0x204"/>
    </TTGlyph>
    <TTGlyph name="G.1" xMin="50" yMin="-14" xMax="601" yMax="773">
      <component glyphName="G" x="0" y="0" flags="0x204"/>
    </TTGlyph>
    <TTGlyph name="G.2" xMin="50" yMin="-14" xMax="601" yMax="773">
      <component glyphName="G" x="0" y="0" flags="0x204"/>
    </TTGlyph>
    <TTGlyph name="Gbreve" xMin="50" yMin="-14" xMax="601" yMax="957">
      <component glyphName="uni0306" x="432" y="25" flags="0x4"/>
      <component glyphName="G" x="0" y="0" flags="0x204"/>
    </TTGlyph>
    <TTGlyph name="Gbreve.0" xMin="50" yMin="-14" xMax="601" yMax="957">
      <component glyphName="Gbreve" x="0" y="0" flags="0x204"/>
    </TTGlyph>
    <TTGlyph name="Gbreve.1" xMin="50" yMin="-14" xMax="601" yMax="957">
      <component glyphName="Gbreve" x="0" y="0" flags="0x204"/>
    </TTGlyph>
    <TTGlyph name="Gbreve.2" xMin="50" yMin="-14" xMax="601" yMax="957">
      <component glyphName="Gbreve" x="0" y="0" flags="0x204"/>
    </TTGlyph>
    <TTGlyph name="Gcircumflex" xMin="50" yMin="-14" xMax="601" yMax="1000">
      <component glyphName="uni0302" x="432" y="66" flags="0x4"/>
      <component glyphName="G" x="0" y="0" flags="0x204"/>
    </TTGlyph>
    <TTGlyph name="Gcircumflex.0" xMin="50" yMin="-14" xMax="601" yMax="1000">
      <component glyphName="Gcircumflex" x="0" y="0" flags="0x204"/>
    </TTGlyph>
    <TTGlyph name="Gcircumflex.1" xMin="50" yMin="-14" xMax="601" yMax="1000">
      <component glyphName="Gcircumflex" x="0" y="0" flags="0x204"/>
    </TTGlyph>
    <TTGlyph name="Gcircumflex.2" xMin="50" yMin="-14" xMax="601" yMax="1000">
      <component glyphName="Gcircumflex" x="0" y="0" flags="0x204"/>
    </TTGlyph>
    <TTGlyph name="Gdotaccent" xMin="50" yMin="-14" xMax="601" yMax="975">
      <component glyphName="uni0307" x="432" y="335" flags="0x4"/>
      <component glyphName="G" x="0" y="0" flags="0x204"/>
    </TTGlyph>
    <TTGlyph name="Gdotaccent.0" xMin="50" yMin="-14" xMax="601" yMax="975">
      <component glyphName="Gdotaccent" x="0" y="0" flags="0x204"/>
    </TTGlyph>
    <TTGlyph name="Gdotaccent.1" xMin="50" yMin="-14" xMax="601" yMax="975">
      <component glyphName="Gdotaccent" x="0" y="0" flags="0x204"/>
    </TTGlyph>
    <TTGlyph name="Gdotaccent.2" xMin="50" yMin="-14" xMax="601" yMax="975">
      <component glyphName="Gdotaccent" x="0" y="0" flags="0x204"/>
    </TTGlyph>
    <TTGlyph name="H" xMin="50" yMin="-2" xMax="602" yMax="774">
      <contour>
        <pt x="450" y="774" on="1"/>
        <pt x="602" y="774" on="1"/>
        <pt x="602" y="-2" on="1"/>
        <pt x="450" y="-2" on="1"/>
        <pt x="450" y="333" on="1"/>
        <pt x="202" y="333" on="1"/>
        <pt x="202" y="-2" on="1"/>
        <pt x="50" y="-2" on="1"/>
        <pt x="50" y="774" on="1"/>
        <pt x="202" y="774" on="1"/>
        <pt x="202" y="485" on="1"/>
        <pt x="450" y="485" on="1"/>
      </contour>
    </TTGlyph>
    <TTGlyph name="H.0" xMin="50" yMin="-2" xMax="602" yMax="774">
      <component glyphName="H" x="0" y="0" flags="0x204"/>
    </TTGlyph>
    <TTGlyph name="H.1" xMin="50" yMin="-2" xMax="602" yMax="774">
      <component glyphName="H" x="0" y="0" flags="0x204"/>
    </TTGlyph>
    <TTGlyph name="H.2" xMin="50" yMin="-2" xMax="602" yMax="774">
      <component glyphName="H" x="0" y="0" flags="0x204"/>
    </TTGlyph>
    <TTGlyph name="Hbar" xMin="50" yMin="-2" xMax="697" yMax="774">
      <contour>
        <pt x="252" y="561" on="1"/>
        <pt x="252" y="485" on="1"/>
        <pt x="500" y="485" on="1"/>
        <pt x="500" y="561" on="1"/>
      </contour>
      <contour>
        <pt x="500" y="774" on="1"/>
        <pt x="652" y="774" on="1"/>
        <pt x="652" y="713" on="1"/>
        <pt x="697" y="713" on="1"/>
        <pt x="697" y="561" on="1"/>
        <pt x="652" y="561" on="1"/>
        <pt x="652" y="-2" on="1"/>
        <pt x="500" y="-2" on="1"/>
        <pt x="500" y="333" on="1"/>
        <pt x="252" y="333" on="1"/>
        <pt x="252" y="-2" on="1"/>
        <pt x="100" y="-2" on="1"/>
        <pt x="100" y="561" on="1"/>
        <pt x="50" y="561" on="1"/>
        <pt x="50" y="713" on="1"/>
        <pt x="100" y="713" on="1"/>
        <pt x="100" y="774" on="1"/>
        <pt x="252" y="774" on="1"/>
        <pt x="252" y="713" on="1"/>
        <pt x="500" y="713" on="1"/>
      </contour>
    </TTGlyph>
    <TTGlyph name="Hbar.0" xMin="50" yMin="-2" xMax="697" yMax="774">
      <component glyphName="Hbar" x="0" y="0" flags="0x204"/>
    </TTGlyph>
    <TTGlyph name="Hbar.1" xMin="50" yMin="-2" xMax="697" yMax="774">
      <component glyphName="Hbar" x="0" y="0" flags="0x204"/>
    </TTGlyph>
    <TTGlyph name="Hbar.2" xMin="50" yMin="-2" xMax="697" yMax="774">
      <component glyphName="Hbar" x="0" y="0" flags="0x204"/>
    </TTGlyph>
    <TTGlyph name="Hcircumflex" xMin="50" yMin="-2" xMax="602" yMax="1002">
      <component glyphName="uni0302" x="326" y="68" flags="0x4"/>
      <component glyphName="H" x="0" y="0" flags="0x204"/>
    </TTGlyph>
    <TTGlyph name="Hcircumflex.0" xMin="50" yMin="-2" xMax="602" yMax="1002">
      <component glyphName="Hcircumflex" x="0" y="0" flags="0x204"/>
    </TTGlyph>
    <TTGlyph name="Hcircumflex.1" xMin="50" yMin="-2" xMax="602" yMax="1002">
      <component glyphName="Hcircumflex" x="0" y="0" flags="0x204"/>
    </TTGlyph>
    <TTGlyph name="Hcircumflex.2" xMin="50" yMin="-2" xMax="602" yMax="1002">
      <component glyphName="Hcircumflex" x="0" y="0" flags="0x204"/>
    </TTGlyph>
    <TTGlyph name="I" xMin="50" yMin="-2" xMax="202" yMax="774">
      <contour>
        <pt x="50" y="774" on="1"/>
        <pt x="202" y="774" on="1"/>
        <pt x="202" y="-2" on="1"/>
        <pt x="50" y="-2" on="1"/>
      </contour>
    </TTGlyph>
    <TTGlyph name="I.0" xMin="50" yMin="-2" xMax="202" yMax="774">
      <component glyphName="I" x="0" y="0" flags="0x204"/>
    </TTGlyph>
    <TTGlyph name="I.1" xMin="50" yMin="-2" xMax="202" yMax="774">
      <component glyphName="I" x="0" y="0" flags="0x204"/>
    </TTGlyph>
    <TTGlyph name="I.2" xMin="50" yMin="-2" xMax="202" yMax="774">
      <component glyphName="I" x="0" y="0" flags="0x204"/>
    </TTGlyph>
    <TTGlyph name="Iacute" xMin="18" yMin="-2" xMax="308" yMax="1123">
      <component glyphName="acutecomb" x="163" y="318" flags="0x4"/>
      <component glyphName="I" x="0" y="0" flags="0x204"/>
    </TTGlyph>
    <TTGlyph name="Iacute.0" xMin="18" yMin="-2" xMax="308" yMax="1123">
      <component glyphName="Iacute" x="0" y="0" flags="0x4"/>
    </TTGlyph>
    <TTGlyph name="Iacute.1" xMin="18" yMin="-2" xMax="308" yMax="1123">
      <component glyphName="Iacute" x="0" y="0" flags="0x4"/>
    </TTGlyph>
    <TTGlyph name="Iacute.2" xMin="18" yMin="-2" xMax="308" yMax="1123">
      <component glyphName="Iacute" x="0" y="0" flags="0x4"/>
    </TTGlyph>
    <TTGlyph name="Ibreve" xMin="50" yMin="-2" xMax="306" yMax="942">
      <component glyphName="uni0306" x="178" y="10" flags="0x4"/>
      <component glyphName="I" x="50" y="0" flags="0x4"/>
    </TTGlyph>
    <TTGlyph name="Ibreve.0" xMin="50" yMin="-2" xMax="306" yMax="942">
      <component glyphName="Ibreve" x="0" y="0" flags="0x204"/>
    </TTGlyph>
    <TTGlyph name="Ibreve.1" xMin="50" yMin="-2" xMax="306" yMax="942">
      <component glyphName="Ibreve" x="0" y="0" flags="0x204"/>
    </TTGlyph>
    <TTGlyph name="Ibreve.2" xMin="50" yMin="-2" xMax="306" yMax="942">
      <component glyphName="Ibreve" x="0" y="0" flags="0x204"/>
    </TTGlyph>
    <TTGlyph name="Icircumflex" xMin="50" yMin="-2" xMax="250" yMax="1002">
      <component glyphName="uni0302" x="150" y="68" flags="0x4"/>
      <component glyphName="I" x="24" y="0" flags="0x4"/>
    </TTGlyph>
    <TTGlyph name="Icircumflex.0" xMin="50" yMin="-2" xMax="250" yMax="1002">
      <component glyphName="Icircumflex" x="0" y="0" flags="0x204"/>
    </TTGlyph>
    <TTGlyph name="Icircumflex.1" xMin="50" yMin="-2" xMax="250" yMax="1002">
      <component glyphName="Icircumflex" x="0" y="0" flags="0x204"/>
    </TTGlyph>
    <TTGlyph name="Icircumflex.2" xMin="50" yMin="-2" xMax="250" yMax="1002">
      <component glyphName="Icircumflex" x="0" y="0" flags="0x204"/>
    </TTGlyph>
    <TTGlyph name="Idieresis" xMin="50" yMin="-2" xMax="402" yMax="976">
      <component glyphName="uni0308" x="226" y="336" flags="0x4"/>
      <component glyphName="I" x="100" y="0" flags="0x4"/>
    </TTGlyph>
    <TTGlyph name="Idieresis.0" xMin="50" yMin="-2" xMax="402" yMax="976">
      <component glyphName="Idieresis" x="0" y="0" flags="0x204"/>
    </TTGlyph>
    <TTGlyph name="Idieresis.1" xMin="50" yMin="-2" xMax="402" yMax="976">
      <component glyphName="Idieresis" x="0" y="0" flags="0x204"/>
    </TTGlyph>
    <TTGlyph name="Idieresis.2" xMin="50" yMin="-2" xMax="402" yMax="976">
      <component glyphName="Idieresis" x="0" y="0" flags="0x204"/>
    </TTGlyph>
    <TTGlyph name="Idotaccent" xMin="50" yMin="-2" xMax="202" yMax="976">
      <component glyphName="uni0307" x="126" y="336" flags="0x4"/>
      <component glyphName="I" x="0" y="0" flags="0x204"/>
    </TTGlyph>
    <TTGlyph name="Idotaccent.0" xMin="50" yMin="-2" xMax="202" yMax="976">
      <component glyphName="Idotaccent" x="0" y="0" flags="0x204"/>
    </TTGlyph>
    <TTGlyph name="Idotaccent.1" xMin="50" yMin="-2" xMax="202" yMax="976">
      <component glyphName="Idotaccent" x="0" y="0" flags="0x204"/>
    </TTGlyph>
    <TTGlyph name="Idotaccent.2" xMin="50" yMin="-2" xMax="202" yMax="976">
      <component glyphName="Idotaccent" x="0" y="0" flags="0x204"/>
    </TTGlyph>
    <TTGlyph name="Igrave" xMin="-56" yMin="-2" xMax="234" yMax="1123">
      <component glyphName="gravecomb" x="89" y="318" flags="0x4"/>
      <component glyphName="I" x="0" y="0" flags="0x204"/>
    </TTGlyph>
    <TTGlyph name="Igrave.0" xMin="-56" yMin="-2" xMax="234" yMax="1123">
      <component glyphName="Igrave" x="0" y="0" flags="0x4"/>
    </TTGlyph>
    <TTGlyph name="Igrave.1" xMin="-56" yMin="-2" xMax="234" yMax="1123">
      <component glyphName="Igrave" x="0" y="0" flags="0x4"/>
    </TTGlyph>
    <TTGlyph name="Igrave.2" xMin="-56" yMin="-2" xMax="234" yMax="1123">
      <component glyphName="Igrave" x="0" y="0" flags="0x4"/>
    </TTGlyph>
    <TTGlyph name="Imacron" xMin="50" yMin="-2" xMax="322" yMax="910">
      <component glyphName="uni0304" x="186" y="52" flags="0x4"/>
      <component glyphName="I" x="60" y="0" flags="0x4"/>
    </TTGlyph>
    <TTGlyph name="Imacron.0" xMin="50" yMin="-2" xMax="322" yMax="910">
      <component glyphName="Imacron" x="0" y="0" flags="0x204"/>
    </TTGlyph>
    <TTGlyph name="Imacron.1" xMin="50" yMin="-2" xMax="322" yMax="910">
      <component glyphName="Imacron" x="0" y="0" flags="0x204"/>
    </TTGlyph>
    <TTGlyph name="Imacron.2" xMin="50" yMin="-2" xMax="322" yMax="910">
      <component glyphName="Imacron" x="0" y="0" flags="0x204"/>
    </TTGlyph>
    <TTGlyph name="Iogonek" xMin="50" yMin="-256" xMax="203" yMax="774">
      <component glyphName="uni0328" x="182" y="-188" flags="0x4"/>
      <component glyphName="I" x="0" y="0" flags="0x4"/>
    </TTGlyph>
    <TTGlyph name="Iogonek.0" xMin="50" yMin="-256" xMax="203" yMax="774">
      <component glyphName="Iogonek" x="0" y="0" flags="0x204"/>
    </TTGlyph>
    <TTGlyph name="Iogonek.1" xMin="50" yMin="-256" xMax="203" yMax="774">
      <component glyphName="Iogonek" x="0" y="0" flags="0x204"/>
    </TTGlyph>
    <TTGlyph name="Iogonek.2" xMin="50" yMin="-256" xMax="203" yMax="774">
      <component glyphName="Iogonek" x="0" y="0" flags="0x204"/>
    </TTGlyph>
    <TTGlyph name="Itilde" xMin="-114" yMin="-2" xMax="251" yMax="917">
      <component glyphName="tildecomb" x="11" y="-2" flags="0x4"/>
      <component glyphName="I" x="49" y="0" flags="0x4"/>
    </TTGlyph>
    <TTGlyph name="Itilde.0" xMin="-114" yMin="-2" xMax="251" yMax="917">
      <component glyphName="Itilde" x="0" y="0" flags="0x204"/>
    </TTGlyph>
    <TTGlyph name="Itilde.1" xMin="-114" yMin="-2" xMax="251" yMax="917">
      <component glyphName="Itilde" x="0" y="0" flags="0x204"/>
    </TTGlyph>
    <TTGlyph name="Itilde.2" xMin="-114" yMin="-2" xMax="251" yMax="917">
      <component glyphName="Itilde" x="0" y="0" flags="0x204"/>
    </TTGlyph>
    <TTGlyph name="J" xMin="50" yMin="-3" xMax="369" yMax="761">
      <contour>
        <pt x="50" y="6" on="1"/>
        <pt x="50" y="174" on="1"/>
        <pt x="81" y="148" on="0"/>
        <pt x="121" y="148" on="1"/>
        <pt x="170" y="148" on="0"/>
        <pt x="202" y="185" on="1"/>
        <pt x="202" y="761" on="1"/>
        <pt x="369" y="761" on="1"/>
        <pt x="366" y="184" on="1"/>
        <pt x="342" y="101" on="0"/>
        <pt x="208" y="-3" on="0"/>
        <pt x="121" y="-3" on="1"/>
        <pt x="84" y="-3" on="0"/>
      </contour>
    </TTGlyph>
    <TTGlyph name="J.0" xMin="50" yMin="-3" xMax="369" yMax="761">
      <component glyphName="J" x="0" y="0" flags="0x204"/>
    </TTGlyph>
    <TTGlyph name="J.1" xMin="50" yMin="-3" xMax="369" yMax="761">
      <component glyphName="J" x="0" y="0" flags="0x204"/>
    </TTGlyph>
    <TTGlyph name="J.2" xMin="50" yMin="-3" xMax="369" yMax="761">
      <component glyphName="J" x="0" y="0" flags="0x204"/>
    </TTGlyph>
    <TTGlyph name="Jcircumflex" xMin="50" yMin="-3" xMax="386" yMax="1000">
      <component glyphName="uni0302" x="286" y="66" flags="0x4"/>
      <component glyphName="J" x="0" y="0" flags="0x4"/>
    </TTGlyph>
    <TTGlyph name="Jcircumflex.0" xMin="50" yMin="-3" xMax="386" yMax="1000">
      <component glyphName="Jcircumflex" x="0" y="0" flags="0x204"/>
    </TTGlyph>
    <TTGlyph name="Jcircumflex.1" xMin="50" yMin="-3" xMax="386" yMax="1000">
      <component glyphName="Jcircumflex" x="0" y="0" flags="0x204"/>
    </TTGlyph>
    <TTGlyph name="Jcircumflex.2" xMin="50" yMin="-3" xMax="386" yMax="1000">
      <component glyphName="Jcircumflex" x="0" y="0" flags="0x204"/>
    </TTGlyph>
    <TTGlyph name="K" xMin="50" yMin="-3" xMax="703" yMax="774">
      <contour>
        <pt x="50" y="774" on="1"/>
        <pt x="202" y="774" on="1"/>
        <pt x="202" y="433" on="1"/>
        <pt x="447" y="770" on="1"/>
        <pt x="633" y="768" on="1"/>
        <pt x="372" y="387" on="1"/>
        <pt x="703" y="-3" on="1"/>
        <pt x="511" y="-2" on="1"/>
        <pt x="259" y="302" on="1"/>
        <pt x="202" y="219" on="1"/>
        <pt x="202" y="-2" on="1"/>
        <pt x="50" y="-2" on="1"/>
      </contour>
    </TTGlyph>
    <TTGlyph name="K.0" xMin="50" yMin="-3" xMax="703" yMax="774">
      <component glyphName="K" x="0" y="0" flags="0x204"/>
    </TTGlyph>
    <TTGlyph name="K.1" xMin="50" yMin="-3" xMax="703" yMax="774">
      <component glyphName="K" x="0" y="0" flags="0x204"/>
    </TTGlyph>
    <TTGlyph name="K.2" xMin="50" yMin="-3" xMax="703" yMax="774">
      <component glyphName="K" x="0" y="0" flags="0x204"/>
    </TTGlyph>
    <TTGlyph name="L" xMin="50" yMin="-3" xMax="668" yMax="774">
      <contour>
        <pt x="50" y="774" on="1"/>
        <pt x="202" y="774" on="1"/>
        <pt x="202" y="149" on="1"/>
        <pt x="667" y="149" on="1"/>
        <pt x="668" y="-3" on="1"/>
        <pt x="51" y="-3" on="1"/>
        <pt x="51" y="-2" on="1"/>
        <pt x="50" y="-2" on="1"/>
      </contour>
    </TTGlyph>
    <TTGlyph name="L.0" xMin="50" yMin="-3" xMax="668" yMax="774">
      <component glyphName="L" x="0" y="0" flags="0x204"/>
    </TTGlyph>
    <TTGlyph name="L.1" xMin="50" yMin="-3" xMax="668" yMax="774">
      <component glyphName="L" x="0" y="0" flags="0x204"/>
    </TTGlyph>
    <TTGlyph name="L.2" xMin="50" yMin="-3" xMax="668" yMax="774">
      <component glyphName="L" x="0" y="0" flags="0x204"/>
    </TTGlyph>
    <TTGlyph name="Lacute" xMin="-166" yMin="-3" xMax="700" yMax="1093">
      <component glyphName="acutecomb" x="-21" y="288" flags="0x4"/>
      <component glyphName="L" x="32" y="0" flags="0x4"/>
    </TTGlyph>
    <TTGlyph name="Lacute.0" xMin="-166" yMin="-3" xMax="700" yMax="1093">
      <component glyphName="Lacute" x="0" y="0" flags="0x204"/>
    </TTGlyph>
    <TTGlyph name="Lacute.1" xMin="-166" yMin="-3" xMax="700" yMax="1093">
      <component glyphName="Lacute" x="0" y="0" flags="0x204"/>
    </TTGlyph>
    <TTGlyph name="Lacute.2" xMin="-166" yMin="-3" xMax="700" yMax="1093">
      <component glyphName="Lacute" x="0" y="0" flags="0x204"/>
    </TTGlyph>
    <TTGlyph name="Lcaron" xMin="50" yMin="-3" xMax="668" yMax="777">
      <contour>
        <pt x="50" y="774" on="1"/>
        <pt x="202" y="774" on="1"/>
        <pt x="202" y="149" on="1"/>
        <pt x="667" y="149" on="1"/>
        <pt x="668" y="-3" on="1"/>
        <pt x="51" y="-3" on="1"/>
        <pt x="51" y="-2" on="1"/>
        <pt x="50" y="-2" on="1"/>
      </contour>
      <contour>
        <pt x="252" y="520" on="1"/>
        <pt x="252" y="777" on="1"/>
        <pt x="404" y="777" on="1"/>
        <pt x="359" y="520" on="1"/>
      </contour>
    </TTGlyph>
    <TTGlyph name="Lcaron.0" xMin="50" yMin="-3" xMax="668" yMax="777">
      <component glyphName="Lcaron" x="0" y="0" flags="0x204"/>
    </TTGlyph>
    <TTGlyph name="Lcaron.1" xMin="50" yMin="-3" xMax="668" yMax="777">
      <component glyphName="Lcaron" x="0" y="0" flags="0x204"/>
    </TTGlyph>
    <TTGlyph name="Lcaron.2" xMin="50" yMin="-3" xMax="668" yMax="777">
      <component glyphName="Lcaron" x="0" y="0" flags="0x204"/>
    </TTGlyph>
    <TTGlyph name="Ldot" xMin="50" yMin="-3" xMax="668" yMax="774">
      <component glyphName="periodcentered" x="233" y="-84" flags="0x4"/>
      <component glyphName="L" x="0" y="0" flags="0x204"/>
    </TTGlyph>
    <TTGlyph name="Ldot.0" xMin="50" yMin="-3" xMax="668" yMax="774">
      <component glyphName="Ldot" x="0" y="0" flags="0x204"/>
    </TTGlyph>
    <TTGlyph name="Ldot.1" xMin="50" yMin="-3" xMax="668" yMax="774">
      <component glyphName="Ldot" x="0" y="0" flags="0x204"/>
    </TTGlyph>
    <TTGlyph name="Ldot.2" xMin="50" yMin="-3" xMax="668" yMax="774">
      <component glyphName="Ldot" x="0" y="0" flags="0x204"/>
    </TTGlyph>
    <TTGlyph name="Lslash" xMin="50" yMin="-3" xMax="819" yMax="774">
      <contour>
        <pt x="50" y="494" on="1"/>
        <pt x="507" y="630" on="1"/>
        <pt x="508" y="478" on="1"/>
        <pt x="50" y="342" on="1"/>
      </contour>
      <contour>
        <pt x="201" y="774" on="1"/>
        <pt x="353" y="774" on="1"/>
        <pt x="353" y="149" on="1"/>
        <pt x="818" y="149" on="1"/>
        <pt x="819" y="-3" on="1"/>
        <pt x="202" y="-3" on="1"/>
        <pt x="202" y="-2" on="1"/>
        <pt x="201" y="-2" on="1"/>
      </contour>
    </TTGlyph>
    <TTGlyph name="Lslash.0" xMin="50" yMin="-3" xMax="819" yMax="774">
      <component glyphName="Lslash" x="0" y="0" flags="0x204"/>
    </TTGlyph>
    <TTGlyph name="Lslash.1" xMin="50" yMin="-3" xMax="819" yMax="774">
      <component glyphName="Lslash" x="0" y="0" flags="0x204"/>
    </TTGlyph>
    <TTGlyph name="Lslash.2" xMin="50" yMin="-6" xMax="819" yMax="771">
      <component glyphName="Lslash" x="0" y="-3" flags="0x4"/>
    </TTGlyph>
    <TTGlyph name="M" xMin="50" yMin="-2" xMax="1002" yMax="768">
      <contour>
        <pt x="50" y="768" on="1"/>
        <pt x="202" y="768" on="1"/>
        <pt x="526" y="146" on="1"/>
        <pt x="850" y="768" on="1"/>
        <pt x="1002" y="768" on="1"/>
        <pt x="1002" y="-2" on="1"/>
        <pt x="850" y="-2" on="1"/>
        <pt x="850" y="476" on="1"/>
        <pt x="602" y="0" on="1"/>
        <pt x="450" y="0" on="1"/>
        <pt x="202" y="476" on="1"/>
        <pt x="202" y="-2" on="1"/>
        <pt x="50" y="-2" on="1"/>
      </contour>
    </TTGlyph>
    <TTGlyph name="M.0" xMin="50" yMin="-2" xMax="1002" yMax="768">
      <component glyphName="M" x="0" y="0" flags="0x204"/>
    </TTGlyph>
    <TTGlyph name="M.1" xMin="50" yMin="-2" xMax="1002" yMax="768">
      <component glyphName="M" x="0" y="0" flags="0x204"/>
    </TTGlyph>
    <TTGlyph name="M.2" xMin="50" yMin="-2" xMax="1002" yMax="768">
      <component glyphName="M" x="0" y="0" flags="0x204"/>
    </TTGlyph>
    <TTGlyph name="N" xMin="50" yMin="-2" xMax="802" yMax="774">
      <contour>
        <pt x="50" y="774" on="1"/>
        <pt x="202" y="774" on="1"/>
        <pt x="650" y="251" on="1"/>
        <pt x="650" y="774" on="1"/>
        <pt x="802" y="774" on="1"/>
        <pt x="802" y="-2" on="1"/>
        <pt x="650" y="-2" on="1"/>
        <pt x="202" y="523" on="1"/>
        <pt x="202" y="-2" on="1"/>
        <pt x="50" y="-2" on="1"/>
      </contour>
    </TTGlyph>
    <TTGlyph name="N.0" xMin="50" yMin="-2" xMax="802" yMax="774">
      <component glyphName="N" x="0" y="0" flags="0x204"/>
    </TTGlyph>
    <TTGlyph name="N.1" xMin="50" yMin="-2" xMax="802" yMax="774">
      <component glyphName="N" x="0" y="0" flags="0x204"/>
    </TTGlyph>
    <TTGlyph name="N.2" xMin="50" yMin="-2" xMax="802" yMax="774">
      <component glyphName="N" x="0" y="0" flags="0x204"/>
    </TTGlyph>
    <TTGlyph name="Nacute" xMin="50" yMin="-2" xMax="802" yMax="1090">
      <component glyphName="acutecomb" x="229" y="285" flags="0x4"/>
      <component glyphName="N" x="0" y="0" flags="0x204"/>
    </TTGlyph>
    <TTGlyph name="Nacute.0" xMin="50" yMin="-2" xMax="802" yMax="1090">
      <component glyphName="Nacute" x="0" y="0" flags="0x204"/>
    </TTGlyph>
    <TTGlyph name="Nacute.1" xMin="50" yMin="-2" xMax="802" yMax="1090">
      <component glyphName="Nacute" x="0" y="0" flags="0x204"/>
    </TTGlyph>
    <TTGlyph name="Nacute.2" xMin="50" yMin="-2" xMax="802" yMax="1090">
      <component glyphName="Nacute" x="0" y="0" flags="0x204"/>
    </TTGlyph>
    <TTGlyph name="Ncaron" xMin="50" yMin="-2" xMax="802" yMax="1002">
      <component glyphName="uni030C" x="426" y="68" flags="0x4"/>
      <component glyphName="N" x="0" y="0" flags="0x204"/>
    </TTGlyph>
    <TTGlyph name="Ncaron.0" xMin="50" yMin="-2" xMax="802" yMax="1002">
      <component glyphName="Ncaron" x="0" y="0" flags="0x204"/>
    </TTGlyph>
    <TTGlyph name="Ncaron.1" xMin="50" yMin="-2" xMax="802" yMax="1002">
      <component glyphName="Ncaron" x="0" y="0" flags="0x204"/>
    </TTGlyph>
    <TTGlyph name="Ncaron.2" xMin="50" yMin="-2" xMax="802" yMax="1002">
      <component glyphName="Ncaron" x="0" y="0" flags="0x204"/>
    </TTGlyph>
    <TTGlyph name="Ntilde" xMin="50" yMin="-2" xMax="802" yMax="951">
      <component glyphName="tildecomb" x="426" y="32" flags="0x4"/>
      <component glyphName="N" x="0" y="0" flags="0x204"/>
    </TTGlyph>
    <TTGlyph name="Ntilde.0" xMin="50" yMin="-2" xMax="802" yMax="951">
      <component glyphName="Ntilde" x="0" y="0" flags="0x204"/>
    </TTGlyph>
    <TTGlyph name="Ntilde.1" xMin="50" yMin="-2" xMax="802" yMax="951">
      <component glyphName="Ntilde" x="0" y="0" flags="0x204"/>
    </TTGlyph>
    <TTGlyph name="Ntilde.2" xMin="50" yMin="-2" xMax="802" yMax="951">
      <component glyphName="Ntilde" x="0" y="0" flags="0x204"/>
    </TTGlyph>
    <TTGlyph name="O" xMin="50" yMin="-14" xMax="814" yMax="773">
      <contour>
        <pt x="661" y="378" on="1"/>
        <pt x="661" y="475" on="0"/>
        <pt x="527" y="612" on="0"/>
        <pt x="337" y="612" on="0"/>
        <pt x="203" y="475" on="0"/>
        <pt x="203" y="378" on="1"/>
        <pt x="203" y="280" on="0"/>
        <pt x="337" y="143" on="0"/>
        <pt x="527" y="143" on="0"/>
        <pt x="661" y="280" on="0"/>
      </contour>
      <contour>
        <pt x="814" y="543" on="0"/>
        <pt x="814" y="217" on="0"/>
        <pt x="590" y="-14" on="0"/>
        <pt x="274" y="-14" on="0"/>
        <pt x="50" y="217" on="0"/>
        <pt x="50" y="543" on="0"/>
        <pt x="274" y="773" on="0"/>
        <pt x="590" y="773" on="0"/>
      </contour>
    </TTGlyph>
    <TTGlyph name="O.0" xMin="50" yMin="-14" xMax="814" yMax="773">
      <component glyphName="O" x="0" y="0" flags="0x204"/>
    </TTGlyph>
    <TTGlyph name="O.1" xMin="50" yMin="-14" xMax="814" yMax="773">
      <component glyphName="O" x="0" y="0" flags="0x204"/>
    </TTGlyph>
    <TTGlyph name="O.2" xMin="50" yMin="-14" xMax="814" yMax="773">
      <component glyphName="O" x="0" y="0" flags="0x204"/>
    </TTGlyph>
    <TTGlyph name="OE" xMin="50" yMin="-14" xMax="1018" yMax="778">
      <contour>
        <pt x="432" y="612" on="1"/>
        <pt x="337" y="612" on="0"/>
        <pt x="203" y="475" on="0"/>
        <pt x="203" y="378" on="1"/>
        <pt x="203" y="280" on="0"/>
        <pt x="337" y="143" on="0"/>
        <pt x="432" y="143" on="1"/>
        <pt x="441" y="143" on="0"/>
        <pt x="450" y="144" on="1"/>
        <pt x="450" y="611" on="1"/>
        <pt x="441" y="612" on="0"/>
      </contour>
      <contour>
        <pt x="909" y="485" on="1"/>
        <pt x="910" y="333" on="1"/>
        <pt x="602" y="333" on="1"/>
        <pt x="602" y="149" on="1"/>
        <pt x="1017" y="149" on="1"/>
        <pt x="1018" y="-3" on="1"/>
        <pt x="505" y="-3" on="1"/>
        <pt x="505" y="-7" on="1"/>
        <pt x="469" y="-14" on="0"/>
        <pt x="432" y="-14" on="1"/>
        <pt x="274" y="-14" on="0"/>
        <pt x="50" y="217" on="0"/>
        <pt x="50" y="543" on="0"/>
        <pt x="274" y="773" on="0"/>
        <pt x="432" y="773" on="1"/>
        <pt x="441" y="773" on="0"/>
        <pt x="450" y="773" on="1"/>
        <pt x="450" y="774" on="1"/>
        <pt x="450" y="778" on="1"/>
        <pt x="1017" y="778" on="1"/>
        <pt x="1018" y="626" on="1"/>
        <pt x="602" y="626" on="1"/>
        <pt x="602" y="485" on="1"/>
      </contour>
    </TTGlyph>
    <TTGlyph name="OE.0" xMin="50" yMin="-14" xMax="1018" yMax="778">
      <component glyphName="OE" x="0" y="0" flags="0x204"/>
    </TTGlyph>
    <TTGlyph name="OE.1" xMin="50" yMin="-14" xMax="1018" yMax="778">
      <component glyphName="OE" x="0" y="0" flags="0x204"/>
    </TTGlyph>
    <TTGlyph name="OE.2" xMin="50" yMin="-14" xMax="1018" yMax="778">
      <component glyphName="OE" x="0" y="0" flags="0x204"/>
    </TTGlyph>
    <TTGlyph name="Oacute" xMin="50" yMin="-14" xMax="814" yMax="1122">
      <component glyphName="acutecomb" x="469" y="317" flags="0x4"/>
      <component glyphName="O" x="0" y="0" flags="0x204"/>
    </TTGlyph>
    <TTGlyph name="Oacute.0" xMin="50" yMin="-14" xMax="814" yMax="1122">
      <component glyphName="Oacute" x="0" y="0" flags="0x204"/>
    </TTGlyph>
    <TTGlyph name="Oacute.1" xMin="50" yMin="-14" xMax="814" yMax="1122">
      <component glyphName="Oacute" x="0" y="0" flags="0x204"/>
    </TTGlyph>
    <TTGlyph name="Oacute.2" xMin="50" yMin="-14" xMax="814" yMax="1122">
      <component glyphName="Oacute" x="0" y="0" flags="0x204"/>
    </TTGlyph>
    <TTGlyph name="Obreve" xMin="50" yMin="-14" xMax="814" yMax="957">
      <component glyphName="uni0306" x="432" y="25" flags="0x4"/>
      <component glyphName="O" x="0" y="0" flags="0x204"/>
    </TTGlyph>
    <TTGlyph name="Obreve.0" xMin="50" yMin="-14" xMax="814" yMax="957">
      <component glyphName="Obreve" x="0" y="0" flags="0x204"/>
    </TTGlyph>
    <TTGlyph name="Obreve.1" xMin="50" yMin="-14" xMax="814" yMax="957">
      <component glyphName="Obreve" x="0" y="0" flags="0x204"/>
    </TTGlyph>
    <TTGlyph name="Obreve.2" xMin="50" yMin="-14" xMax="814" yMax="957">
      <component glyphName="Obreve" x="0" y="0" flags="0x204"/>
    </TTGlyph>
    <TTGlyph name="Ocircumflex" xMin="50" yMin="-14" xMax="814" yMax="1000">
      <component glyphName="uni0302" x="432" y="66" flags="0x4"/>
      <component glyphName="O" x="0" y="0" flags="0x204"/>
    </TTGlyph>
    <TTGlyph name="Ocircumflex.0" xMin="50" yMin="-14" xMax="814" yMax="1000">
      <component glyphName="Ocircumflex" x="0" y="0" flags="0x204"/>
    </TTGlyph>
    <TTGlyph name="Ocircumflex.1" xMin="50" yMin="-14" xMax="814" yMax="1000">
      <component glyphName="Ocircumflex" x="0" y="0" flags="0x204"/>
    </TTGlyph>
    <TTGlyph name="Ocircumflex.2" xMin="50" yMin="-14" xMax="814" yMax="1000">
      <component glyphName="Ocircumflex" x="0" y="0" flags="0x204"/>
    </TTGlyph>
    <TTGlyph name="Odieresis" xMin="50" yMin="-14" xMax="814" yMax="975">
      <component glyphName="uni0308" x="432" y="335" flags="0x4"/>
      <component glyphName="O" x="0" y="0" flags="0x204"/>
    </TTGlyph>
    <TTGlyph name="Odieresis.0" xMin="50" yMin="-14" xMax="814" yMax="975">
      <component glyphName="Odieresis" x="0" y="0" flags="0x204"/>
    </TTGlyph>
    <TTGlyph name="Odieresis.1" xMin="50" yMin="-14" xMax="814" yMax="975">
      <component glyphName="Odieresis" x="0" y="0" flags="0x204"/>
    </TTGlyph>
    <TTGlyph name="Odieresis.2" xMin="50" yMin="-14" xMax="814" yMax="975">
      <component glyphName="Odieresis" x="0" y="0" flags="0x204"/>
    </TTGlyph>
    <TTGlyph name="Ograve" xMin="50" yMin="-14" xMax="814" yMax="1122">
      <component glyphName="gravecomb" x="395" y="317" flags="0x4"/>
      <component glyphName="O" x="0" y="0" flags="0x204"/>
    </TTGlyph>
    <TTGlyph name="Ograve.0" xMin="50" yMin="-14" xMax="814" yMax="1122">
      <component glyphName="Ograve" x="0" y="0" flags="0x204"/>
    </TTGlyph>
    <TTGlyph name="Ograve.1" xMin="50" yMin="-14" xMax="814" yMax="1122">
      <component glyphName="Ograve" x="0" y="0" flags="0x204"/>
    </TTGlyph>
    <TTGlyph name="Ograve.2" xMin="50" yMin="-14" xMax="814" yMax="1122">
      <component glyphName="Ograve" x="0" y="0" flags="0x204"/>
    </TTGlyph>
    <TTGlyph name="Ohungarumlaut" xMin="50" yMin="-14" xMax="814" yMax="1124">
      <component glyphName="uni030B" x="469" y="319" flags="0x4"/>
      <component glyphName="O" x="0" y="0" flags="0x204"/>
    </TTGlyph>
    <TTGlyph name="Ohungarumlaut.0" xMin="50" yMin="-14" xMax="814" yMax="1124">
      <component glyphName="Ohungarumlaut" x="0" y="0" flags="0x204"/>
    </TTGlyph>
    <TTGlyph name="Ohungarumlaut.1" xMin="50" yMin="-14" xMax="814" yMax="1124">
      <component glyphName="Ohungarumlaut" x="0" y="0" flags="0x204"/>
    </TTGlyph>
    <TTGlyph name="Ohungarumlaut.2" xMin="50" yMin="-14" xMax="814" yMax="1124">
      <component glyphName="Ohungarumlaut" x="0" y="0" flags="0x204"/>
    </TTGlyph>
    <TTGlyph name="Omacron" xMin="50" yMin="-14" xMax="814" yMax="909">
      <component glyphName="uni0304" x="432" y="51" flags="0x4"/>
      <component glyphName="O" x="0" y="0" flags="0x204"/>
    </TTGlyph>
    <TTGlyph name="Omacron.0" xMin="50" yMin="-14" xMax="814" yMax="909">
      <component glyphName="Omacron" x="0" y="0" flags="0x204"/>
    </TTGlyph>
    <TTGlyph name="Omacron.1" xMin="50" yMin="-14" xMax="814" yMax="909">
      <component glyphName="Omacron" x="0" y="0" flags="0x204"/>
    </TTGlyph>
    <TTGlyph name="Omacron.2" xMin="50" yMin="-14" xMax="814" yMax="909">
      <component glyphName="Omacron" x="0" y="0" flags="0x204"/>
    </TTGlyph>
    <TTGlyph name="Oslash" xMin="50" yMin="-83" xMax="814" yMax="818">
      <contour>
        <pt x="599" y="538" on="1"/>
        <pt x="375" y="150" on="1"/>
        <pt x="403" y="143" on="0"/>
        <pt x="432" y="143" on="1"/>
        <pt x="527" y="143" on="0"/>
        <pt x="661" y="280" on="0"/>
        <pt x="661" y="378" on="1"/>
        <pt x="661" y="471" on="0"/>
      </contour>
      <contour>
        <pt x="495" y="603" on="1"/>
        <pt x="464" y="612" on="0"/>
        <pt x="432" y="612" on="1"/>
        <pt x="337" y="612" on="0"/>
        <pt x="203" y="475" on="0"/>
        <pt x="203" y="281" on="0"/>
        <pt x="269" y="212" on="1"/>
      </contour>
      <contour>
        <pt x="814" y="380" on="1"/>
        <pt x="814" y="217" on="0"/>
        <pt x="590" y="-14" on="0"/>
        <pt x="432" y="-14" on="1"/>
        <pt x="361" y="-14" on="0"/>
        <pt x="295" y="12" on="1"/>
        <pt x="240" y="-83" on="1"/>
        <pt x="134" y="-22" on="1"/>
        <pt x="190" y="75" on="1"/>
        <pt x="125" y="130" on="0"/>
        <pt x="50" y="289" on="0"/>
        <pt x="50" y="380" on="1"/>
        <pt x="50" y="543" on="0"/>
        <pt x="274" y="773" on="0"/>
        <pt x="432" y="773" on="1"/>
        <pt x="507" y="773" on="0"/>
        <pt x="576" y="744" on="1"/>
        <pt x="619" y="818" on="1"/>
        <pt x="725" y="757" on="1"/>
        <pt x="680" y="679" on="1"/>
        <pt x="743" y="624" on="0"/>
        <pt x="814" y="468" on="0"/>
      </contour>
    </TTGlyph>
    <TTGlyph name="Oslash.0" xMin="50" yMin="-83" xMax="814" yMax="818">
      <component glyphName="Oslash" x="0" y="0" flags="0x204"/>
    </TTGlyph>
    <TTGlyph name="Oslash.1" xMin="50" yMin="-83" xMax="814" yMax="818">
      <component glyphName="Oslash" x="0" y="0" flags="0x204"/>
    </TTGlyph>
    <TTGlyph name="Oslash.2" xMin="50" yMin="-83" xMax="814" yMax="818">
      <component glyphName="Oslash" x="0" y="0" flags="0x204"/>
    </TTGlyph>
    <TTGlyph name="Otilde" xMin="50" yMin="-14" xMax="814" yMax="950">
      <component glyphName="tildecomb" x="432" y="31" flags="0x4"/>
      <component glyphName="O" x="0" y="0" flags="0x204"/>
    </TTGlyph>
    <TTGlyph name="Otilde.0" xMin="50" yMin="-14" xMax="814" yMax="950">
      <component glyphName="Otilde" x="0" y="0" flags="0x204"/>
    </TTGlyph>
    <TTGlyph name="Otilde.1" xMin="50" yMin="-14" xMax="814" yMax="950">
      <component glyphName="Otilde" x="0" y="0" flags="0x204"/>
    </TTGlyph>
    <TTGlyph name="Otilde.2" xMin="50" yMin="-14" xMax="814" yMax="950">
      <component glyphName="Otilde" x="0" y="0" flags="0x204"/>
    </TTGlyph>
    <TTGlyph name="P" xMin="50" yMin="3" xMax="484" yMax="780">
      <contour>
        <pt x="202" y="626" on="1"/>
        <pt x="202" y="419" on="1"/>
        <pt x="214" y="416" on="0"/>
        <pt x="226" y="416" on="1"/>
        <pt x="271" y="416" on="0"/>
        <pt x="333" y="478" on="0"/>
        <pt x="333" y="523" on="1"/>
        <pt x="333" y="567" on="0"/>
        <pt x="271" y="629" on="0"/>
        <pt x="226" y="629" on="1"/>
        <pt x="214" y="629" on="0"/>
      </contour>
      <contour>
        <pt x="202" y="3" on="1"/>
        <pt x="50" y="3" on="1"/>
        <pt x="50" y="779" on="1"/>
        <pt x="202" y="779" on="1"/>
        <pt x="210" y="780" on="0"/>
        <pt x="226" y="780" on="1"/>
        <pt x="333" y="780" on="0"/>
        <pt x="484" y="630" on="0"/>
        <pt x="484" y="416" on="0"/>
        <pt x="333" y="265" on="0"/>
        <pt x="226" y="265" on="1"/>
        <pt x="210" y="265" on="0"/>
        <pt x="202" y="266" on="1"/>
      </contour>
    </TTGlyph>
    <TTGlyph name="P.0" xMin="50" yMin="3" xMax="484" yMax="780">
      <component glyphName="P" x="0" y="0" flags="0x204"/>
    </TTGlyph>
    <TTGlyph name="P.1" xMin="50" yMin="3" xMax="484" yMax="780">
      <component glyphName="P" x="0" y="0" flags="0x204"/>
    </TTGlyph>
    <TTGlyph name="P.2" xMin="50" yMin="3" xMax="484" yMax="780">
      <component glyphName="P" x="0" y="0" flags="0x204"/>
    </TTGlyph>
    <TTGlyph name="Q" xMin="50" yMin="-191" xMax="822" yMax="773">
      <contour>
        <pt x="814" y="380" on="1"/>
        <pt x="814" y="293" on="0"/>
        <pt x="746" y="140" on="0"/>
        <pt x="685" y="85" on="1"/>
        <pt x="822" y="-52" on="1"/>
        <pt x="684" y="-191" on="1"/>
        <pt x="501" y="-8" on="1"/>
        <pt x="467" y="-14" on="0"/>
        <pt x="432" y="-14" on="1"/>
        <pt x="274" y="-14" on="0"/>
        <pt x="50" y="217" on="0"/>
        <pt x="50" y="543" on="0"/>
        <pt x="274" y="773" on="0"/>
        <pt x="590" y="773" on="0"/>
        <pt x="814" y="543" on="0"/>
      </contour>
      <contour>
        <pt x="661" y="378" on="1"/>
        <pt x="661" y="475" on="0"/>
        <pt x="527" y="612" on="0"/>
        <pt x="337" y="612" on="0"/>
        <pt x="203" y="475" on="0"/>
        <pt x="203" y="378" on="1"/>
        <pt x="203" y="280" on="0"/>
        <pt x="337" y="143" on="0"/>
        <pt x="527" y="143" on="0"/>
        <pt x="661" y="280" on="0"/>
      </contour>
    </TTGlyph>
    <TTGlyph name="Q.0" xMin="50" yMin="-191" xMax="822" yMax="773">
      <component glyphName="Q" x="0" y="0" flags="0x204"/>
    </TTGlyph>
    <TTGlyph name="Q.1" xMin="50" yMin="-191" xMax="822" yMax="773">
      <component glyphName="Q" x="0" y="0" flags="0x204"/>
    </TTGlyph>
    <TTGlyph name="Q.2" xMin="50" yMin="-191" xMax="822" yMax="773">
      <component glyphName="Q" x="0" y="0" flags="0x204"/>
    </TTGlyph>
    <TTGlyph name="R" xMin="50" yMin="-3" xMax="512" yMax="780">
      <contour>
        <pt x="202" y="3" on="1"/>
        <pt x="50" y="3" on="1"/>
        <pt x="50" y="779" on="1"/>
        <pt x="202" y="779" on="1"/>
        <pt x="210" y="780" on="0"/>
        <pt x="226" y="780" on="1"/>
        <pt x="333" y="780" on="0"/>
        <pt x="484" y="630" on="0"/>
        <pt x="484" y="523" on="1"/>
        <pt x="484" y="440" on="0"/>
        <pt x="389" y="307" on="0"/>
        <pt x="313" y="280" on="1"/>
        <pt x="512" y="-3" on="1"/>
        <pt x="372" y="-3" on="1"/>
        <pt x="207" y="266" on="1"/>
        <pt x="204" y="266" on="0"/>
        <pt x="202" y="266" on="1"/>
      </contour>
      <contour>
        <pt x="202" y="626" on="1"/>
        <pt x="202" y="419" on="1"/>
        <pt x="214" y="416" on="0"/>
        <pt x="226" y="416" on="1"/>
        <pt x="271" y="416" on="0"/>
        <pt x="333" y="478" on="0"/>
        <pt x="333" y="523" on="1"/>
        <pt x="333" y="567" on="0"/>
        <pt x="271" y="629" on="0"/>
        <pt x="226" y="629" on="1"/>
        <pt x="214" y="629" on="0"/>
      </contour>
    </TTGlyph>
    <TTGlyph name="R.0" xMin="50" yMin="-3" xMax="512" yMax="780">
      <component glyphName="R" x="0" y="0" flags="0x204"/>
    </TTGlyph>
    <TTGlyph name="R.1" xMin="50" yMin="-3" xMax="512" yMax="780">
      <component glyphName="R" x="0" y="0" flags="0x204"/>
    </TTGlyph>
    <TTGlyph name="R.2" xMin="50" yMin="-3" xMax="512" yMax="780">
      <component glyphName="R" x="0" y="0" flags="0x204"/>
    </TTGlyph>
    <TTGlyph name="Racute" xMin="50" yMin="-3" xMax="512" yMax="1129">
      <component glyphName="acutecomb" x="263" y="324" flags="0x4"/>
      <component glyphName="R" x="0" y="0" flags="0x204"/>
    </TTGlyph>
    <TTGlyph name="Racute.0" xMin="50" yMin="-3" xMax="512" yMax="1129">
      <component glyphName="Racute" x="0" y="0" flags="0x204"/>
    </TTGlyph>
    <TTGlyph name="Racute.1" xMin="50" yMin="-3" xMax="512" yMax="1129">
      <component glyphName="Racute" x="0" y="0" flags="0x204"/>
    </TTGlyph>
    <TTGlyph name="Racute.2" xMin="50" yMin="-3" xMax="512" yMax="1129">
      <component glyphName="Racute" x="0" y="0" flags="0x204"/>
    </TTGlyph>
    <TTGlyph name="Rcaron" xMin="50" yMin="-3" xMax="512" yMax="1008">
      <component glyphName="uni030C" x="176" y="74" flags="0x4"/>
      <component glyphName="R" x="0" y="0" flags="0x204"/>
    </TTGlyph>
    <TTGlyph name="Rcaron.0" xMin="50" yMin="-3" xMax="512" yMax="1008">
      <component glyphName="Rcaron" x="0" y="0" flags="0x204"/>
    </TTGlyph>
    <TTGlyph name="Rcaron.1" xMin="50" yMin="-3" xMax="512" yMax="1008">
      <component glyphName="Rcaron" x="0" y="0" flags="0x204"/>
    </TTGlyph>
    <TTGlyph name="Rcaron.2" xMin="50" yMin="-3" xMax="512" yMax="1008">
      <component glyphName="Rcaron" x="0" y="0" flags="0x204"/>
    </TTGlyph>
    <TTGlyph name="S" xMin="50" yMin="-9" xMax="469" yMax="777">
      <contour>
        <pt x="50" y="57" on="1"/>
        <pt x="125" y="182" on="1"/>
        <pt x="137" y="172" on="0"/>
        <pt x="147" y="167" on="1"/>
        <pt x="185" y="145" on="0"/>
        <pt x="269" y="166" on="0"/>
        <pt x="292" y="202" on="1"/>
        <pt x="314" y="241" on="0"/>
        <pt x="265" y="308" on="0"/>
        <pt x="222" y="315" on="1"/>
        <pt x="155" y="351" on="0"/>
        <pt x="74" y="445" on="0"/>
        <pt x="53" y="570" on="0"/>
        <pt x="96" y="639" on="1"/>
        <pt x="148" y="726" on="0"/>
        <pt x="354" y="777" on="0"/>
        <pt x="448" y="727" on="1"/>
        <pt x="451" y="724" on="0"/>
        <pt x="466" y="715" on="0"/>
        <pt x="469" y="712" on="1"/>
        <pt x="394" y="587" on="1"/>
        <pt x="382" y="597" on="0"/>
        <pt x="372" y="602" on="1"/>
        <pt x="334" y="623" on="0"/>
        <pt x="249" y="602" on="0"/>
        <pt x="227" y="565" on="1"/>
        <pt x="202" y="524" on="0"/>
        <pt x="243" y="426" on="0"/>
        <pt x="291" y="418" on="1"/>
        <pt x="340" y="392" on="0"/>
        <pt x="407" y="339" on="0"/>
        <pt x="456" y="268" on="0"/>
        <pt x="453" y="180" on="0"/>
        <pt x="422" y="130" on="1"/>
        <pt x="370" y="42" on="0"/>
        <pt x="165" y="-9" on="0"/>
        <pt x="71" y="42" on="1"/>
        <pt x="68" y="45" on="0"/>
        <pt x="53" y="54" on="0"/>
      </contour>
    </TTGlyph>
    <TTGlyph name="S.0" xMin="50" yMin="-9" xMax="469" yMax="777">
      <component glyphName="S" x="0" y="0" flags="0x204"/>
    </TTGlyph>
    <TTGlyph name="S.1" xMin="50" yMin="-9" xMax="469" yMax="777">
      <component glyphName="S" x="0" y="0" flags="0x204"/>
    </TTGlyph>
    <TTGlyph name="S.2" xMin="50" yMin="-9" xMax="469" yMax="777">
      <component glyphName="S" x="0" y="0" flags="0x204"/>
    </TTGlyph>
    <TTGlyph name="Sacute" xMin="50" yMin="-9" xMax="502" yMax="1122">
      <component glyphName="acutecomb" x="357" y="317" flags="0x4"/>
      <component glyphName="S" x="0" y="0" flags="0x204"/>
    </TTGlyph>
    <TTGlyph name="Sacute.0" xMin="50" yMin="-9" xMax="502" yMax="1122">
      <component glyphName="Sacute" x="0" y="0" flags="0x204"/>
    </TTGlyph>
    <TTGlyph name="Sacute.1" xMin="50" yMin="-9" xMax="502" yMax="1122">
      <component glyphName="Sacute" x="0" y="0" flags="0x204"/>
    </TTGlyph>
    <TTGlyph name="Sacute.2" xMin="50" yMin="-9" xMax="502" yMax="1122">
      <component glyphName="Sacute" x="0" y="0" flags="0x204"/>
    </TTGlyph>
    <TTGlyph name="Scaron" xMin="50" yMin="-9" xMax="469" yMax="1001">
      <component glyphName="uni030C" x="273" y="67" flags="0x4"/>
      <component glyphName="S" x="0" y="0" flags="0x204"/>
    </TTGlyph>
    <TTGlyph name="Scaron.0" xMin="50" yMin="-9" xMax="469" yMax="1001">
      <component glyphName="Scaron" x="0" y="0" flags="0x204"/>
    </TTGlyph>
    <TTGlyph name="Scaron.1" xMin="50" yMin="-9" xMax="469" yMax="1001">
      <component glyphName="Scaron" x="0" y="0" flags="0x204"/>
    </TTGlyph>
    <TTGlyph name="Scaron.2" xMin="50" yMin="-9" xMax="469" yMax="1001">
      <component glyphName="Scaron" x="0" y="0" flags="0x204"/>
    </TTGlyph>
    <TTGlyph name="Scedilla" xMin="50" yMin="-252" xMax="469" yMax="777">
      <component glyphName="uni0327" x="240" y="-184" flags="0x4"/>
      <component glyphName="S" x="0" y="0" flags="0x204"/>
    </TTGlyph>
    <TTGlyph name="Scedilla.0" xMin="50" yMin="-252" xMax="469" yMax="777">
      <component glyphName="Scedilla" x="0" y="0" flags="0x204"/>
    </TTGlyph>
    <TTGlyph name="Scedilla.1" xMin="50" yMin="-252" xMax="469" yMax="777">
      <component glyphName="Scedilla" x="0" y="0" flags="0x204"/>
    </TTGlyph>
    <TTGlyph name="Scedilla.2" xMin="50" yMin="-252" xMax="469" yMax="777">
      <component glyphName="Scedilla" x="0" y="0" flags="0x204"/>
    </TTGlyph>
    <TTGlyph name="Scircumflex" xMin="50" yMin="-9" xMax="469" yMax="1000">
      <component glyphName="uni0302" x="273" y="66" flags="0x4"/>
      <component glyphName="S" x="0" y="0" flags="0x204"/>
    </TTGlyph>
    <TTGlyph name="Scircumflex.0" xMin="50" yMin="-9" xMax="469" yMax="1000">
      <component glyphName="Scircumflex" x="0" y="0" flags="0x204"/>
    </TTGlyph>
    <TTGlyph name="Scircumflex.1" xMin="50" yMin="-9" xMax="469" yMax="1000">
      <component glyphName="Scircumflex" x="0" y="0" flags="0x204"/>
    </TTGlyph>
    <TTGlyph name="Scircumflex.2" xMin="50" yMin="-9" xMax="469" yMax="1000">
      <component glyphName="Scircumflex" x="0" y="0" flags="0x204"/>
    </TTGlyph>
    <TTGlyph name="T" xMin="50" yMin="-2" xMax="626" yMax="766">
      <contour>
        <pt x="50" y="614" on="1"/>
        <pt x="50" y="766" on="1"/>
        <pt x="626" y="766" on="1"/>
        <pt x="626" y="614" on="1"/>
        <pt x="414" y="614" on="1"/>
        <pt x="414" y="-2" on="1"/>
        <pt x="262" y="-2" on="1"/>
        <pt x="262" y="614" on="1"/>
      </contour>
    </TTGlyph>
    <TTGlyph name="T.0" xMin="50" yMin="-2" xMax="626" yMax="766">
      <component glyphName="T" x="0" y="0" flags="0x204"/>
    </TTGlyph>
    <TTGlyph name="T.1" xMin="50" yMin="-2" xMax="626" yMax="766">
      <component glyphName="T" x="0" y="0" flags="0x204"/>
    </TTGlyph>
    <TTGlyph name="T.2" xMin="50" yMin="-2" xMax="626" yMax="766">
      <component glyphName="T" x="0" y="0" flags="0x204"/>
    </TTGlyph>
    <TTGlyph name="Tcaron" xMin="50" yMin="-2" xMax="626" yMax="1001">
      <component glyphName="uni030C" x="338" y="67" flags="0x4"/>
      <component glyphName="T" x="0" y="0" flags="0x204"/>
    </TTGlyph>
    <TTGlyph name="Tcaron.0" xMin="50" yMin="-2" xMax="626" yMax="1001">
      <component glyphName="Tcaron" x="0" y="0" flags="0x204"/>
    </TTGlyph>
    <TTGlyph name="Tcaron.1" xMin="50" yMin="-2" xMax="626" yMax="1001">
      <component glyphName="Tcaron" x="0" y="0" flags="0x204"/>
    </TTGlyph>
    <TTGlyph name="Tcaron.2" xMin="50" yMin="-2" xMax="626" yMax="1001">
      <component glyphName="Tcaron" x="0" y="0" flags="0x204"/>
    </TTGlyph>
    <TTGlyph name="Thorn" xMin="50" yMin="3" xMax="484" yMax="903">
      <contour>
        <pt x="202" y="561" on="1"/>
        <pt x="202" y="354" on="1"/>
        <pt x="214" y="351" on="0"/>
        <pt x="226" y="351" on="1"/>
        <pt x="271" y="351" on="0"/>
        <pt x="333" y="413" on="0"/>
        <pt x="333" y="458" on="1"/>
        <pt x="333" y="502" on="0"/>
        <pt x="271" y="564" on="0"/>
        <pt x="226" y="564" on="1"/>
        <pt x="214" y="564" on="0"/>
      </contour>
      <contour>
        <pt x="202" y="3" on="1"/>
        <pt x="50" y="3" on="1"/>
        <pt x="50" y="903" on="1"/>
        <pt x="197" y="903" on="1"/>
        <pt x="202" y="714" on="1"/>
        <pt x="210" y="715" on="0"/>
        <pt x="226" y="715" on="1"/>
        <pt x="333" y="715" on="0"/>
        <pt x="484" y="565" on="0"/>
        <pt x="484" y="351" on="0"/>
        <pt x="333" y="200" on="0"/>
        <pt x="226" y="200" on="1"/>
        <pt x="210" y="200" on="0"/>
        <pt x="202" y="201" on="1"/>
      </contour>
    </TTGlyph>
    <TTGlyph name="Thorn.0" xMin="50" yMin="3" xMax="484" yMax="903">
      <component glyphName="Thorn" x="0" y="0" flags="0x204"/>
    </TTGlyph>
    <TTGlyph name="Thorn.1" xMin="50" yMin="3" xMax="484" yMax="903">
      <component glyphName="Thorn" x="0" y="0" flags="0x204"/>
    </TTGlyph>
    <TTGlyph name="Thorn.2" xMin="50" yMin="3" xMax="484" yMax="903">
      <component glyphName="Thorn" x="0" y="0" flags="0x204"/>
    </TTGlyph>
    <TTGlyph name="U" xMin="50" yMin="3" xMax="619" yMax="761">
      <contour>
        <pt x="616" y="184" on="1"/>
        <pt x="600" y="126" on="0"/>
        <pt x="511" y="43" on="0"/>
        <pt x="399" y="4" on="0"/>
        <pt x="271" y="3" on="0"/>
        <pt x="158" y="41" on="0"/>
        <pt x="70" y="125" on="0"/>
        <pt x="53" y="184" on="1"/>
        <pt x="50" y="761" on="1"/>
        <pt x="217" y="761" on="1"/>
        <pt x="217" y="185" on="1"/>
        <pt x="246" y="152" on="0"/>
        <pt x="424" y="151" on="0"/>
        <pt x="452" y="185" on="1"/>
        <pt x="452" y="761" on="1"/>
        <pt x="619" y="761" on="1"/>
      </contour>
    </TTGlyph>
    <TTGlyph name="U.0" xMin="50" yMin="3" xMax="619" yMax="761">
      <component glyphName="U" x="0" y="0" flags="0x204"/>
    </TTGlyph>
    <TTGlyph name="U.1" xMin="50" yMin="3" xMax="619" yMax="761">
      <component glyphName="U" x="0" y="0" flags="0x204"/>
    </TTGlyph>
    <TTGlyph name="U.2" xMin="50" yMin="3" xMax="619" yMax="761">
      <component glyphName="U" x="0" y="0" flags="0x204"/>
    </TTGlyph>
    <TTGlyph name="Uacute" xMin="50" yMin="3" xMax="619" yMax="1122">
      <component glyphName="acutecomb" x="372" y="317" flags="0x4"/>
      <component glyphName="U" x="0" y="0" flags="0x204"/>
    </TTGlyph>
    <TTGlyph name="Uacute.0" xMin="50" yMin="3" xMax="619" yMax="1122">
      <component glyphName="Uacute" x="0" y="0" flags="0x204"/>
    </TTGlyph>
    <TTGlyph name="Uacute.1" xMin="50" yMin="3" xMax="619" yMax="1122">
      <component glyphName="Uacute" x="0" y="0" flags="0x204"/>
    </TTGlyph>
    <TTGlyph name="Uacute.2" xMin="50" yMin="3" xMax="619" yMax="1122">
      <component glyphName="Uacute" x="0" y="0" flags="0x204"/>
    </TTGlyph>
    <TTGlyph name="Ubreve" xMin="50" yMin="3" xMax="619" yMax="957">
      <component glyphName="uni0306" x="335" y="25" flags="0x4"/>
      <component glyphName="U" x="0" y="0" flags="0x204"/>
    </TTGlyph>
    <TTGlyph name="Ubreve.0" xMin="50" yMin="3" xMax="619" yMax="957">
      <component glyphName="Ubreve" x="0" y="0" flags="0x204"/>
    </TTGlyph>
    <TTGlyph name="Ubreve.1" xMin="50" yMin="3" xMax="619" yMax="957">
      <component glyphName="Ubreve" x="0" y="0" flags="0x204"/>
    </TTGlyph>
    <TTGlyph name="Ubreve.2" xMin="50" yMin="3" xMax="619" yMax="957">
      <component glyphName="Ubreve" x="0" y="0" flags="0x204"/>
    </TTGlyph>
    <TTGlyph name="Ucircumflex" xMin="50" yMin="3" xMax="619" yMax="1000">
      <component glyphName="uni0302" x="334" y="66" flags="0x4"/>
      <component glyphName="U" x="0" y="0" flags="0x204"/>
    </TTGlyph>
    <TTGlyph name="Ucircumflex.0" xMin="50" yMin="3" xMax="619" yMax="1000">
      <component glyphName="Ucircumflex" x="0" y="0" flags="0x204"/>
    </TTGlyph>
    <TTGlyph name="Ucircumflex.1" xMin="50" yMin="3" xMax="619" yMax="1000">
      <component glyphName="Ucircumflex" x="0" y="0" flags="0x204"/>
    </TTGlyph>
    <TTGlyph name="Ucircumflex.2" xMin="50" yMin="3" xMax="619" yMax="1000">
      <component glyphName="Ucircumflex" x="0" y="0" flags="0x204"/>
    </TTGlyph>
    <TTGlyph name="Udieresis" xMin="50" yMin="3" xMax="619" yMax="975">
      <component glyphName="uni0308" x="334" y="335" flags="0x4"/>
      <component glyphName="U" x="0" y="0" flags="0x204"/>
    </TTGlyph>
    <TTGlyph name="Udieresis.0" xMin="50" yMin="3" xMax="619" yMax="975">
      <component glyphName="Udieresis" x="0" y="0" flags="0x204"/>
    </TTGlyph>
    <TTGlyph name="Udieresis.1" xMin="50" yMin="3" xMax="619" yMax="975">
      <component glyphName="Udieresis" x="0" y="0" flags="0x204"/>
    </TTGlyph>
    <TTGlyph name="Udieresis.2" xMin="50" yMin="3" xMax="619" yMax="975">
      <component glyphName="Udieresis" x="0" y="0" flags="0x204"/>
    </TTGlyph>
    <TTGlyph name="Ugrave" xMin="50" yMin="3" xMax="619" yMax="1122">
      <component glyphName="gravecomb" x="298" y="317" flags="0x4"/>
      <component glyphName="U" x="0" y="0" flags="0x204"/>
    </TTGlyph>
    <TTGlyph name="Ugrave.0" xMin="50" yMin="3" xMax="619" yMax="1122">
      <component glyphName="Ugrave" x="0" y="0" flags="0x204"/>
    </TTGlyph>
    <TTGlyph name="Ugrave.1" xMin="50" yMin="3" xMax="619" yMax="1122">
      <component glyphName="Ugrave" x="0" y="0" flags="0x204"/>
    </TTGlyph>
    <TTGlyph name="Ugrave.2" xMin="50" yMin="3" xMax="619" yMax="1122">
      <component glyphName="Ugrave" x="0" y="0" flags="0x204"/>
    </TTGlyph>
    <TTGlyph name="Uhungarumlaut" xMin="50" yMin="3" xMax="660" yMax="1124">
      <component glyphName="uni030B" x="372" y="319" flags="0x4"/>
      <component glyphName="U" x="0" y="0" flags="0x4"/>
    </TTGlyph>
    <TTGlyph name="Uhungarumlaut.0" xMin="50" yMin="3" xMax="660" yMax="1124">
      <component glyphName="Uhungarumlaut" x="0" y="0" flags="0x204"/>
    </TTGlyph>
    <TTGlyph name="Uhungarumlaut.1" xMin="50" yMin="3" xMax="660" yMax="1124">
      <component glyphName="Uhungarumlaut" x="0" y="0" flags="0x204"/>
    </TTGlyph>
    <TTGlyph name="Uhungarumlaut.2" xMin="50" yMin="3" xMax="660" yMax="1124">
      <component glyphName="Uhungarumlaut" x="0" y="0" flags="0x204"/>
    </TTGlyph>
    <TTGlyph name="Umacron" xMin="50" yMin="3" xMax="619" yMax="909">
      <component glyphName="uni0304" x="334" y="51" flags="0x4"/>
      <component glyphName="U" x="0" y="0" flags="0x204"/>
    </TTGlyph>
    <TTGlyph name="Umacron.0" xMin="50" yMin="3" xMax="619" yMax="909">
      <component glyphName="Umacron" x="0" y="0" flags="0x204"/>
    </TTGlyph>
    <TTGlyph name="Umacron.1" xMin="50" yMin="3" xMax="619" yMax="909">
      <component glyphName="Umacron" x="0" y="0" flags="0x204"/>
    </TTGlyph>
    <TTGlyph name="Umacron.2" xMin="50" yMin="3" xMax="619" yMax="909">
      <component glyphName="Umacron" x="0" y="0" flags="0x204"/>
    </TTGlyph>
    <TTGlyph name="Uogonek" xMin="50" yMin="-245" xMax="619" yMax="761">
      <component glyphName="uni0328" x="321" y="-177" flags="0x4"/>
      <component glyphName="U" x="0" y="0" flags="0x204"/>
    </TTGlyph>
    <TTGlyph name="Uogonek.0" xMin="50" yMin="-245" xMax="619" yMax="761">
      <component glyphName="Uogonek" x="0" y="0" flags="0x204"/>
    </TTGlyph>
    <TTGlyph name="Uogonek.1" xMin="50" yMin="-245" xMax="619" yMax="761">
      <component glyphName="Uogonek" x="0" y="0" flags="0x204"/>
    </TTGlyph>
    <TTGlyph name="Uogonek.2" xMin="50" yMin="-245" xMax="619" yMax="761">
      <component glyphName="Uogonek" x="0" y="0" flags="0x204"/>
    </TTGlyph>
    <TTGlyph name="Uring" xMin="50" yMin="3" xMax="619" yMax="1090">
      <component glyphName="uni030A" x="334" y="401" flags="0x4"/>
      <component glyphName="U" x="0" y="0" flags="0x204"/>
    </TTGlyph>
    <TTGlyph name="Uring.0" xMin="50" yMin="3" xMax="619" yMax="1090">
      <component glyphName="Uring" x="0" y="0" flags="0x204"/>
    </TTGlyph>
    <TTGlyph name="Uring.1" xMin="50" yMin="3" xMax="619" yMax="1090">
      <component glyphName="Uring" x="0" y="0" flags="0x204"/>
    </TTGlyph>
    <TTGlyph name="Uring.2" xMin="50" yMin="3" xMax="619" yMax="1090">
      <component glyphName="Uring" x="0" y="0" flags="0x204"/>
    </TTGlyph>
    <TTGlyph name="Utilde" xMin="50" yMin="3" xMax="619" yMax="950">
      <component glyphName="tildecomb" x="335" y="31" flags="0x4"/>
      <component glyphName="U" x="0" y="0" flags="0x204"/>
    </TTGlyph>
    <TTGlyph name="Utilde.0" xMin="50" yMin="3" xMax="619" yMax="950">
      <component glyphName="Utilde" x="0" y="0" flags="0x204"/>
    </TTGlyph>
    <TTGlyph name="Utilde.1" xMin="50" yMin="3" xMax="619" yMax="950">
      <component glyphName="Utilde" x="0" y="0" flags="0x204"/>
    </TTGlyph>
    <TTGlyph name="Utilde.2" xMin="50" yMin="3" xMax="619" yMax="950">
      <component glyphName="Utilde" x="0" y="0" flags="0x204"/>
    </TTGlyph>
    <TTGlyph name="V" xMin="50" yMin="0" xMax="602" yMax="769">
      <contour>
        <pt x="50" y="769" on="1"/>
        <pt x="202" y="769" on="1"/>
        <pt x="326" y="292" on="1"/>
        <pt x="450" y="769" on="1"/>
        <pt x="602" y="769" on="1"/>
        <pt x="402" y="0" on="1"/>
        <pt x="250" y="0" on="1"/>
      </contour>
    </TTGlyph>
    <TTGlyph name="V.0" xMin="50" yMin="0" xMax="602" yMax="769">
      <component glyphName="V" x="0" y="0" flags="0x204"/>
    </TTGlyph>
    <TTGlyph name="V.1" xMin="50" yMin="0" xMax="602" yMax="769">
      <component glyphName="V" x="0" y="0" flags="0x204"/>
    </TTGlyph>
    <TTGlyph name="V.2" xMin="50" yMin="0" xMax="602" yMax="769">
      <component glyphName="V" x="0" y="0" flags="0x204"/>
    </TTGlyph>
    <TTGlyph name="W" xMin="50" yMin="0" xMax="1003" yMax="769">
      <contour>
        <pt x="50" y="769" on="1"/>
        <pt x="202" y="769" on="1"/>
        <pt x="326" y="292" on="1"/>
        <pt x="450" y="769" on="1"/>
        <pt x="451" y="769" on="1"/>
        <pt x="602" y="769" on="1"/>
        <pt x="603" y="769" on="1"/>
        <pt x="727" y="292" on="1"/>
        <pt x="851" y="769" on="1"/>
        <pt x="1003" y="769" on="1"/>
        <pt x="803" y="0" on="1"/>
        <pt x="651" y="0" on="1"/>
        <pt x="526" y="479" on="1"/>
        <pt x="402" y="0" on="1"/>
        <pt x="250" y="0" on="1"/>
      </contour>
    </TTGlyph>
    <TTGlyph name="W.0" xMin="50" yMin="0" xMax="1003" yMax="769">
      <component glyphName="W" x="0" y="0" flags="0x204"/>
    </TTGlyph>
    <TTGlyph name="W.1" xMin="50" yMin="0" xMax="1003" yMax="769">
      <component glyphName="W" x="0" y="0" flags="0x204"/>
    </TTGlyph>
    <TTGlyph name="W.2" xMin="50" yMin="0" xMax="1003" yMax="769">
      <component glyphName="W" x="0" y="0" flags="0x204"/>
    </TTGlyph>
    <TTGlyph name="Wacute" xMin="50" yMin="0" xMax="1003" yMax="1122">
      <component glyphName="acutecomb" x="564" y="317" flags="0x4"/>
      <component glyphName="W" x="0" y="0" flags="0x204"/>
    </TTGlyph>
    <TTGlyph name="Wacute.0" xMin="50" yMin="0" xMax="1003" yMax="1122">
      <component glyphName="Wacute" x="0" y="0" flags="0x204"/>
    </TTGlyph>
    <TTGlyph name="Wacute.1" xMin="50" yMin="0" xMax="1003" yMax="1122">
      <component glyphName="Wacute" x="0" y="0" flags="0x204"/>
    </TTGlyph>
    <TTGlyph name="Wacute.2" xMin="50" yMin="0" xMax="1003" yMax="1122">
      <component glyphName="Wacute" x="0" y="0" flags="0x204"/>
    </TTGlyph>
    <TTGlyph name="Wcircumflex" xMin="50" yMin="0" xMax="1003" yMax="1001">
      <component glyphName="uni0302" x="527" y="67" flags="0x4"/>
      <component glyphName="W" x="0" y="0" flags="0x204"/>
    </TTGlyph>
    <TTGlyph name="Wcircumflex.0" xMin="50" yMin="0" xMax="1003" yMax="1001">
      <component glyphName="Wcircumflex" x="0" y="0" flags="0x204"/>
    </TTGlyph>
    <TTGlyph name="Wcircumflex.1" xMin="50" yMin="0" xMax="1003" yMax="1001">
      <component glyphName="Wcircumflex" x="0" y="0" flags="0x204"/>
    </TTGlyph>
    <TTGlyph name="Wcircumflex.2" xMin="50" yMin="0" xMax="1003" yMax="1001">
      <component glyphName="Wcircumflex" x="0" y="0" flags="0x204"/>
    </TTGlyph>
    <TTGlyph name="Wdieresis" xMin="50" yMin="0" xMax="1003" yMax="975">
      <component glyphName="uni0308" x="527" y="335" flags="0x4"/>
      <component glyphName="W" x="0" y="0" flags="0x204"/>
    </TTGlyph>
    <TTGlyph name="Wdieresis.0" xMin="50" yMin="0" xMax="1003" yMax="975">
      <component glyphName="Wdieresis" x="0" y="0" flags="0x204"/>
    </TTGlyph>
    <TTGlyph name="Wdieresis.1" xMin="50" yMin="0" xMax="1003" yMax="975">
      <component glyphName="Wdieresis" x="0" y="0" flags="0x204"/>
    </TTGlyph>
    <TTGlyph name="Wdieresis.2" xMin="50" yMin="0" xMax="1003" yMax="975">
      <component glyphName="Wdieresis" x="0" y="0" flags="0x204"/>
    </TTGlyph>
    <TTGlyph name="Wgrave" xMin="50" yMin="0" xMax="1003" yMax="1122">
      <component glyphName="gravecomb" x="490" y="317" flags="0x4"/>
      <component glyphName="W" x="0" y="0" flags="0x204"/>
    </TTGlyph>
    <TTGlyph name="Wgrave.0" xMin="50" yMin="0" xMax="1003" yMax="1122">
      <component glyphName="Wgrave" x="0" y="0" flags="0x204"/>
    </TTGlyph>
    <TTGlyph name="Wgrave.1" xMin="50" yMin="0" xMax="1003" yMax="1122">
      <component glyphName="Wgrave" x="0" y="0" flags="0x204"/>
    </TTGlyph>
    <TTGlyph name="Wgrave.2" xMin="50" yMin="0" xMax="1003" yMax="1122">
      <component glyphName="Wgrave" x="0" y="0" flags="0x204"/>
    </TTGlyph>
    <TTGlyph name="X" xMin="50" yMin="-2" xMax="674" yMax="770">
      <contour>
        <pt x="50" y="770" on="1"/>
        <pt x="236" y="768" on="1"/>
        <pt x="366" y="541" on="1"/>
        <pt x="498" y="769" on="1"/>
        <pt x="673" y="768" on="1"/>
        <pt x="453" y="388" on="1"/>
        <pt x="674" y="0" on="1"/>
        <pt x="499" y="-2" on="1"/>
        <pt x="363" y="233" on="1"/>
        <pt x="229" y="2" on="1"/>
        <pt x="51" y="-1" on="1"/>
        <pt x="274" y="384" on="1"/>
      </contour>
    </TTGlyph>
    <TTGlyph name="X.0" xMin="50" yMin="-2" xMax="674" yMax="770">
      <component glyphName="X" x="0" y="0" flags="0x204"/>
    </TTGlyph>
    <TTGlyph name="X.1" xMin="50" yMin="-2" xMax="674" yMax="770">
      <component glyphName="X" x="0" y="0" flags="0x204"/>
    </TTGlyph>
    <TTGlyph name="X.2" xMin="50" yMin="-2" xMax="674" yMax="770">
      <component glyphName="X" x="0" y="0" flags="0x204"/>
    </TTGlyph>
    <TTGlyph name="Y" xMin="50" yMin="1" xMax="602" yMax="765">
      <contour>
        <pt x="249" y="451" on="1"/>
        <pt x="50" y="765" on="1"/>
        <pt x="202" y="765" on="1"/>
        <pt x="326" y="594" on="1"/>
        <pt x="450" y="765" on="1"/>
        <pt x="602" y="765" on="1"/>
        <pt x="402" y="450" on="1"/>
        <pt x="401" y="450" on="1"/>
        <pt x="401" y="1" on="1"/>
        <pt x="249" y="1" on="1"/>
      </contour>
    </TTGlyph>
    <TTGlyph name="Y.0" xMin="50" yMin="1" xMax="602" yMax="765">
      <component glyphName="Y" x="0" y="0" flags="0x204"/>
    </TTGlyph>
    <TTGlyph name="Y.1" xMin="50" yMin="1" xMax="602" yMax="765">
      <component glyphName="Y" x="0" y="0" flags="0x204"/>
    </TTGlyph>
    <TTGlyph name="Y.2" xMin="50" yMin="1" xMax="602" yMax="765">
      <component glyphName="Y" x="0" y="0" flags="0x204"/>
    </TTGlyph>
    <TTGlyph name="Yacute" xMin="50" yMin="1" xMax="602" yMax="1122">
      <component glyphName="acutecomb" x="363" y="317" flags="0x4"/>
      <component glyphName="Y" x="0" y="0" flags="0x204"/>
    </TTGlyph>
    <TTGlyph name="Yacute.0" xMin="50" yMin="1" xMax="602" yMax="1122">
      <component glyphName="Yacute" x="0" y="0" flags="0x204"/>
    </TTGlyph>
    <TTGlyph name="Yacute.1" xMin="50" yMin="1" xMax="602" yMax="1122">
      <component glyphName="Yacute" x="0" y="0" flags="0x204"/>
    </TTGlyph>
    <TTGlyph name="Yacute.2" xMin="50" yMin="1" xMax="602" yMax="1122">
      <component glyphName="Yacute" x="0" y="0" flags="0x204"/>
    </TTGlyph>
    <TTGlyph name="Ycircumflex" xMin="50" yMin="1" xMax="602" yMax="1001">
      <component glyphName="uni0302" x="326" y="67" flags="0x4"/>
      <component glyphName="Y" x="0" y="0" flags="0x204"/>
    </TTGlyph>
    <TTGlyph name="Ycircumflex.0" xMin="50" yMin="1" xMax="602" yMax="1001">
      <component glyphName="Ycircumflex" x="0" y="0" flags="0x204"/>
    </TTGlyph>
    <TTGlyph name="Ycircumflex.1" xMin="50" yMin="1" xMax="602" yMax="1001">
      <component glyphName="Ycircumflex" x="0" y="0" flags="0x204"/>
    </TTGlyph>
    <TTGlyph name="Ycircumflex.2" xMin="50" yMin="1" xMax="602" yMax="1001">
      <component glyphName="Ycircumflex" x="0" y="0" flags="0x204"/>
    </TTGlyph>
    <TTGlyph name="Ydieresis" xMin="50" yMin="1" xMax="602" yMax="975">
      <component glyphName="uni0308" x="326" y="335" flags="0x4"/>
      <component glyphName="Y" x="0" y="0" flags="0x204"/>
    </TTGlyph>
    <TTGlyph name="Ydieresis.0" xMin="50" yMin="1" xMax="602" yMax="975">
      <component glyphName="Ydieresis" x="0" y="0" flags="0x4"/>
    </TTGlyph>
    <TTGlyph name="Ydieresis.1" xMin="50" yMin="1" xMax="602" yMax="975">
      <component glyphName="Ydieresis" x="0" y="0" flags="0x4"/>
    </TTGlyph>
    <TTGlyph name="Ydieresis.2" xMin="50" yMin="1" xMax="602" yMax="975">
      <component glyphName="Ydieresis" x="0" y="0" flags="0x4"/>
    </TTGlyph>
    <TTGlyph name="Ygrave" xMin="50" yMin="1" xMax="602" yMax="1089">
      <component glyphName="gravecomb" x="304" y="284" flags="0x4"/>
      <component glyphName="Y" x="0" y="0" flags="0x204"/>
    </TTGlyph>
    <TTGlyph name="Ygrave.0" xMin="50" yMin="1" xMax="602" yMax="1089">
      <component glyphName="Ygrave" x="0" y="0" flags="0x4"/>
    </TTGlyph>
    <TTGlyph name="Ygrave.1" xMin="50" yMin="1" xMax="602" yMax="1089">
      <component glyphName="Ygrave" x="0" y="0" flags="0x4"/>
    </TTGlyph>
    <TTGlyph name="Ygrave.2" xMin="50" yMin="1" xMax="602" yMax="1089">
      <component glyphName="Ygrave" x="0" y="0" flags="0x4"/>
    </TTGlyph>
    <TTGlyph name="Z" xMin="50" yMin="10" xMax="733" yMax="762">
      <contour>
        <pt x="50" y="10" on="1"/>
        <pt x="50" y="162" on="1"/>
        <pt x="480" y="610" on="1"/>
        <pt x="50" y="610" on="1"/>
        <pt x="50" y="762" on="1"/>
        <pt x="733" y="762" on="1"/>
        <pt x="733" y="610" on="1"/>
        <pt x="301" y="162" on="1"/>
        <pt x="733" y="162" on="1"/>
        <pt x="733" y="10" on="1"/>
      </contour>
    </TTGlyph>
    <TTGlyph name="Z.0" xMin="50" yMin="10" xMax="733" yMax="762">
      <component glyphName="Z" x="0" y="0" flags="0x204"/>
    </TTGlyph>
    <TTGlyph name="Z.1" xMin="50" yMin="10" xMax="733" yMax="762">
      <component glyphName="Z" x="0" y="0" flags="0x204"/>
    </TTGlyph>
    <TTGlyph name="Z.2" xMin="50" yMin="10" xMax="733" yMax="762">
      <component glyphName="Z" x="0" y="0" flags="0x204"/>
    </TTGlyph>
    <TTGlyph name="Zacute" xMin="50" yMin="10" xMax="733" yMax="1122">
      <component glyphName="acutecomb" x="429" y="317" flags="0x4"/>
      <component glyphName="Z" x="0" y="0" flags="0x204"/>
    </TTGlyph>
    <TTGlyph name="Zacute.0" xMin="50" yMin="10" xMax="733" yMax="1122">
      <component glyphName="Zacute" x="0" y="0" flags="0x204"/>
    </TTGlyph>
    <TTGlyph name="Zacute.1" xMin="50" yMin="10" xMax="733" yMax="1122">
      <component glyphName="Zacute" x="0" y="0" flags="0x204"/>
    </TTGlyph>
    <TTGlyph name="Zacute.2" xMin="50" yMin="10" xMax="733" yMax="1122">
      <component glyphName="Zacute" x="0" y="0" flags="0x204"/>
    </TTGlyph>
    <TTGlyph name="Zcaron" xMin="50" yMin="10" xMax="733" yMax="1001">
      <component glyphName="uni030C" x="392" y="67" flags="0x4"/>
      <component glyphName="Z" x="0" y="0" flags="0x204"/>
    </TTGlyph>
    <TTGlyph name="Zcaron.0" xMin="50" yMin="10" xMax="733" yMax="1001">
      <component glyphName="Zcaron" x="0" y="0" flags="0x204"/>
    </TTGlyph>
    <TTGlyph name="Zcaron.1" xMin="50" yMin="10" xMax="733" yMax="1001">
      <component glyphName="Zcaron" x="0" y="0" flags="0x204"/>
    </TTGlyph>
    <TTGlyph name="Zcaron.2" xMin="50" yMin="10" xMax="733" yMax="1001">
      <component glyphName="Zcaron" x="0" y="0" flags="0x204"/>
    </TTGlyph>
    <TTGlyph name="Zdotaccent" xMin="50" yMin="10" xMax="733" yMax="975">
      <component glyphName="uni0307" x="392" y="335" flags="0x4"/>
      <component glyphName="Z" x="0" y="0" flags="0x204"/>
    </TTGlyph>
    <TTGlyph name="Zdotaccent.0" xMin="50" yMin="10" xMax="733" yMax="975">
      <component glyphName="Zdotaccent" x="0" y="0" flags="0x204"/>
    </TTGlyph>
    <TTGlyph name="Zdotaccent.1" xMin="50" yMin="10" xMax="733" yMax="975">
      <component glyphName="Zdotaccent" x="0" y="0" flags="0x204"/>
    </TTGlyph>
    <TTGlyph name="Zdotaccent.2" xMin="50" yMin="10" xMax="733" yMax="975">
      <component glyphName="Zdotaccent" x="0" y="0" flags="0x204"/>
    </TTGlyph>
    <TTGlyph name="a" xMin="50" yMin="1" xMax="484" yMax="515">
      <contour>
        <pt x="332" y="369" on="1"/>
        <pt x="320" y="372" on="0"/>
        <pt x="308" y="372" on="1"/>
        <pt x="263" y="372" on="0"/>
        <pt x="201" y="310" on="0"/>
        <pt x="201" y="266" on="1"/>
        <pt x="201" y="221" on="0"/>
        <pt x="263" y="159" on="0"/>
        <pt x="308" y="159" on="1"/>
        <pt x="320" y="159" on="0"/>
        <pt x="332" y="162" on="1"/>
      </contour>
      <contour>
        <pt x="332" y="1" on="1"/>
        <pt x="332" y="9" on="1"/>
        <pt x="324" y="8" on="0"/>
        <pt x="308" y="8" on="1"/>
        <pt x="201" y="8" on="0"/>
        <pt x="50" y="159" on="0"/>
        <pt x="50" y="266" on="1"/>
        <pt x="50" y="372" on="0"/>
        <pt x="200" y="515" on="0"/>
        <pt x="308" y="515" on="1"/>
        <pt x="324" y="515" on="0"/>
        <pt x="332" y="514" on="1"/>
        <pt x="484" y="514" on="1"/>
        <pt x="484" y="1" on="1"/>
      </contour>
    </TTGlyph>
    <TTGlyph name="a.0" xMin="50" yMin="1" xMax="484" yMax="515">
      <component glyphName="a" x="0" y="0" flags="0x204"/>
    </TTGlyph>
    <TTGlyph name="a.1" xMin="50" yMin="1" xMax="484" yMax="515">
      <component glyphName="a" x="0" y="0" flags="0x204"/>
    </TTGlyph>
    <TTGlyph name="a.2" xMin="50" yMin="1" xMax="484" yMax="515">
      <component glyphName="a" x="0" y="0" flags="0x204"/>
    </TTGlyph>
    <TTGlyph name="aacute" xMin="50" yMin="1" xMax="490" yMax="867">
      <component glyphName="acutecomb" x="345" y="62" flags="0x4"/>
      <component glyphName="a" x="0" y="0" flags="0x204"/>
    </TTGlyph>
    <TTGlyph name="aacute.0" xMin="50" yMin="1" xMax="490" yMax="867">
      <component glyphName="aacute" x="0" y="0" flags="0x204"/>
    </TTGlyph>
    <TTGlyph name="aacute.1" xMin="50" yMin="1" xMax="490" yMax="867">
      <component glyphName="aacute" x="0" y="0" flags="0x204"/>
    </TTGlyph>
    <TTGlyph name="aacute.2" xMin="50" yMin="1" xMax="490" yMax="867">
      <component glyphName="aacute" x="0" y="0" flags="0x204"/>
    </TTGlyph>
    <TTGlyph name="abreve" xMin="50" yMin="1" xMax="484" yMax="702">
      <component glyphName="uni0306" x="258" y="-230" flags="0x4"/>
      <component glyphName="a" x="0" y="0" flags="0x204"/>
    </TTGlyph>
    <TTGlyph name="abreve.0" xMin="50" yMin="1" xMax="484" yMax="702">
      <component glyphName="abreve" x="0" y="0" flags="0x204"/>
    </TTGlyph>
    <TTGlyph name="abreve.1" xMin="50" yMin="1" xMax="484" yMax="702">
      <component glyphName="abreve" x="0" y="0" flags="0x204"/>
    </TTGlyph>
    <TTGlyph name="abreve.2" xMin="50" yMin="1" xMax="484" yMax="702">
      <component glyphName="abreve" x="0" y="0" flags="0x204"/>
    </TTGlyph>
    <TTGlyph name="acircumflex" xMin="50" yMin="1" xMax="484" yMax="746">
      <component glyphName="uni0302" x="258" y="-188" flags="0x4"/>
      <component glyphName="a" x="0" y="0" flags="0x204"/>
    </TTGlyph>
    <TTGlyph name="acircumflex.0" xMin="50" yMin="1" xMax="484" yMax="746">
      <component glyphName="acircumflex" x="0" y="0" flags="0x204"/>
    </TTGlyph>
    <TTGlyph name="acircumflex.1" xMin="50" yMin="1" xMax="484" yMax="746">
      <component glyphName="acircumflex" x="0" y="0" flags="0x204"/>
    </TTGlyph>
    <TTGlyph name="acircumflex.2" xMin="50" yMin="1" xMax="484" yMax="746">
      <component glyphName="acircumflex" x="0" y="0" flags="0x204"/>
    </TTGlyph>
    <TTGlyph name="acute" xMin="50" yMin="460" xMax="340" yMax="749">
      <component glyphName="acutecomb" x="195" y="-56" flags="0x4"/>
    </TTGlyph>
    <TTGlyph name="acute.0" xMin="50" yMin="460" xMax="340" yMax="749">
      <component glyphName="acute" x="0" y="0" flags="0x204"/>
    </TTGlyph>
    <TTGlyph name="acute.1" xMin="50" yMin="460" xMax="340" yMax="749">
      <component glyphName="acute" x="0" y="0" flags="0x204"/>
    </TTGlyph>
    <TTGlyph name="acute.2" xMin="50" yMin="460" xMax="340" yMax="749">
      <component glyphName="acute" x="0" y="0" flags="0x204"/>
    </TTGlyph>
    <TTGlyph name="acutecomb" xMin="-145" yMin="516" xMax="145" yMax="805">
      <contour>
        <pt x="-37" y="516" on="1"/>
        <pt x="-145" y="623" on="1"/>
        <pt x="37" y="805" on="1"/>
        <pt x="145" y="698" on="1"/>
      </contour>
    </TTGlyph>
    <TTGlyph name="acutecomb.0" xMin="-145" yMin="516" xMax="145" yMax="805">
      <component glyphName="acutecomb" x="0" y="0" flags="0x4"/>
    </TTGlyph>
    <TTGlyph name="acutecomb.1" xMin="-145" yMin="516" xMax="145" yMax="805">
      <component glyphName="acutecomb" x="0" y="0" flags="0x4"/>
    </TTGlyph>
    <TTGlyph name="acutecomb.2" xMin="-145" yMin="516" xMax="145" yMax="805">
      <component glyphName="acutecomb" x="0" y="0" flags="0x4"/>
    </TTGlyph>
    <TTGlyph name="adieresis" xMin="50" yMin="1" xMax="484" yMax="720">
      <component glyphName="uni0308" x="258" y="80" flags="0x4"/>
      <component glyphName="a" x="0" y="0" flags="0x204"/>
    </TTGlyph>
    <TTGlyph name="adieresis.0" xMin="50" yMin="1" xMax="484" yMax="720">
      <component glyphName="adieresis" x="0" y="0" flags="0x204"/>
    </TTGlyph>
    <TTGlyph name="adieresis.1" xMin="50" yMin="1" xMax="484" yMax="720">
      <component glyphName="adieresis" x="0" y="0" flags="0x204"/>
    </TTGlyph>
    <TTGlyph name="adieresis.2" xMin="50" yMin="1" xMax="484" yMax="720">
      <component glyphName="adieresis" x="0" y="0" flags="0x204"/>
    </TTGlyph>
    <TTGlyph name="ae" xMin="50" yMin="1" xMax="855" yMax="518">
      <contour>
        <pt x="854" y="260" on="1"/>
        <pt x="854" y="250" on="0"/>
        <pt x="855" y="215" on="0"/>
        <pt x="855" y="208" on="1"/>
        <pt x="508" y="205" on="1"/>
        <pt x="539" y="154" on="0"/>
        <pt x="596" y="154" on="1"/>
        <pt x="630" y="154" on="0"/>
        <pt x="837" y="159" on="0"/>
        <pt x="845" y="162" on="1"/>
        <pt x="845" y="6" on="1"/>
        <pt x="826" y="3" on="0"/>
        <pt x="596" y="3" on="1"/>
        <pt x="549" y="3" on="0"/>
        <pt x="505" y="19" on="1"/>
        <pt x="332" y="1" on="1"/>
        <pt x="332" y="9" on="1"/>
        <pt x="324" y="8" on="0"/>
        <pt x="308" y="8" on="1"/>
        <pt x="201" y="8" on="0"/>
        <pt x="50" y="159" on="0"/>
        <pt x="50" y="266" on="1"/>
        <pt x="50" y="372" on="0"/>
        <pt x="200" y="515" on="0"/>
        <pt x="308" y="515" on="1"/>
        <pt x="324" y="515" on="0"/>
        <pt x="332" y="514" on="1"/>
        <pt x="505" y="514" on="1"/>
        <pt x="596" y="518" on="1"/>
        <pt x="703" y="518" on="0"/>
        <pt x="854" y="367" on="0"/>
      </contour>
      <contour>
        <pt x="332" y="369" on="1"/>
        <pt x="320" y="372" on="0"/>
        <pt x="308" y="372" on="1"/>
        <pt x="263" y="372" on="0"/>
        <pt x="201" y="310" on="0"/>
        <pt x="201" y="266" on="1"/>
        <pt x="201" y="221" on="0"/>
        <pt x="263" y="159" on="0"/>
        <pt x="308" y="159" on="1"/>
        <pt x="320" y="159" on="0"/>
        <pt x="332" y="162" on="1"/>
      </contour>
      <contour>
        <pt x="503" y="297" on="1"/>
        <pt x="695" y="294" on="1"/>
        <pt x="691" y="298" on="0"/>
        <pt x="659" y="336" on="0"/>
        <pt x="641" y="355" on="0"/>
        <pt x="610" y="375" on="0"/>
        <pt x="596" y="375" on="1"/>
        <pt x="578" y="375" on="0"/>
        <pt x="547" y="351" on="0"/>
        <pt x="506" y="300" on="0"/>
      </contour>
    </TTGlyph>
    <TTGlyph name="ae.0" xMin="50" yMin="1" xMax="855" yMax="518">
      <component glyphName="ae" x="0" y="0" flags="0x204"/>
    </TTGlyph>
    <TTGlyph name="ae.1" xMin="50" yMin="1" xMax="855" yMax="518">
      <component glyphName="ae" x="0" y="0" flags="0x204"/>
    </TTGlyph>
    <TTGlyph name="ae.2" xMin="50" yMin="1" xMax="855" yMax="518">
      <component glyphName="ae" x="0" y="0" flags="0x204"/>
    </TTGlyph>
    <TTGlyph name="agrave" xMin="50" yMin="1" xMax="484" yMax="867">
      <component glyphName="gravecomb" x="221" y="62" flags="0x4"/>
      <component glyphName="a" x="0" y="0" flags="0x204"/>
    </TTGlyph>
    <TTGlyph name="agrave.0" xMin="50" yMin="1" xMax="484" yMax="867">
      <component glyphName="agrave" x="0" y="0" flags="0x204"/>
    </TTGlyph>
    <TTGlyph name="agrave.1" xMin="50" yMin="1" xMax="484" yMax="867">
      <component glyphName="agrave" x="0" y="0" flags="0x204"/>
    </TTGlyph>
    <TTGlyph name="agrave.2" xMin="50" yMin="1" xMax="484" yMax="867">
      <component glyphName="agrave" x="0" y="0" flags="0x204"/>
    </TTGlyph>
    <TTGlyph name="amacron" xMin="50" yMin="1" xMax="484" yMax="654">
      <component glyphName="uni0304" x="258" y="-204" flags="0x4"/>
      <component glyphName="a" x="0" y="0" flags="0x204"/>
    </TTGlyph>
    <TTGlyph name="amacron.0" xMin="50" yMin="1" xMax="484" yMax="654">
      <component glyphName="amacron" x="0" y="0" flags="0x204"/>
    </TTGlyph>
    <TTGlyph name="amacron.1" xMin="50" yMin="1" xMax="484" yMax="654">
      <component glyphName="amacron" x="0" y="0" flags="0x204"/>
    </TTGlyph>
    <TTGlyph name="amacron.2" xMin="50" yMin="1" xMax="484" yMax="654">
      <component glyphName="amacron" x="0" y="0" flags="0x204"/>
    </TTGlyph>
    <TTGlyph name="ampersand" xMin="47" yMin="-4" xMax="601" yMax="820">
      <contour>
        <pt x="323" y="158" on="1"/>
        <pt x="210" y="272" on="1"/>
        <pt x="209" y="266" on="0"/>
        <pt x="209" y="260" on="1"/>
        <pt x="209" y="216" on="0"/>
        <pt x="271" y="154" on="0"/>
        <pt x="316" y="154" on="1"/>
        <pt x="317" y="154" on="0"/>
      </contour>
      <contour>
        <pt x="390" y="810" on="1"/>
        <pt x="387" y="691" on="1"/>
        <pt x="369" y="690" on="0"/>
        <pt x="240" y="620" on="0"/>
        <pt x="225" y="605" on="1"/>
        <pt x="191" y="571" on="0"/>
        <pt x="194" y="521" on="1"/>
        <pt x="217" y="498" on="1"/>
        <pt x="264" y="518" on="0"/>
        <pt x="316" y="518" on="1"/>
        <pt x="329" y="518" on="0"/>
        <pt x="342" y="517" on="1"/>
        <pt x="342" y="373" on="1"/>
        <pt x="453" y="262" on="1"/>
        <pt x="566" y="354" on="0"/>
        <pt x="570" y="355" on="1"/>
        <pt x="570" y="202" on="1"/>
        <pt x="567" y="202" on="0"/>
        <pt x="537" y="178" on="1"/>
        <pt x="601" y="114" on="1"/>
        <pt x="483" y="-4" on="1"/>
        <pt x="407" y="73" on="1"/>
        <pt x="320" y="3" on="0"/>
        <pt x="316" y="3" on="1"/>
        <pt x="209" y="3" on="0"/>
        <pt x="58" y="153" on="0"/>
        <pt x="58" y="260" on="1"/>
        <pt x="58" y="330" on="0"/>
        <pt x="93" y="390" on="1"/>
        <pt x="77" y="406" on="1"/>
        <pt x="57" y="442" on="0"/>
        <pt x="47" y="518" on="0"/>
        <pt x="67" y="599" on="0"/>
        <pt x="94" y="667" on="0"/>
        <pt x="118" y="712" on="1"/>
        <pt x="131" y="736" on="0"/>
        <pt x="252" y="792" on="0"/>
        <pt x="374" y="820" on="0"/>
      </contour>
    </TTGlyph>
    <TTGlyph name="ampersand.0" xMin="47" yMin="-4" xMax="601" yMax="820">
      <component glyphName="ampersand" x="0" y="0" flags="0x204"/>
    </TTGlyph>
    <TTGlyph name="ampersand.1" xMin="47" yMin="-4" xMax="601" yMax="820">
      <component glyphName="ampersand" x="0" y="0" flags="0x204"/>
    </TTGlyph>
    <TTGlyph name="ampersand.2" xMin="47" yMin="-4" xMax="601" yMax="820">
      <component glyphName="ampersand" x="0" y="0" flags="0x204"/>
    </TTGlyph>
    <TTGlyph name="aogonek" xMin="50" yMin="-243" xMax="484" yMax="515">
      <component glyphName="uni0328" x="361" y="-175" flags="0x4"/>
      <component glyphName="a" x="0" y="0" flags="0x204"/>
    </TTGlyph>
    <TTGlyph name="aogonek.0" xMin="50" yMin="-243" xMax="484" yMax="515">
      <component glyphName="aogonek" x="0" y="0" flags="0x204"/>
    </TTGlyph>
    <TTGlyph name="aogonek.1" xMin="50" yMin="-243" xMax="484" yMax="515">
      <component glyphName="aogonek" x="0" y="0" flags="0x204"/>
    </TTGlyph>
    <TTGlyph name="aogonek.2" xMin="50" yMin="-243" xMax="484" yMax="515">
      <component glyphName="aogonek" x="0" y="0" flags="0x204"/>
    </TTGlyph>
    <TTGlyph name="aring" xMin="50" yMin="1" xMax="484" yMax="835">
      <component glyphName="uni030A" x="258" y="146" flags="0x4"/>
      <component glyphName="a" x="0" y="0" flags="0x204"/>
    </TTGlyph>
    <TTGlyph name="aring.0" xMin="50" yMin="1" xMax="484" yMax="835">
      <component glyphName="aring" x="0" y="0" flags="0x204"/>
    </TTGlyph>
    <TTGlyph name="aring.1" xMin="50" yMin="1" xMax="484" yMax="835">
      <component glyphName="aring" x="0" y="0" flags="0x204"/>
    </TTGlyph>
    <TTGlyph name="aring.2" xMin="50" yMin="1" xMax="484" yMax="835">
      <component glyphName="aring" x="0" y="0" flags="0x204"/>
    </TTGlyph>
    <TTGlyph name="asciicircum" xMin="50" yMin="283" xMax="452" yMax="617">
      <contour>
        <pt x="50" y="283" on="1"/>
        <pt x="193" y="617" on="1"/>
        <pt x="194" y="617" on="1"/>
        <pt x="345" y="617" on="1"/>
        <pt x="346" y="617" on="1"/>
        <pt x="452" y="283" on="1"/>
        <pt x="300" y="283" on="1"/>
        <pt x="258" y="497" on="1"/>
        <pt x="202" y="283" on="1"/>
      </contour>
    </TTGlyph>
    <TTGlyph name="asciicircum.0" xMin="50" yMin="283" xMax="452" yMax="617">
      <component glyphName="asciicircum" x="0" y="0" flags="0x204"/>
    </TTGlyph>
    <TTGlyph name="asciicircum.1" xMin="50" yMin="283" xMax="452" yMax="617">
      <component glyphName="asciicircum" x="0" y="0" flags="0x204"/>
    </TTGlyph>
    <TTGlyph name="asciicircum.2" xMin="50" yMin="283" xMax="452" yMax="617">
      <component glyphName="asciicircum" x="0" y="0" flags="0x204"/>
    </TTGlyph>
    <TTGlyph name="asciitilde" xMin="50" yMin="344" xMax="549" yMax="577">
      <contour>
        <pt x="549" y="577" on="1"/>
        <pt x="549" y="425" on="1"/>
        <pt x="548" y="421" on="0"/>
        <pt x="517" y="385" on="0"/>
        <pt x="453" y="344" on="0"/>
        <pt x="421" y="344" on="1"/>
        <pt x="321" y="344" on="1"/>
        <pt x="289" y="344" on="0"/>
        <pt x="200" y="400" on="0"/>
        <pt x="168" y="400" on="1"/>
        <pt x="145" y="400" on="0"/>
        <pt x="86" y="372" on="0"/>
        <pt x="68" y="358" on="1"/>
        <pt x="50" y="344" on="1"/>
        <pt x="50" y="496" on="1"/>
        <pt x="114" y="552" on="0"/>
        <pt x="164" y="552" on="1"/>
        <pt x="197" y="552" on="0"/>
        <pt x="291" y="497" on="0"/>
        <pt x="324" y="497" on="1"/>
        <pt x="369" y="497" on="0"/>
        <pt x="413" y="497" on="1"/>
        <pt x="444" y="497" on="0"/>
        <pt x="512" y="537" on="0"/>
        <pt x="530" y="557" on="1"/>
      </contour>
    </TTGlyph>
    <TTGlyph name="asciitilde.0" xMin="50" yMin="344" xMax="549" yMax="577">
      <component glyphName="asciitilde" x="0" y="0" flags="0x204"/>
    </TTGlyph>
    <TTGlyph name="asciitilde.1" xMin="50" yMin="344" xMax="549" yMax="577">
      <component glyphName="asciitilde" x="0" y="0" flags="0x204"/>
    </TTGlyph>
    <TTGlyph name="asciitilde.2" xMin="50" yMin="344" xMax="549" yMax="577">
      <component glyphName="asciitilde" x="0" y="0" flags="0x204"/>
    </TTGlyph>
    <TTGlyph name="asterisk" xMin="50" yMin="149" xMax="594" yMax="692">
      <contour>
        <pt x="594" y="496" on="1"/>
        <pt x="594" y="344" on="1"/>
        <pt x="505" y="344" on="1"/>
        <pt x="568" y="281" on="1"/>
        <pt x="461" y="174" on="1"/>
        <pt x="398" y="237" on="1"/>
        <pt x="398" y="149" on="1"/>
        <pt x="246" y="149" on="1"/>
        <pt x="246" y="237" on="1"/>
        <pt x="183" y="174" on="1"/>
        <pt x="76" y="281" on="1"/>
        <pt x="139" y="344" on="1"/>
        <pt x="50" y="344" on="1"/>
        <pt x="50" y="496" on="1"/>
        <pt x="139" y="496" on="1"/>
        <pt x="76" y="559" on="1"/>
        <pt x="183" y="666" on="1"/>
        <pt x="246" y="603" on="1"/>
        <pt x="246" y="692" on="1"/>
        <pt x="398" y="692" on="1"/>
        <pt x="398" y="603" on="1"/>
        <pt x="461" y="666" on="1"/>
        <pt x="568" y="559" on="1"/>
        <pt x="505" y="496" on="1"/>
      </contour>
    </TTGlyph>
    <TTGlyph name="asterisk.0" xMin="50" yMin="149" xMax="594" yMax="692">
      <component glyphName="asterisk" x="0" y="0" flags="0x204"/>
    </TTGlyph>
    <TTGlyph name="asterisk.1" xMin="50" yMin="149" xMax="594" yMax="692">
      <component glyphName="asterisk" x="0" y="0" flags="0x204"/>
    </TTGlyph>
    <TTGlyph name="asterisk.2" xMin="50" yMin="149" xMax="594" yMax="692">
      <component glyphName="asterisk" x="0" y="0" flags="0x204"/>
    </TTGlyph>
    <TTGlyph name="at" xMin="48" yMin="-22" xMax="842" yMax="767">
      <contour>
        <pt x="568" y="236" on="1"/>
      </contour>
      <contour>
        <pt x="531" y="166" on="1"/>
      </contour>
      <contour>
        <pt x="494" y="228" on="1"/>
        <pt x="480" y="239" on="1"/>
        <pt x="426" y="239" on="0"/>
        <pt x="350" y="314" on="0"/>
        <pt x="350" y="368" on="1"/>
        <pt x="350" y="421" on="0"/>
        <pt x="426" y="492" on="0"/>
        <pt x="480" y="492" on="1"/>
        <pt x="492" y="492" on="1"/>
        <pt x="568" y="492" on="1"/>
        <pt x="575" y="318" on="1"/>
        <pt x="577" y="306" on="0"/>
        <pt x="604" y="278" on="0"/>
        <pt x="637" y="263" on="0"/>
        <pt x="666" y="289" on="0"/>
        <pt x="669" y="326" on="1"/>
        <pt x="669" y="327" on="0"/>
        <pt x="665" y="341" on="0"/>
        <pt x="665" y="342" on="1"/>
        <pt x="674" y="396" on="0"/>
        <pt x="642" y="501" on="0"/>
        <pt x="602" y="541" on="1"/>
        <pt x="534" y="608" on="0"/>
        <pt x="343" y="605" on="0"/>
        <pt x="275" y="537" on="1"/>
        <pt x="206" y="468" on="0"/>
        <pt x="204" y="277" on="0"/>
        <pt x="271" y="209" on="1"/>
        <pt x="323" y="157" on="0"/>
        <pt x="467" y="135" on="0"/>
        <pt x="531" y="166" on="1"/>
        <pt x="542" y="171" on="0"/>
        <pt x="598" y="115" on="0"/>
        <pt x="621" y="84" on="1"/>
        <pt x="644" y="54" on="1"/>
        <pt x="531" y="-22" on="0"/>
        <pt x="257" y="1" on="0"/>
        <pt x="160" y="98" on="1"/>
        <pt x="48" y="210" on="0"/>
        <pt x="53" y="532" on="0"/>
        <pt x="283" y="762" on="0"/>
        <pt x="604" y="767" on="0"/>
        <pt x="716" y="655" on="1"/>
        <pt x="800" y="571" on="0"/>
        <pt x="842" y="325" on="0"/>
        <pt x="794" y="220" on="1"/>
        <pt x="772" y="207" on="0"/>
        <pt x="728" y="191" on="0"/>
        <pt x="679" y="188" on="0"/>
        <pt x="645" y="187" on="0"/>
        <pt x="591" y="200" on="0"/>
        <pt x="566" y="206" on="0"/>
        <pt x="503" y="225" on="0"/>
      </contour>
      <contour>
        <pt x="492" y="420" on="1"/>
        <pt x="488" y="421" on="0"/>
        <pt x="480" y="421" on="1"/>
        <pt x="457" y="421" on="0"/>
        <pt x="426" y="390" on="0"/>
        <pt x="426" y="346" on="0"/>
        <pt x="457" y="314" on="0"/>
        <pt x="480" y="314" on="1"/>
        <pt x="484" y="314" on="0"/>
        <pt x="492" y="316" on="1"/>
      </contour>
    </TTGlyph>
    <TTGlyph name="at.0" xMin="48" yMin="-22" xMax="842" yMax="767">
      <component glyphName="at" x="0" y="0" flags="0x204"/>
    </TTGlyph>
    <TTGlyph name="at.1" xMin="48" yMin="-22" xMax="842" yMax="767">
      <component glyphName="at" x="0" y="0" flags="0x204"/>
    </TTGlyph>
    <TTGlyph name="at.2" xMin="48" yMin="-22" xMax="842" yMax="767">
      <component glyphName="at" x="0" y="0" flags="0x204"/>
    </TTGlyph>
    <TTGlyph name="atilde" xMin="50" yMin="1" xMax="484" yMax="695">
      <component glyphName="tildecomb" x="258" y="-224" flags="0x4"/>
      <component glyphName="a" x="0" y="0" flags="0x204"/>
    </TTGlyph>
    <TTGlyph name="atilde.0" xMin="50" yMin="1" xMax="484" yMax="695">
      <component glyphName="atilde" x="0" y="0" flags="0x204"/>
    </TTGlyph>
    <TTGlyph name="atilde.1" xMin="50" yMin="1" xMax="484" yMax="695">
      <component glyphName="atilde" x="0" y="0" flags="0x204"/>
    </TTGlyph>
    <TTGlyph name="atilde.2" xMin="50" yMin="1" xMax="484" yMax="695">
      <component glyphName="atilde" x="0" y="0" flags="0x204"/>
    </TTGlyph>
    <TTGlyph name="b" xMin="50" yMin="3" xMax="484" yMax="780">
      <contour>
        <pt x="202" y="157" on="1"/>
        <pt x="214" y="154" on="0"/>
        <pt x="226" y="154" on="1"/>
        <pt x="271" y="154" on="0"/>
        <pt x="333" y="216" on="0"/>
        <pt x="333" y="260" on="1"/>
        <pt x="333" y="305" on="0"/>
        <pt x="271" y="367" on="0"/>
        <pt x="226" y="367" on="1"/>
        <pt x="214" y="367" on="0"/>
        <pt x="202" y="364" on="1"/>
      </contour>
      <contour>
        <pt x="202" y="780" on="1"/>
        <pt x="202" y="517" on="1"/>
        <pt x="210" y="518" on="0"/>
        <pt x="226" y="518" on="1"/>
        <pt x="333" y="518" on="0"/>
        <pt x="484" y="367" on="0"/>
        <pt x="484" y="153" on="0"/>
        <pt x="333" y="3" on="0"/>
        <pt x="226" y="3" on="1"/>
        <pt x="210" y="3" on="0"/>
        <pt x="202" y="4" on="1"/>
        <pt x="50" y="4" on="1"/>
        <pt x="50" y="780" on="1"/>
      </contour>
    </TTGlyph>
    <TTGlyph name="b.0" xMin="50" yMin="3" xMax="484" yMax="780">
      <component glyphName="b" x="0" y="0" flags="0x204"/>
    </TTGlyph>
    <TTGlyph name="b.1" xMin="50" yMin="3" xMax="484" yMax="780">
      <component glyphName="b" x="0" y="0" flags="0x204"/>
    </TTGlyph>
    <TTGlyph name="b.2" xMin="50" yMin="3" xMax="484" yMax="780">
      <component glyphName="b" x="0" y="0" flags="0x204"/>
    </TTGlyph>
    <TTGlyph name="backslash" xMin="50" yMin="-83" xMax="641" yMax="818">
      <contour>
        <pt x="156" y="818" on="1"/>
        <pt x="641" y="-22" on="1"/>
        <pt x="535" y="-83" on="1"/>
        <pt x="50" y="757" on="1"/>
      </contour>
    </TTGlyph>
    <TTGlyph name="backslash.0" xMin="50" yMin="-73" xMax="641" yMax="828">
      <contour>
        <pt x="156" y="828" on="1"/>
        <pt x="50" y="767" on="1"/>
        <pt x="535" y="-73" on="1"/>
        <pt x="641" y="-12" on="1"/>
      </contour>
    </TTGlyph>
    <TTGlyph name="backslash.1" xMin="50" yMin="-83" xMax="641" yMax="818">
      <component glyphName="backslash.0" x="0" y="-10" flags="0x204"/>
    </TTGlyph>
    <TTGlyph name="backslash.2" xMin="50" yMin="-73" xMax="641" yMax="828">
      <component glyphName="backslash.0" x="0" y="0" flags="0x204"/>
    </TTGlyph>
    <TTGlyph name="bar" xMin="50" yMin="-99" xMax="172" yMax="871">
      <contour>
        <pt x="50" y="871" on="1"/>
        <pt x="172" y="871" on="1"/>
        <pt x="172" y="-99" on="1"/>
        <pt x="50" y="-99" on="1"/>
      </contour>
    </TTGlyph>
    <TTGlyph name="bar.0" xMin="50" yMin="-99" xMax="172" yMax="871">
      <component glyphName="bar" x="0" y="0" flags="0x204"/>
    </TTGlyph>
    <TTGlyph name="bar.1" xMin="50" yMin="-99" xMax="172" yMax="871">
      <component glyphName="bar" x="0" y="0" flags="0x204"/>
    </TTGlyph>
    <TTGlyph name="bar.2" xMin="50" yMin="-99" xMax="172" yMax="871">
      <component glyphName="bar" x="0" y="0" flags="0x204"/>
    </TTGlyph>
    <TTGlyph name="braceleft" xMin="50" yMin="-92" xMax="322" yMax="805">
      <contour>
        <pt x="322" y="-85" on="1"/>
        <pt x="307" y="-92" on="0"/>
        <pt x="285" y="-92" on="1"/>
        <pt x="241" y="-92" on="0"/>
        <pt x="172" y="-8" on="0"/>
        <pt x="160" y="58" on="1"/>
        <pt x="159" y="228" on="1"/>
        <pt x="50" y="358" on="1"/>
        <pt x="159" y="485" on="1"/>
        <pt x="160" y="655" on="1"/>
        <pt x="172" y="721" on="0"/>
        <pt x="241" y="805" on="0"/>
        <pt x="285" y="805" on="1"/>
        <pt x="307" y="805" on="0"/>
        <pt x="322" y="798" on="1"/>
        <pt x="322" y="663" on="1"/>
        <pt x="306" y="684" on="0"/>
        <pt x="285" y="684" on="1"/>
        <pt x="261" y="684" on="0"/>
        <pt x="244" y="654" on="1"/>
        <pt x="245" y="470" on="1"/>
        <pt x="163" y="369" on="1"/>
        <pt x="244" y="228" on="1"/>
        <pt x="244" y="58" on="1"/>
        <pt x="260" y="29" on="0"/>
        <pt x="285" y="29" on="1"/>
        <pt x="306" y="29" on="0"/>
        <pt x="322" y="50" on="1"/>
      </contour>
    </TTGlyph>
    <TTGlyph name="braceleft.0" xMin="50" yMin="-92" xMax="322" yMax="805">
      <component glyphName="braceleft" x="0" y="0" flags="0x204"/>
    </TTGlyph>
    <TTGlyph name="braceleft.1" xMin="50" yMin="-92" xMax="322" yMax="805">
      <component glyphName="braceleft" x="0" y="0" flags="0x204"/>
    </TTGlyph>
    <TTGlyph name="braceleft.2" xMin="50" yMin="-92" xMax="322" yMax="805">
      <component glyphName="braceleft" x="0" y="0" flags="0x204"/>
    </TTGlyph>
    <TTGlyph name="braceright" xMin="50" yMin="-92" xMax="322" yMax="805">
      <contour>
        <pt x="50" y="-85" on="1"/>
        <pt x="50" y="50" on="1"/>
        <pt x="66" y="29" on="0"/>
        <pt x="87" y="29" on="1"/>
        <pt x="112" y="29" on="0"/>
        <pt x="128" y="58" on="1"/>
        <pt x="128" y="228" on="1"/>
        <pt x="209" y="369" on="1"/>
        <pt x="127" y="470" on="1"/>
        <pt x="128" y="654" on="1"/>
        <pt x="111" y="684" on="0"/>
        <pt x="87" y="684" on="1"/>
        <pt x="66" y="684" on="0"/>
        <pt x="50" y="663" on="1"/>
        <pt x="50" y="798" on="1"/>
        <pt x="65" y="805" on="0"/>
        <pt x="87" y="805" on="1"/>
        <pt x="131" y="805" on="0"/>
        <pt x="200" y="721" on="0"/>
        <pt x="212" y="655" on="1"/>
        <pt x="213" y="485" on="1"/>
        <pt x="322" y="358" on="1"/>
        <pt x="213" y="228" on="1"/>
        <pt x="212" y="58" on="1"/>
        <pt x="200" y="-8" on="0"/>
        <pt x="131" y="-92" on="0"/>
        <pt x="87" y="-92" on="1"/>
        <pt x="65" y="-92" on="0"/>
      </contour>
    </TTGlyph>
    <TTGlyph name="braceright.0" xMin="50" yMin="-92" xMax="322" yMax="805">
      <component glyphName="braceright" x="0" y="0" flags="0x204"/>
    </TTGlyph>
    <TTGlyph name="braceright.1" xMin="50" yMin="-92" xMax="322" yMax="805">
      <component glyphName="braceright" x="0" y="0" flags="0x204"/>
    </TTGlyph>
    <TTGlyph name="braceright.2" xMin="50" yMin="-92" xMax="322" yMax="805">
      <component glyphName="braceright" x="0" y="0" flags="0x204"/>
    </TTGlyph>
    <TTGlyph name="bracketleft" xMin="50" yMin="-80" xMax="312" yMax="774">
      <contour>
        <pt x="51" y="-80" on="1"/>
        <pt x="50" y="-80" on="1"/>
        <pt x="50" y="-79" on="1"/>
        <pt x="50" y="773" on="1"/>
        <pt x="50" y="774" on="1"/>
        <pt x="51" y="774" on="1"/>
        <pt x="312" y="774" on="1"/>
        <pt x="311" y="689" on="1"/>
        <pt x="144" y="689" on="1"/>
        <pt x="144" y="5" on="1"/>
        <pt x="311" y="5" on="1"/>
        <pt x="312" y="-80" on="1"/>
      </contour>
    </TTGlyph>
    <TTGlyph name="bracketleft.0" xMin="50" yMin="-80" xMax="312" yMax="774">
      <component glyphName="bracketleft" x="0" y="0" flags="0x204"/>
    </TTGlyph>
    <TTGlyph name="bracketleft.1" xMin="50" yMin="-80" xMax="312" yMax="774">
      <component glyphName="bracketleft" x="0" y="0" flags="0x204"/>
    </TTGlyph>
    <TTGlyph name="bracketleft.2" xMin="50" yMin="-80" xMax="312" yMax="774">
      <component glyphName="bracketleft" x="0" y="0" flags="0x204"/>
    </TTGlyph>
    <TTGlyph name="bracketright" xMin="50" yMin="-81" xMax="312" yMax="774">
      <contour>
        <pt x="311" y="-81" on="1"/>
        <pt x="50" y="-81" on="1"/>
        <pt x="51" y="4" on="1"/>
        <pt x="218" y="4" on="1"/>
        <pt x="218" y="689" on="1"/>
        <pt x="51" y="689" on="1"/>
        <pt x="50" y="774" on="1"/>
        <pt x="311" y="774" on="1"/>
        <pt x="312" y="774" on="1"/>
        <pt x="312" y="773" on="1"/>
        <pt x="312" y="-80" on="1"/>
        <pt x="312" y="-81" on="1"/>
      </contour>
    </TTGlyph>
    <TTGlyph name="bracketright.0" xMin="50" yMin="-81" xMax="312" yMax="774">
      <component glyphName="bracketright" x="0" y="0" flags="0x204"/>
    </TTGlyph>
    <TTGlyph name="bracketright.1" xMin="50" yMin="-81" xMax="312" yMax="774">
      <component glyphName="bracketright" x="0" y="0" flags="0x204"/>
    </TTGlyph>
    <TTGlyph name="bracketright.2" xMin="50" yMin="-81" xMax="312" yMax="774">
      <component glyphName="bracketright" x="0" y="0" flags="0x204"/>
    </TTGlyph>
    <TTGlyph name="breve" xMin="50" yMin="442" xMax="306" yMax="584">
      <component glyphName="uni0306" x="178" y="-348" flags="0x4"/>
    </TTGlyph>
    <TTGlyph name="breve.0" xMin="50" yMin="442" xMax="306" yMax="584">
      <component glyphName="breve" x="0" y="0" flags="0x204"/>
    </TTGlyph>
    <TTGlyph name="breve.1" xMin="50" yMin="442" xMax="306" yMax="584">
      <component glyphName="breve" x="0" y="0" flags="0x204"/>
    </TTGlyph>
    <TTGlyph name="breve.2" xMin="50" yMin="442" xMax="306" yMax="584">
      <component glyphName="breve" x="0" y="0" flags="0x204"/>
    </TTGlyph>
    <TTGlyph name="brokenbar" xMin="50" yMin="-30" xMax="202" yMax="833">
      <contour>
        <pt x="202" y="833" on="1"/>
        <pt x="202" y="459" on="1"/>
        <pt x="50" y="459" on="1"/>
        <pt x="50" y="833" on="1"/>
      </contour>
      <contour>
        <pt x="202" y="370" on="1"/>
        <pt x="202" y="-30" on="1"/>
        <pt x="50" y="-30" on="1"/>
        <pt x="50" y="370" on="1"/>
      </contour>
    </TTGlyph>
    <TTGlyph name="brokenbar.0" xMin="50" yMin="-30" xMax="202" yMax="833">
      <component glyphName="brokenbar" x="0" y="0" flags="0x204"/>
    </TTGlyph>
    <TTGlyph name="brokenbar.1" xMin="50" yMin="-30" xMax="202" yMax="833">
      <component glyphName="brokenbar" x="0" y="0" flags="0x204"/>
    </TTGlyph>
    <TTGlyph name="brokenbar.2" xMin="50" yMin="-30" xMax="202" yMax="833">
      <component glyphName="brokenbar" x="0" y="0" flags="0x204"/>
    </TTGlyph>
    <TTGlyph name="c" xMin="50" yMin="3" xMax="334" yMax="518">
      <contour>
        <pt x="334" y="4" on="1"/>
        <pt x="321" y="3" on="0"/>
        <pt x="308" y="3" on="1"/>
        <pt x="201" y="3" on="0"/>
        <pt x="50" y="153" on="0"/>
        <pt x="50" y="367" on="0"/>
        <pt x="201" y="518" on="0"/>
        <pt x="308" y="518" on="1"/>
        <pt x="321" y="518" on="0"/>
        <pt x="334" y="517" on="1"/>
        <pt x="334" y="364" on="1"/>
        <pt x="321" y="367" on="0"/>
        <pt x="308" y="367" on="1"/>
        <pt x="263" y="367" on="0"/>
        <pt x="201" y="305" on="0"/>
        <pt x="201" y="260" on="1"/>
        <pt x="201" y="216" on="0"/>
        <pt x="263" y="154" on="0"/>
        <pt x="308" y="154" on="1"/>
        <pt x="321" y="154" on="0"/>
        <pt x="334" y="157" on="1"/>
      </contour>
    </TTGlyph>
    <TTGlyph name="c.0" xMin="50" yMin="3" xMax="334" yMax="518">
      <component glyphName="c" x="0" y="0" flags="0x204"/>
    </TTGlyph>
    <TTGlyph name="c.1" xMin="50" yMin="3" xMax="334" yMax="518">
      <component glyphName="c" x="0" y="0" flags="0x204"/>
    </TTGlyph>
    <TTGlyph name="c.2" xMin="50" yMin="3" xMax="334" yMax="518">
      <component glyphName="c" x="0" y="0" flags="0x204"/>
    </TTGlyph>
    <TTGlyph name="cacute" xMin="50" yMin="3" xMax="490" yMax="867">
      <component glyphName="acutecomb" x="345" y="62" flags="0x4"/>
      <component glyphName="c" x="0" y="0" flags="0x4"/>
    </TTGlyph>
    <TTGlyph name="cacute.0" xMin="50" yMin="3" xMax="490" yMax="867">
      <component glyphName="cacute" x="0" y="0" flags="0x204"/>
    </TTGlyph>
    <TTGlyph name="cacute.1" xMin="50" yMin="3" xMax="490" yMax="867">
      <component glyphName="cacute" x="0" y="0" flags="0x204"/>
    </TTGlyph>
    <TTGlyph name="cacute.2" xMin="50" yMin="3" xMax="490" yMax="867">
      <component glyphName="cacute" x="0" y="0" flags="0x204"/>
    </TTGlyph>
    <TTGlyph name="caron" xMin="50" yMin="766" xMax="250" yMax="934">
      <component glyphName="uni030C" x="150" y="0" flags="0x4"/>
    </TTGlyph>
    <TTGlyph name="caron.0" xMin="50" yMin="766" xMax="250" yMax="934">
      <component glyphName="caron" x="0" y="0" flags="0x204"/>
    </TTGlyph>
    <TTGlyph name="caron.1" xMin="50" yMin="766" xMax="250" yMax="934">
      <component glyphName="caron" x="0" y="0" flags="0x204"/>
    </TTGlyph>
    <TTGlyph name="caron.2" xMin="50" yMin="766" xMax="250" yMax="934">
      <component glyphName="caron" x="0" y="0" flags="0x204"/>
    </TTGlyph>
    <TTGlyph name="ccaron" xMin="50" yMin="3" xMax="408" yMax="746">
      <component glyphName="uni030C" x="308" y="-188" flags="0x4"/>
      <component glyphName="c" x="0" y="0" flags="0x4"/>
    </TTGlyph>
    <TTGlyph name="ccaron.0" xMin="50" yMin="3" xMax="408" yMax="746">
      <component glyphName="ccaron" x="0" y="0" flags="0x204"/>
    </TTGlyph>
    <TTGlyph name="ccaron.1" xMin="50" yMin="3" xMax="408" yMax="746">
      <component glyphName="ccaron" x="0" y="0" flags="0x204"/>
    </TTGlyph>
    <TTGlyph name="ccaron.2" xMin="50" yMin="3" xMax="408" yMax="746">
      <component glyphName="ccaron" x="0" y="0" flags="0x204"/>
    </TTGlyph>
    <TTGlyph name="ccedilla" xMin="50" yMin="-245" xMax="393" yMax="518">
      <component glyphName="uni0327" x="372" y="-177" flags="0x4"/>
      <component glyphName="c" x="0" y="0" flags="0x4"/>
    </TTGlyph>
    <TTGlyph name="ccedilla.0" xMin="50" yMin="-245" xMax="393" yMax="518">
      <component glyphName="ccedilla" x="0" y="0" flags="0x204"/>
    </TTGlyph>
    <TTGlyph name="ccedilla.1" xMin="50" yMin="-245" xMax="393" yMax="518">
      <component glyphName="ccedilla" x="0" y="0" flags="0x204"/>
    </TTGlyph>
    <TTGlyph name="ccedilla.2" xMin="50" yMin="-245" xMax="393" yMax="518">
      <component glyphName="ccedilla" x="0" y="0" flags="0x204"/>
    </TTGlyph>
    <TTGlyph name="ccircumflex" xMin="50" yMin="3" xMax="408" yMax="746">
      <component glyphName="uni0302" x="308" y="-188" flags="0x4"/>
      <component glyphName="c" x="0" y="0" flags="0x4"/>
    </TTGlyph>
    <TTGlyph name="ccircumflex.0" xMin="50" yMin="3" xMax="408" yMax="746">
      <component glyphName="ccircumflex" x="0" y="0" flags="0x204"/>
    </TTGlyph>
    <TTGlyph name="ccircumflex.1" xMin="50" yMin="3" xMax="408" yMax="746">
      <component glyphName="ccircumflex" x="0" y="0" flags="0x204"/>
    </TTGlyph>
    <TTGlyph name="ccircumflex.2" xMin="50" yMin="3" xMax="408" yMax="746">
      <component glyphName="ccircumflex" x="0" y="0" flags="0x204"/>
    </TTGlyph>
    <TTGlyph name="cdotaccent" xMin="50" yMin="3" xMax="334" yMax="720">
      <component glyphName="uni0307" x="254" y="80" flags="0x4"/>
      <component glyphName="c" x="0" y="0" flags="0x204"/>
    </TTGlyph>
    <TTGlyph name="cdotaccent.0" xMin="50" yMin="3" xMax="334" yMax="720">
      <component glyphName="cdotaccent" x="0" y="0" flags="0x204"/>
    </TTGlyph>
    <TTGlyph name="cdotaccent.1" xMin="50" yMin="3" xMax="334" yMax="720">
      <component glyphName="cdotaccent" x="0" y="0" flags="0x204"/>
    </TTGlyph>
    <TTGlyph name="cdotaccent.2" xMin="50" yMin="3" xMax="334" yMax="720">
      <component glyphName="cdotaccent" x="0" y="0" flags="0x204"/>
    </TTGlyph>
    <TTGlyph name="cedilla" xMin="50" yMin="-248" xMax="192" yMax="9">
      <component glyphName="uni0327" x="171" y="-180" flags="0x4"/>
    </TTGlyph>
    <TTGlyph name="cedilla.0" xMin="50" yMin="-248" xMax="192" yMax="9">
      <component glyphName="cedilla" x="0" y="0" flags="0x204"/>
    </TTGlyph>
    <TTGlyph name="cedilla.1" xMin="50" yMin="-248" xMax="192" yMax="9">
      <component glyphName="cedilla" x="0" y="0" flags="0x204"/>
    </TTGlyph>
    <TTGlyph name="cedilla.2" xMin="50" yMin="-248" xMax="192" yMax="9">
      <component glyphName="cedilla" x="0" y="0" flags="0x204"/>
    </TTGlyph>
    <TTGlyph name="cent" xMin="50" yMin="-99" xMax="334" yMax="700">
      <contour>
        <pt x="334" y="4" on="1"/>
        <pt x="321" y="3" on="0"/>
        <pt x="308" y="3" on="1"/>
        <pt x="296" y="3" on="0"/>
        <pt x="285" y="4" on="1"/>
        <pt x="285" y="-99" on="1"/>
        <pt x="238" y="-99" on="1"/>
        <pt x="238" y="13" on="1"/>
        <pt x="156" y="35" on="0"/>
        <pt x="50" y="172" on="0"/>
        <pt x="50" y="260" on="1"/>
        <pt x="50" y="348" on="0"/>
        <pt x="156" y="485" on="0"/>
        <pt x="238" y="508" on="1"/>
        <pt x="238" y="700" on="1"/>
        <pt x="285" y="700" on="1"/>
        <pt x="285" y="517" on="1"/>
        <pt x="296" y="518" on="0"/>
        <pt x="308" y="518" on="1"/>
        <pt x="321" y="518" on="0"/>
        <pt x="334" y="517" on="1"/>
        <pt x="334" y="364" on="1"/>
        <pt x="321" y="367" on="0"/>
        <pt x="308" y="367" on="1"/>
        <pt x="296" y="367" on="0"/>
        <pt x="285" y="365" on="1"/>
        <pt x="285" y="156" on="1"/>
        <pt x="296" y="154" on="0"/>
        <pt x="308" y="154" on="1"/>
        <pt x="321" y="154" on="0"/>
        <pt x="334" y="157" on="1"/>
      </contour>
      <contour>
        <pt x="238" y="342" on="1"/>
        <pt x="201" y="310" on="0"/>
        <pt x="201" y="260" on="1"/>
        <pt x="201" y="211" on="0"/>
        <pt x="238" y="179" on="1"/>
      </contour>
    </TTGlyph>
    <TTGlyph name="cent.0" xMin="50" yMin="-99" xMax="334" yMax="700">
      <component glyphName="cent" x="0" y="0" flags="0x204"/>
    </TTGlyph>
    <TTGlyph name="cent.1" xMin="50" yMin="-99" xMax="334" yMax="700">
      <component glyphName="cent" x="0" y="0" flags="0x204"/>
    </TTGlyph>
    <TTGlyph name="cent.2" xMin="50" yMin="-99" xMax="334" yMax="700">
      <component glyphName="cent" x="0" y="0" flags="0x204"/>
    </TTGlyph>
    <TTGlyph name="circumflex" xMin="50" yMin="367" xMax="251" yMax="534">
      <component glyphName="asciicircum" x="25" y="225" scale="0.5" flags="0x4"/>
    </TTGlyph>
    <TTGlyph name="circumflex.0" xMin="50" yMin="367" xMax="251" yMax="534">
      <component glyphName="circumflex" x="0" y="0" flags="0x204"/>
    </TTGlyph>
    <TTGlyph name="circumflex.1" xMin="50" yMin="367" xMax="251" yMax="534">
      <component glyphName="circumflex" x="0" y="0" flags="0x204"/>
    </TTGlyph>
    <TTGlyph name="circumflex.2" xMin="50" yMin="367" xMax="251" yMax="534">
      <component glyphName="circumflex" x="0" y="0" flags="0x204"/>
    </TTGlyph>
    <TTGlyph name="colon" xMin="50" yMin="-2" xMax="202" yMax="540">
      <contour>
        <pt x="50" y="-2" on="1"/>
        <pt x="50" y="140" on="1"/>
        <pt x="202" y="140" on="1"/>
        <pt x="202" y="-2" on="1"/>
      </contour>
      <contour>
        <pt x="50" y="398" on="1"/>
        <pt x="50" y="540" on="1"/>
        <pt x="202" y="540" on="1"/>
        <pt x="202" y="398" on="1"/>
      </contour>
    </TTGlyph>
    <TTGlyph name="colon.0" xMin="50" yMin="-2" xMax="202" yMax="540">
      <component glyphName="colon" x="0" y="0" flags="0x204"/>
    </TTGlyph>
    <TTGlyph name="colon.1" xMin="50" yMin="-2" xMax="202" yMax="540">
      <component glyphName="colon" x="0" y="0" flags="0x204"/>
    </TTGlyph>
    <TTGlyph name="colon.2" xMin="50" yMin="-2" xMax="202" yMax="540">
      <component glyphName="colon" x="0" y="0" flags="0x204"/>
    </TTGlyph>
    <TTGlyph name="comma" xMin="50" yMin="-134" xMax="202" yMax="140">
      <contour>
        <pt x="50" y="-2" on="1"/>
        <pt x="50" y="140" on="1"/>
        <pt x="202" y="140" on="1"/>
        <pt x="202" y="-2" on="1"/>
        <pt x="142" y="-134" on="1"/>
        <pt x="84" y="-130" on="1"/>
        <pt x="93" y="-2" on="1"/>
      </contour>
    </TTGlyph>
    <TTGlyph name="comma.0" xMin="50" yMin="-134" xMax="202" yMax="140">
      <component glyphName="comma" x="0" y="0" flags="0x204"/>
    </TTGlyph>
    <TTGlyph name="comma.1" xMin="50" yMin="-134" xMax="202" yMax="140">
      <component glyphName="comma" x="0" y="0" flags="0x204"/>
    </TTGlyph>
    <TTGlyph name="comma.2" xMin="50" yMin="-134" xMax="202" yMax="140">
      <component glyphName="comma" x="0" y="0" flags="0x204"/>
    </TTGlyph>
    <TTGlyph name="copyright" xMin="50" yMin="21" xMax="746" yMax="738">
      <contour>
        <pt x="691" y="378" on="1"/>
        <pt x="691" y="502" on="0"/>
        <pt x="520" y="678" on="0"/>
        <pt x="276" y="678" on="0"/>
        <pt x="105" y="502" on="0"/>
        <pt x="105" y="378" on="1"/>
        <pt x="105" y="253" on="0"/>
        <pt x="276" y="77" on="0"/>
        <pt x="520" y="77" on="0"/>
        <pt x="691" y="253" on="0"/>
      </contour>
      <contour>
        <pt x="746" y="380" on="1"/>
        <pt x="746" y="282" on="0"/>
        <pt x="653" y="117" on="0"/>
        <pt x="493" y="21" on="0"/>
        <pt x="303" y="21" on="0"/>
        <pt x="143" y="117" on="0"/>
        <pt x="50" y="282" on="0"/>
        <pt x="50" y="380" on="1"/>
        <pt x="50" y="477" on="0"/>
        <pt x="143" y="642" on="0"/>
        <pt x="303" y="738" on="0"/>
        <pt x="493" y="738" on="0"/>
        <pt x="653" y="642" on="0"/>
        <pt x="746" y="477" on="0"/>
      </contour>
      <contour>
        <pt x="459" y="196" on="1"/>
        <pt x="451" y="195" on="0"/>
        <pt x="443" y="195" on="1"/>
        <pt x="376" y="195" on="0"/>
        <pt x="282" y="289" on="0"/>
        <pt x="282" y="355" on="1"/>
        <pt x="282" y="422" on="0"/>
        <pt x="376" y="517" on="0"/>
        <pt x="443" y="517" on="1"/>
        <pt x="451" y="517" on="0"/>
        <pt x="459" y="516" on="1"/>
        <pt x="459" y="420" on="1"/>
        <pt x="451" y="422" on="0"/>
        <pt x="443" y="422" on="1"/>
        <pt x="415" y="422" on="0"/>
        <pt x="376" y="384" on="0"/>
        <pt x="376" y="355" on="1"/>
        <pt x="376" y="328" on="0"/>
        <pt x="415" y="289" on="0"/>
        <pt x="443" y="289" on="1"/>
        <pt x="451" y="289" on="0"/>
        <pt x="459" y="291" on="1"/>
      </contour>
    </TTGlyph>
    <TTGlyph name="copyright.0" xMin="50" yMin="21" xMax="746" yMax="738">
      <component glyphName="copyright" x="0" y="0" flags="0x204"/>
    </TTGlyph>
    <TTGlyph name="copyright.1" xMin="50" yMin="21" xMax="746" yMax="738">
      <component glyphName="copyright" x="0" y="0" flags="0x204"/>
    </TTGlyph>
    <TTGlyph name="copyright.2" xMin="50" yMin="21" xMax="746" yMax="738">
      <component glyphName="copyright" x="0" y="0" flags="0x204"/>
    </TTGlyph>
    <TTGlyph name="d" xMin="50" yMin="3" xMax="484" yMax="780">
      <contour>
        <pt x="332" y="157" on="1"/>
        <pt x="332" y="364" on="1"/>
        <pt x="320" y="367" on="0"/>
        <pt x="308" y="367" on="1"/>
        <pt x="263" y="367" on="0"/>
        <pt x="201" y="305" on="0"/>
        <pt x="201" y="260" on="1"/>
        <pt x="201" y="216" on="0"/>
        <pt x="263" y="154" on="0"/>
        <pt x="308" y="154" on="1"/>
        <pt x="320" y="154" on="0"/>
      </contour>
      <contour>
        <pt x="332" y="780" on="1"/>
        <pt x="484" y="780" on="1"/>
        <pt x="484" y="4" on="1"/>
        <pt x="332" y="4" on="1"/>
        <pt x="320" y="3" on="0"/>
        <pt x="308" y="3" on="1"/>
        <pt x="201" y="3" on="0"/>
        <pt x="50" y="153" on="0"/>
        <pt x="50" y="367" on="0"/>
        <pt x="201" y="518" on="0"/>
        <pt x="308" y="518" on="1"/>
        <pt x="320" y="518" on="0"/>
        <pt x="332" y="517" on="1"/>
      </contour>
    </TTGlyph>
    <TTGlyph name="d.0" xMin="50" yMin="3" xMax="484" yMax="780">
      <component glyphName="d" x="0" y="0" flags="0x204"/>
    </TTGlyph>
    <TTGlyph name="d.1" xMin="50" yMin="3" xMax="484" yMax="780">
      <component glyphName="d" x="0" y="0" flags="0x204"/>
    </TTGlyph>
    <TTGlyph name="d.2" xMin="50" yMin="3" xMax="484" yMax="780">
      <component glyphName="d" x="0" y="0" flags="0x204"/>
    </TTGlyph>
    <TTGlyph name="dcaron" xMin="50" yMin="3" xMax="668" yMax="789">
      <contour>
        <pt x="332" y="157" on="1"/>
        <pt x="332" y="364" on="1"/>
        <pt x="320" y="367" on="0"/>
        <pt x="308" y="367" on="1"/>
        <pt x="263" y="367" on="0"/>
        <pt x="201" y="305" on="0"/>
        <pt x="201" y="260" on="1"/>
        <pt x="201" y="216" on="0"/>
        <pt x="263" y="154" on="0"/>
        <pt x="308" y="154" on="1"/>
        <pt x="320" y="154" on="0"/>
      </contour>
      <contour>
        <pt x="332" y="780" on="1"/>
        <pt x="484" y="780" on="1"/>
        <pt x="484" y="4" on="1"/>
        <pt x="332" y="4" on="1"/>
        <pt x="320" y="3" on="0"/>
        <pt x="308" y="3" on="1"/>
        <pt x="201" y="3" on="0"/>
        <pt x="50" y="153" on="0"/>
        <pt x="50" y="367" on="0"/>
        <pt x="201" y="518" on="0"/>
        <pt x="308" y="518" on="1"/>
        <pt x="320" y="518" on="0"/>
        <pt x="332" y="517" on="1"/>
      </contour>
      <contour>
        <pt x="516" y="532" on="1"/>
        <pt x="516" y="789" on="1"/>
        <pt x="668" y="789" on="1"/>
        <pt x="623" y="532" on="1"/>
      </contour>
    </TTGlyph>
    <TTGlyph name="dcaron.0" xMin="50" yMin="3" xMax="668" yMax="789">
      <component glyphName="dcaron" x="0" y="0" flags="0x204"/>
    </TTGlyph>
    <TTGlyph name="dcaron.1" xMin="50" yMin="3" xMax="668" yMax="789">
      <component glyphName="dcaron" x="0" y="0" flags="0x204"/>
    </TTGlyph>
    <TTGlyph name="dcaron.2" xMin="50" yMin="3" xMax="668" yMax="789">
      <component glyphName="dcaron" x="0" y="0" flags="0x204"/>
    </TTGlyph>
    <TTGlyph name="dcroat" xMin="50" yMin="3" xMax="535" yMax="780">
      <contour>
        <pt x="332" y="157" on="1"/>
        <pt x="332" y="364" on="1"/>
        <pt x="320" y="367" on="0"/>
        <pt x="308" y="367" on="1"/>
        <pt x="263" y="367" on="0"/>
        <pt x="201" y="305" on="0"/>
        <pt x="201" y="260" on="1"/>
        <pt x="201" y="216" on="0"/>
        <pt x="263" y="154" on="0"/>
        <pt x="308" y="154" on="1"/>
        <pt x="320" y="154" on="0"/>
      </contour>
      <contour>
        <pt x="332" y="780" on="1"/>
        <pt x="484" y="780" on="1"/>
        <pt x="484" y="739" on="1"/>
        <pt x="535" y="739" on="1"/>
        <pt x="535" y="587" on="1"/>
        <pt x="484" y="587" on="1"/>
        <pt x="484" y="4" on="1"/>
        <pt x="332" y="4" on="1"/>
        <pt x="320" y="3" on="0"/>
        <pt x="308" y="3" on="1"/>
        <pt x="201" y="3" on="0"/>
        <pt x="50" y="153" on="0"/>
        <pt x="50" y="367" on="0"/>
        <pt x="201" y="518" on="0"/>
        <pt x="308" y="518" on="1"/>
        <pt x="320" y="518" on="0"/>
        <pt x="332" y="517" on="1"/>
        <pt x="332" y="587" on="1"/>
        <pt x="264" y="587" on="1"/>
        <pt x="264" y="739" on="1"/>
        <pt x="332" y="739" on="1"/>
      </contour>
    </TTGlyph>
    <TTGlyph name="dcroat.0" xMin="50" yMin="3" xMax="535" yMax="780">
      <component glyphName="dcroat" x="0" y="0" flags="0x204"/>
    </TTGlyph>
    <TTGlyph name="dcroat.1" xMin="50" yMin="3" xMax="535" yMax="780">
      <component glyphName="dcroat" x="0" y="0" flags="0x204"/>
    </TTGlyph>
    <TTGlyph name="dcroat.2" xMin="50" yMin="3" xMax="535" yMax="780">
      <component glyphName="dcroat" x="0" y="0" flags="0x204"/>
    </TTGlyph>
    <TTGlyph name="degree" xMin="75" yMin="532" xMax="335" yMax="789">
      <component glyphName="o" x="50" y="530" scale="0.5" flags="0x4"/>
    </TTGlyph>
    <TTGlyph name="degree.0" xMin="75" yMin="532" xMax="335" yMax="789">
      <component glyphName="degree" x="0" y="0" flags="0x204"/>
    </TTGlyph>
    <TTGlyph name="degree.1" xMin="75" yMin="532" xMax="335" yMax="789">
      <component glyphName="degree" x="0" y="0" flags="0x204"/>
    </TTGlyph>
    <TTGlyph name="degree.2" xMin="75" yMin="532" xMax="335" yMax="789">
      <component glyphName="degree" x="0" y="0" flags="0x204"/>
    </TTGlyph>
    <TTGlyph name="dieresis" xMin="50" yMin="-2" xMax="402" yMax="140">
      <contour>
        <pt x="50" y="-2" on="1"/>
        <pt x="50" y="140" on="1"/>
        <pt x="202" y="140" on="1"/>
        <pt x="202" y="-2" on="1"/>
      </contour>
      <contour>
        <pt x="250" y="-2" on="1"/>
        <pt x="250" y="140" on="1"/>
        <pt x="402" y="140" on="1"/>
        <pt x="402" y="-2" on="1"/>
      </contour>
    </TTGlyph>
    <TTGlyph name="dieresis.0" xMin="50" yMin="-2" xMax="402" yMax="140">
      <component glyphName="dieresis" x="0" y="0" flags="0x204"/>
    </TTGlyph>
    <TTGlyph name="dieresis.1" xMin="50" yMin="-2" xMax="402" yMax="140">
      <component glyphName="dieresis" x="0" y="0" flags="0x204"/>
    </TTGlyph>
    <TTGlyph name="dieresis.2" xMin="50" yMin="-2" xMax="402" yMax="140">
      <component glyphName="dieresis" x="0" y="0" flags="0x204"/>
    </TTGlyph>
    <TTGlyph name="divide" xMin="50" yMin="151" xMax="594" yMax="693">
      <contour>
        <pt x="250" y="151" on="1"/>
        <pt x="250" y="293" on="1"/>
        <pt x="402" y="293" on="1"/>
        <pt x="402" y="151" on="1"/>
      </contour>
      <contour>
        <pt x="250" y="551" on="1"/>
        <pt x="250" y="693" on="1"/>
        <pt x="402" y="693" on="1"/>
        <pt x="402" y="551" on="1"/>
      </contour>
      <contour>
        <pt x="594" y="496" on="1"/>
        <pt x="594" y="344" on="1"/>
        <pt x="50" y="344" on="1"/>
        <pt x="50" y="496" on="1"/>
      </contour>
    </TTGlyph>
    <TTGlyph name="divide.0" xMin="50" yMin="151" xMax="594" yMax="693">
      <component glyphName="divide" x="0" y="0" flags="0x204"/>
    </TTGlyph>
    <TTGlyph name="divide.1" xMin="50" yMin="151" xMax="594" yMax="693">
      <component glyphName="divide" x="0" y="0" flags="0x204"/>
    </TTGlyph>
    <TTGlyph name="divide.2" xMin="50" yMin="151" xMax="594" yMax="693">
      <component glyphName="divide" x="0" y="0" flags="0x204"/>
    </TTGlyph>
    <TTGlyph name="dollar" xMin="50" yMin="-182" xMax="469" yMax="1030">
      <contour>
        <pt x="243" y="586" on="1"/>
        <pt x="234" y="577" on="0"/>
        <pt x="227" y="565" on="1"/>
        <pt x="202" y="524" on="0"/>
        <pt x="222" y="475" on="1"/>
        <pt x="231" y="456" on="0"/>
        <pt x="243" y="443" on="1"/>
      </contour>
      <contour>
        <pt x="50" y="57" on="1"/>
        <pt x="125" y="182" on="1"/>
        <pt x="133" y="176" on="0"/>
        <pt x="147" y="167" on="1"/>
        <pt x="185" y="145" on="0"/>
        <pt x="228" y="155" on="1"/>
        <pt x="236" y="157" on="0"/>
        <pt x="243" y="160" on="1"/>
        <pt x="243" y="310" on="1"/>
        <pt x="233" y="313" on="0"/>
        <pt x="222" y="315" on="1"/>
        <pt x="173" y="342" on="0"/>
        <pt x="101" y="408" on="0"/>
        <pt x="59" y="490" on="0"/>
        <pt x="65" y="588" on="0"/>
        <pt x="96" y="639" on="1"/>
        <pt x="147" y="723" on="0"/>
        <pt x="243" y="758" on="1"/>
        <pt x="243" y="1030" on="1"/>
        <pt x="322" y="1030" on="1"/>
        <pt x="322" y="774" on="1"/>
        <pt x="393" y="777" on="0"/>
        <pt x="448" y="727" on="1"/>
        <pt x="451" y="724" on="0"/>
        <pt x="466" y="715" on="0"/>
        <pt x="469" y="712" on="1"/>
        <pt x="394" y="587" on="1"/>
        <pt x="382" y="597" on="0"/>
        <pt x="372" y="602" on="1"/>
        <pt x="348" y="615" on="0"/>
        <pt x="322" y="616" on="1"/>
        <pt x="322" y="401" on="1"/>
        <pt x="351" y="383" on="0"/>
        <pt x="373" y="366" on="1"/>
        <pt x="406" y="339" on="0"/>
        <pt x="455" y="269" on="0"/>
        <pt x="452" y="181" on="0"/>
        <pt x="422" y="130" on="1"/>
        <pt x="387" y="71" on="0"/>
        <pt x="322" y="32" on="1"/>
        <pt x="322" y="-182" on="1"/>
        <pt x="243" y="-182" on="1"/>
        <pt x="243" y="0" on="1"/>
        <pt x="217" y="-6" on="0"/>
        <pt x="192" y="-6" on="1"/>
        <pt x="125" y="-7" on="0"/>
        <pt x="71" y="42" on="1"/>
        <pt x="68" y="45" on="0"/>
        <pt x="53" y="54" on="0"/>
      </contour>
    </TTGlyph>
    <TTGlyph name="dollar.0" xMin="50" yMin="-182" xMax="469" yMax="1030">
      <component glyphName="dollar" x="0" y="0" flags="0x204"/>
    </TTGlyph>
    <TTGlyph name="dollar.1" xMin="50" yMin="-182" xMax="469" yMax="1030">
      <component glyphName="dollar" x="0" y="0" flags="0x204"/>
    </TTGlyph>
    <TTGlyph name="dollar.2" xMin="50" yMin="-182" xMax="469" yMax="1030">
      <component glyphName="dollar" x="0" y="0" flags="0x204"/>
    </TTGlyph>
    <TTGlyph name="dotaccent" xMin="50" yMin="460" xMax="202" yMax="602">
      <component glyphName="uni0307" x="126" y="-38" flags="0x4"/>
    </TTGlyph>
    <TTGlyph name="dotaccent.0" xMin="50" yMin="460" xMax="202" yMax="602">
      <component glyphName="dotaccent" x="0" y="0" flags="0x204"/>
    </TTGlyph>
    <TTGlyph name="dotaccent.1" xMin="50" yMin="460" xMax="202" yMax="602">
      <component glyphName="dotaccent" x="0" y="0" flags="0x204"/>
    </TTGlyph>
    <TTGlyph name="dotaccent.2" xMin="50" yMin="460" xMax="202" yMax="602">
      <component glyphName="dotaccent" x="0" y="0" flags="0x204"/>
    </TTGlyph>
    <TTGlyph name="dotbelowcomb" xMin="50" yMin="-2" xMax="202" yMax="140">
      <contour>
        <pt x="50" y="-2" on="1"/>
        <pt x="50" y="140" on="1"/>
        <pt x="202" y="140" on="1"/>
        <pt x="202" y="-2" on="1"/>
      </contour>
    </TTGlyph>
    <TTGlyph name="dotbelowcomb.0" xMin="50" yMin="-2" xMax="202" yMax="140">
      <component glyphName="dotbelowcomb" x="0" y="0" flags="0x204"/>
    </TTGlyph>
    <TTGlyph name="dotbelowcomb.1" xMin="50" yMin="-2" xMax="202" yMax="140">
      <component glyphName="dotbelowcomb" x="0" y="0" flags="0x204"/>
    </TTGlyph>
    <TTGlyph name="dotbelowcomb.2" xMin="50" yMin="-2" xMax="202" yMax="140">
      <component glyphName="dotbelowcomb" x="0" y="0" flags="0x204"/>
    </TTGlyph>
    <TTGlyph name="dotlessi" xMin="50" yMin="-2" xMax="202" yMax="512">
      <contour>
        <pt x="50" y="512" on="1"/>
        <pt x="202" y="512" on="1"/>
        <pt x="202" y="-2" on="1"/>
        <pt x="50" y="-2" on="1"/>
      </contour>
    </TTGlyph>
    <TTGlyph name="dotlessi.0" xMin="50" yMin="-2" xMax="202" yMax="512">
      <component glyphName="dotlessi" x="0" y="0" flags="0x204"/>
    </TTGlyph>
    <TTGlyph name="dotlessi.1" xMin="50" yMin="-2" xMax="202" yMax="512">
      <component glyphName="dotlessi" x="0" y="0" flags="0x204"/>
    </TTGlyph>
    <TTGlyph name="dotlessi.2" xMin="50" yMin="-2" xMax="202" yMax="512">
      <component glyphName="dotlessi" x="0" y="0" flags="0x204"/>
    </TTGlyph>
    <TTGlyph name="e" xMin="50" yMin="3" xMax="567" yMax="518">
      <contour>
        <pt x="211" y="297" on="1"/>
        <pt x="407" y="294" on="1"/>
        <pt x="403" y="298" on="0"/>
        <pt x="371" y="336" on="0"/>
        <pt x="353" y="355" on="0"/>
        <pt x="322" y="375" on="0"/>
        <pt x="308" y="375" on="1"/>
        <pt x="294" y="375" on="0"/>
        <pt x="264" y="356" on="0"/>
        <pt x="245" y="336" on="0"/>
        <pt x="215" y="302" on="0"/>
      </contour>
      <contour>
        <pt x="566" y="260" on="1"/>
        <pt x="566" y="250" on="0"/>
        <pt x="567" y="215" on="0"/>
        <pt x="567" y="208" on="1"/>
        <pt x="216" y="205" on="1"/>
        <pt x="230" y="182" on="0"/>
        <pt x="279" y="154" on="0"/>
        <pt x="308" y="154" on="1"/>
        <pt x="342" y="154" on="0"/>
        <pt x="549" y="159" on="0"/>
        <pt x="557" y="162" on="1"/>
        <pt x="557" y="6" on="1"/>
        <pt x="538" y="3" on="0"/>
        <pt x="308" y="3" on="1"/>
        <pt x="201" y="3" on="0"/>
        <pt x="50" y="153" on="0"/>
        <pt x="50" y="367" on="0"/>
        <pt x="201" y="518" on="0"/>
        <pt x="415" y="518" on="0"/>
        <pt x="566" y="367" on="0"/>
      </contour>
    </TTGlyph>
    <TTGlyph name="e.0" xMin="50" yMin="3" xMax="567" yMax="518">
      <component glyphName="e" x="0" y="0" flags="0x204"/>
    </TTGlyph>
    <TTGlyph name="e.1" xMin="50" yMin="3" xMax="567" yMax="518">
      <component glyphName="e" x="0" y="0" flags="0x204"/>
    </TTGlyph>
    <TTGlyph name="e.2" xMin="50" yMin="3" xMax="567" yMax="518">
      <component glyphName="e" x="0" y="0" flags="0x204"/>
    </TTGlyph>
    <TTGlyph name="eacute" xMin="50" yMin="3" xMax="567" yMax="867">
      <component glyphName="acutecomb" x="345" y="62" flags="0x4"/>
      <component glyphName="e" x="0" y="0" flags="0x4"/>
    </TTGlyph>
    <TTGlyph name="eacute.0" xMin="50" yMin="3" xMax="567" yMax="867">
      <component glyphName="eacute" x="0" y="0" flags="0x204"/>
    </TTGlyph>
    <TTGlyph name="eacute.1" xMin="50" yMin="3" xMax="567" yMax="867">
      <component glyphName="eacute" x="0" y="0" flags="0x204"/>
    </TTGlyph>
    <TTGlyph name="eacute.2" xMin="50" yMin="3" xMax="567" yMax="867">
      <component glyphName="eacute" x="0" y="0" flags="0x204"/>
    </TTGlyph>
    <TTGlyph name="ebreve" xMin="50" yMin="3" xMax="567" yMax="702">
      <component glyphName="uni0306" x="308" y="-230" flags="0x4"/>
      <component glyphName="e" x="0" y="0" flags="0x204"/>
    </TTGlyph>
    <TTGlyph name="ebreve.0" xMin="50" yMin="3" xMax="567" yMax="702">
      <component glyphName="ebreve" x="0" y="0" flags="0x204"/>
    </TTGlyph>
    <TTGlyph name="ebreve.1" xMin="50" yMin="3" xMax="567" yMax="702">
      <component glyphName="ebreve" x="0" y="0" flags="0x204"/>
    </TTGlyph>
    <TTGlyph name="ebreve.2" xMin="50" yMin="3" xMax="567" yMax="702">
      <component glyphName="ebreve" x="0" y="0" flags="0x204"/>
    </TTGlyph>
    <TTGlyph name="ecaron" xMin="50" yMin="3" xMax="567" yMax="746">
      <component glyphName="uni030C" x="308" y="-188" flags="0x4"/>
      <component glyphName="e" x="0" y="0" flags="0x204"/>
    </TTGlyph>
    <TTGlyph name="ecaron.0" xMin="50" yMin="3" xMax="567" yMax="746">
      <component glyphName="ecaron" x="0" y="0" flags="0x204"/>
    </TTGlyph>
    <TTGlyph name="ecaron.1" xMin="50" yMin="3" xMax="567" yMax="746">
      <component glyphName="ecaron" x="0" y="0" flags="0x204"/>
    </TTGlyph>
    <TTGlyph name="ecaron.2" xMin="50" yMin="3" xMax="567" yMax="746">
      <component glyphName="ecaron" x="0" y="0" flags="0x204"/>
    </TTGlyph>
    <TTGlyph name="ecircumflex" xMin="50" yMin="3" xMax="567" yMax="746">
      <component glyphName="uni0302" x="308" y="-188" flags="0x4"/>
      <component glyphName="e" x="0" y="0" flags="0x204"/>
    </TTGlyph>
    <TTGlyph name="ecircumflex.0" xMin="50" yMin="3" xMax="567" yMax="746">
      <component glyphName="ecircumflex" x="0" y="0" flags="0x204"/>
    </TTGlyph>
    <TTGlyph name="ecircumflex.1" xMin="50" yMin="3" xMax="567" yMax="746">
      <component glyphName="ecircumflex" x="0" y="0" flags="0x204"/>
    </TTGlyph>
    <TTGlyph name="ecircumflex.2" xMin="50" yMin="3" xMax="567" yMax="746">
      <component glyphName="ecircumflex" x="0" y="0" flags="0x204"/>
    </TTGlyph>
    <TTGlyph name="edieresis" xMin="50" yMin="3" xMax="567" yMax="720">
      <component glyphName="uni0308" x="308" y="80" flags="0x4"/>
      <component glyphName="e" x="0" y="0" flags="0x204"/>
    </TTGlyph>
    <TTGlyph name="edieresis.0" xMin="50" yMin="3" xMax="567" yMax="720">
      <component glyphName="edieresis" x="0" y="0" flags="0x204"/>
    </TTGlyph>
    <TTGlyph name="edieresis.1" xMin="50" yMin="3" xMax="567" yMax="720">
      <component glyphName="edieresis" x="0" y="0" flags="0x204"/>
    </TTGlyph>
    <TTGlyph name="edieresis.2" xMin="50" yMin="3" xMax="567" yMax="720">
      <component glyphName="edieresis" x="0" y="0" flags="0x204"/>
    </TTGlyph>
    <TTGlyph name="edotaccent" xMin="50" yMin="3" xMax="567" yMax="720">
      <component glyphName="uni0307" x="308" y="80" flags="0x4"/>
      <component glyphName="e" x="0" y="0" flags="0x204"/>
    </TTGlyph>
    <TTGlyph name="edotaccent.0" xMin="50" yMin="3" xMax="567" yMax="720">
      <component glyphName="edotaccent" x="0" y="0" flags="0x204"/>
    </TTGlyph>
    <TTGlyph name="edotaccent.1" xMin="50" yMin="3" xMax="567" yMax="720">
      <component glyphName="edotaccent" x="0" y="0" flags="0x204"/>
    </TTGlyph>
    <TTGlyph name="edotaccent.2" xMin="50" yMin="3" xMax="567" yMax="720">
      <component glyphName="edotaccent" x="0" y="0" flags="0x204"/>
    </TTGlyph>
    <TTGlyph name="egrave" xMin="50" yMin="3" xMax="567" yMax="867">
      <component glyphName="gravecomb" x="271" y="62" flags="0x4"/>
      <component glyphName="e" x="0" y="0" flags="0x204"/>
    </TTGlyph>
    <TTGlyph name="egrave.0" xMin="50" yMin="3" xMax="567" yMax="867">
      <component glyphName="egrave" x="0" y="0" flags="0x204"/>
    </TTGlyph>
    <TTGlyph name="egrave.1" xMin="50" yMin="3" xMax="567" yMax="867">
      <component glyphName="egrave" x="0" y="0" flags="0x204"/>
    </TTGlyph>
    <TTGlyph name="egrave.2" xMin="50" yMin="3" xMax="567" yMax="867">
      <component glyphName="egrave" x="0" y="0" flags="0x204"/>
    </TTGlyph>
    <TTGlyph name="eight" xMin="50" yMin="3" xMax="508" yMax="725">
      <contour>
        <pt x="278" y="3" on="1"/>
        <pt x="277" y="3" on="1"/>
        <pt x="276" y="3" on="0"/>
        <pt x="274" y="3" on="1"/>
        <pt x="267" y="3" on="0"/>
        <pt x="262" y="4" on="1"/>
        <pt x="172" y="10" on="0"/>
        <pt x="50" y="140" on="0"/>
        <pt x="50" y="229" on="1"/>
        <pt x="50" y="304" on="0"/>
        <pt x="94" y="364" on="1"/>
        <pt x="50" y="423" on="0"/>
        <pt x="50" y="498" on="1"/>
        <pt x="50" y="588" on="0"/>
        <pt x="172" y="718" on="0"/>
        <pt x="262" y="724" on="1"/>
        <pt x="267" y="725" on="0"/>
        <pt x="274" y="725" on="1"/>
        <pt x="276" y="725" on="0"/>
        <pt x="277" y="725" on="1"/>
        <pt x="278" y="725" on="1"/>
        <pt x="279" y="725" on="0"/>
        <pt x="281" y="725" on="1"/>
        <pt x="375" y="725" on="0"/>
        <pt x="508" y="592" on="0"/>
        <pt x="508" y="498" on="1"/>
        <pt x="508" y="423" on="0"/>
        <pt x="464" y="364" on="1"/>
        <pt x="508" y="304" on="0"/>
        <pt x="508" y="229" on="1"/>
        <pt x="508" y="136" on="0"/>
        <pt x="375" y="3" on="0"/>
        <pt x="281" y="3" on="1"/>
        <pt x="280" y="3" on="0"/>
        <pt x="279" y="3" on="1"/>
      </contour>
      <contour>
        <pt x="279" y="592" on="1"/>
        <pt x="268" y="592" on="0"/>
        <pt x="258" y="589" on="1"/>
        <pt x="258" y="590" on="1"/>
        <pt x="225" y="583" on="0"/>
        <pt x="183" y="532" on="0"/>
        <pt x="183" y="498" on="1"/>
        <pt x="183" y="464" on="0"/>
        <pt x="225" y="413" on="0"/>
        <pt x="258" y="406" on="1"/>
        <pt x="258" y="407" on="1"/>
        <pt x="268" y="405" on="0"/>
        <pt x="279" y="404" on="1"/>
        <pt x="290" y="405" on="0"/>
        <pt x="300" y="407" on="1"/>
        <pt x="300" y="406" on="1"/>
        <pt x="333" y="413" on="0"/>
        <pt x="375" y="464" on="0"/>
        <pt x="375" y="498" on="1"/>
        <pt x="375" y="532" on="0"/>
        <pt x="333" y="583" on="0"/>
        <pt x="300" y="590" on="1"/>
        <pt x="300" y="589" on="1"/>
        <pt x="290" y="592" on="0"/>
      </contour>
      <contour>
        <pt x="279" y="324" on="1"/>
        <pt x="268" y="323" on="0"/>
        <pt x="258" y="321" on="1"/>
        <pt x="258" y="322" on="1"/>
        <pt x="225" y="315" on="0"/>
        <pt x="183" y="264" on="0"/>
        <pt x="183" y="229" on="1"/>
        <pt x="183" y="196" on="0"/>
        <pt x="225" y="145" on="0"/>
        <pt x="258" y="138" on="1"/>
        <pt x="258" y="139" on="1"/>
        <pt x="268" y="136" on="0"/>
        <pt x="279" y="136" on="1"/>
        <pt x="290" y="136" on="0"/>
        <pt x="300" y="139" on="1"/>
        <pt x="300" y="138" on="1"/>
        <pt x="333" y="145" on="0"/>
        <pt x="375" y="196" on="0"/>
        <pt x="375" y="229" on="1"/>
        <pt x="375" y="264" on="0"/>
        <pt x="333" y="315" on="0"/>
        <pt x="300" y="322" on="1"/>
        <pt x="300" y="321" on="1"/>
        <pt x="290" y="323" on="0"/>
      </contour>
    </TTGlyph>
    <TTGlyph name="eight.0" xMin="50" yMin="3" xMax="508" yMax="725">
      <component glyphName="eight" x="0" y="0" flags="0x204"/>
    </TTGlyph>
    <TTGlyph name="eight.1" xMin="50" yMin="3" xMax="508" yMax="725">
      <component glyphName="eight" x="0" y="0" flags="0x204"/>
    </TTGlyph>
    <TTGlyph name="eight.2" xMin="50" yMin="3" xMax="508" yMax="725">
      <component glyphName="eight" x="0" y="0" flags="0x204"/>
    </TTGlyph>
    <TTGlyph name="emacron" xMin="50" yMin="3" xMax="567" yMax="654">
      <component glyphName="uni0304" x="308" y="-204" flags="0x4"/>
      <component glyphName="e" x="0" y="0" flags="0x204"/>
    </TTGlyph>
    <TTGlyph name="emacron.0" xMin="50" yMin="3" xMax="567" yMax="654">
      <component glyphName="emacron" x="0" y="0" flags="0x204"/>
    </TTGlyph>
    <TTGlyph name="emacron.1" xMin="50" yMin="3" xMax="567" yMax="654">
      <component glyphName="emacron" x="0" y="0" flags="0x204"/>
    </TTGlyph>
    <TTGlyph name="emacron.2" xMin="50" yMin="3" xMax="567" yMax="654">
      <component glyphName="emacron" x="0" y="0" flags="0x204"/>
    </TTGlyph>
    <TTGlyph name="emdash" xMin="50" yMin="344" xMax="950" yMax="496">
      <contour>
        <pt x="50" y="344" on="1"/>
        <pt x="50" y="496" on="1"/>
        <pt x="950" y="496" on="1"/>
        <pt x="950" y="344" on="1"/>
      </contour>
    </TTGlyph>
    <TTGlyph name="emdash.0" xMin="50" yMin="344" xMax="950" yMax="496">
      <component glyphName="emdash" x="0" y="0" flags="0x204"/>
    </TTGlyph>
    <TTGlyph name="emdash.1" xMin="50" yMin="344" xMax="950" yMax="496">
      <component glyphName="emdash" x="0" y="0" flags="0x204"/>
    </TTGlyph>
    <TTGlyph name="emdash.2" xMin="50" yMin="344" xMax="950" yMax="496">
      <component glyphName="emdash" x="0" y="0" flags="0x204"/>
    </TTGlyph>
    <TTGlyph name="endash" xMin="50" yMin="344" xMax="450" yMax="496">
      <contour>
        <pt x="50" y="344" on="1"/>
        <pt x="50" y="496" on="1"/>
        <pt x="450" y="496" on="1"/>
        <pt x="450" y="344" on="1"/>
      </contour>
    </TTGlyph>
    <TTGlyph name="endash.0" xMin="50" yMin="344" xMax="450" yMax="496">
      <component glyphName="endash" x="0" y="0" flags="0x204"/>
    </TTGlyph>
    <TTGlyph name="endash.1" xMin="50" yMin="344" xMax="450" yMax="496">
      <component glyphName="endash" x="0" y="0" flags="0x204"/>
    </TTGlyph>
    <TTGlyph name="endash.2" xMin="50" yMin="344" xMax="450" yMax="496">
      <component glyphName="endash" x="0" y="0" flags="0x204"/>
    </TTGlyph>
    <TTGlyph name="eogonek" xMin="50" yMin="-249" xMax="567" yMax="518">
      <component glyphName="uni0328" x="472" y="-181" flags="0x4"/>
      <component glyphName="e" x="0" y="0" flags="0x204"/>
    </TTGlyph>
    <TTGlyph name="eogonek.0" xMin="50" yMin="-249" xMax="567" yMax="518">
      <component glyphName="eogonek" x="0" y="0" flags="0x204"/>
    </TTGlyph>
    <TTGlyph name="eogonek.1" xMin="50" yMin="-249" xMax="567" yMax="518">
      <component glyphName="eogonek" x="0" y="0" flags="0x204"/>
    </TTGlyph>
    <TTGlyph name="eogonek.2" xMin="50" yMin="-249" xMax="567" yMax="518">
      <component glyphName="eogonek" x="0" y="0" flags="0x204"/>
    </TTGlyph>
    <TTGlyph name="equal" xMin="50" yMin="144" xMax="594" yMax="546">
      <contour>
        <pt x="594" y="546" on="1"/>
        <pt x="594" y="394" on="1"/>
        <pt x="50" y="394" on="1"/>
        <pt x="50" y="546" on="1"/>
      </contour>
      <contour>
        <pt x="594" y="296" on="1"/>
        <pt x="594" y="144" on="1"/>
        <pt x="50" y="144" on="1"/>
        <pt x="50" y="296" on="1"/>
      </contour>
    </TTGlyph>
    <TTGlyph name="equal.0" xMin="50" yMin="144" xMax="594" yMax="546">
      <component glyphName="equal" x="0" y="0" flags="0x204"/>
    </TTGlyph>
    <TTGlyph name="equal.1" xMin="50" yMin="144" xMax="594" yMax="546">
      <component glyphName="equal" x="0" y="0" flags="0x204"/>
    </TTGlyph>
    <TTGlyph name="equal.2" xMin="50" yMin="144" xMax="594" yMax="546">
      <component glyphName="equal" x="0" y="0" flags="0x204"/>
    </TTGlyph>
    <TTGlyph name="eth" xMin="50" yMin="3" xMax="567" yMax="805">
      <contour>
        <pt x="135" y="780" on="1"/>
        <pt x="287" y="780" on="1"/>
        <pt x="295" y="773" on="0"/>
        <pt x="302" y="767" on="1"/>
        <pt x="340" y="805" on="1"/>
        <pt x="427" y="729" on="1"/>
        <pt x="387" y="689" on="1"/>
        <pt x="434" y="641" on="0"/>
        <pt x="502" y="548" on="0"/>
        <pt x="556" y="418" on="0"/>
        <pt x="567" y="281" on="0"/>
        <pt x="531" y="102" on="0"/>
        <pt x="484" y="4" on="1"/>
        <pt x="332" y="4" on="1"/>
        <pt x="320" y="3" on="0"/>
        <pt x="308" y="3" on="1"/>
        <pt x="201" y="3" on="0"/>
        <pt x="50" y="153" on="0"/>
        <pt x="50" y="367" on="0"/>
        <pt x="201" y="518" on="0"/>
        <pt x="308" y="518" on="1"/>
        <pt x="320" y="518" on="0"/>
        <pt x="332" y="517" on="1"/>
        <pt x="282" y="584" on="1"/>
        <pt x="245" y="547" on="1"/>
        <pt x="158" y="623" on="1"/>
        <pt x="212" y="677" on="1"/>
      </contour>
      <contour>
        <pt x="310" y="367" on="1"/>
        <pt x="297" y="367" on="0"/>
        <pt x="286" y="364" on="1"/>
        <pt x="286" y="365" on="1"/>
        <pt x="249" y="357" on="0"/>
        <pt x="201" y="299" on="0"/>
        <pt x="201" y="260" on="1"/>
        <pt x="201" y="222" on="0"/>
        <pt x="249" y="164" on="0"/>
        <pt x="286" y="156" on="1"/>
        <pt x="286" y="157" on="1"/>
        <pt x="297" y="154" on="0"/>
        <pt x="310" y="154" on="1"/>
        <pt x="322" y="154" on="0"/>
        <pt x="334" y="157" on="1"/>
        <pt x="334" y="156" on="1"/>
        <pt x="371" y="164" on="0"/>
        <pt x="419" y="222" on="0"/>
        <pt x="419" y="260" on="1"/>
        <pt x="419" y="299" on="0"/>
        <pt x="371" y="357" on="0"/>
        <pt x="334" y="365" on="1"/>
        <pt x="334" y="364" on="1"/>
        <pt x="322" y="367" on="0"/>
      </contour>
    </TTGlyph>
    <TTGlyph name="eth.0" xMin="50" yMin="3" xMax="567" yMax="805">
      <component glyphName="eth" x="0" y="0" flags="0x204"/>
    </TTGlyph>
    <TTGlyph name="eth.1" xMin="50" yMin="3" xMax="567" yMax="805">
      <component glyphName="eth" x="0" y="0" flags="0x204"/>
    </TTGlyph>
    <TTGlyph name="eth.2" xMin="50" yMin="3" xMax="567" yMax="805">
      <component glyphName="eth" x="0" y="0" flags="0x204"/>
    </TTGlyph>
    <TTGlyph name="exclam" xMin="50" yMin="-2" xMax="202" yMax="772">
      <contour>
        <pt x="50" y="-2" on="1"/>
        <pt x="50" y="140" on="1"/>
        <pt x="202" y="140" on="1"/>
        <pt x="202" y="-2" on="1"/>
      </contour>
      <contour>
        <pt x="50" y="258" on="1"/>
        <pt x="50" y="772" on="1"/>
        <pt x="202" y="772" on="1"/>
        <pt x="202" y="258" on="1"/>
      </contour>
    </TTGlyph>
    <TTGlyph name="exclam.0" xMin="50" yMin="-2" xMax="202" yMax="772">
      <component glyphName="exclam" x="0" y="0" flags="0x204"/>
    </TTGlyph>
    <TTGlyph name="exclam.1" xMin="50" yMin="-2" xMax="202" yMax="772">
      <component glyphName="exclam" x="0" y="0" flags="0x204"/>
    </TTGlyph>
    <TTGlyph name="exclam.2" xMin="50" yMin="-2" xMax="202" yMax="772">
      <component glyphName="exclam" x="0" y="0" flags="0x204"/>
    </TTGlyph>
    <TTGlyph name="exclamdown" xMin="50" yMin="-2" xMax="202" yMax="772">
      <contour>
        <pt x="202" y="772" on="1"/>
        <pt x="202" y="630" on="1"/>
        <pt x="50" y="630" on="1"/>
        <pt x="50" y="772" on="1"/>
      </contour>
      <contour>
        <pt x="202" y="512" on="1"/>
        <pt x="202" y="-2" on="1"/>
        <pt x="50" y="-2" on="1"/>
        <pt x="50" y="512" on="1"/>
      </contour>
    </TTGlyph>
    <TTGlyph name="exclamdown.0" xMin="50" yMin="-2" xMax="202" yMax="772">
      <component glyphName="exclamdown" x="0" y="0" flags="0x204"/>
    </TTGlyph>
    <TTGlyph name="exclamdown.1" xMin="50" yMin="-2" xMax="202" yMax="772">
      <component glyphName="exclamdown" x="0" y="0" flags="0x204"/>
    </TTGlyph>
    <TTGlyph name="exclamdown.2" xMin="50" yMin="-2" xMax="202" yMax="772">
      <component glyphName="exclamdown" x="0" y="0" flags="0x204"/>
    </TTGlyph>
    <TTGlyph name="f" xMin="50" yMin="-3" xMax="464" yMax="761">
      <contour>
        <pt x="464" y="752" on="1"/>
        <pt x="464" y="584" on="1"/>
        <pt x="433" y="610" on="0"/>
        <pt x="393" y="610" on="1"/>
        <pt x="344" y="610" on="0"/>
        <pt x="312" y="573" on="1"/>
        <pt x="312" y="511" on="1"/>
        <pt x="409" y="511" on="1"/>
        <pt x="409" y="359" on="1"/>
        <pt x="312" y="359" on="1"/>
        <pt x="312" y="-3" on="1"/>
        <pt x="145" y="-3" on="1"/>
        <pt x="147" y="359" on="1"/>
        <pt x="50" y="359" on="1"/>
        <pt x="50" y="511" on="1"/>
        <pt x="148" y="511" on="1"/>
        <pt x="148" y="574" on="1"/>
        <pt x="172" y="657" on="0"/>
        <pt x="306" y="761" on="0"/>
        <pt x="393" y="761" on="1"/>
        <pt x="430" y="761" on="0"/>
      </contour>
    </TTGlyph>
    <TTGlyph name="f.0" xMin="50" yMin="-3" xMax="464" yMax="761">
      <component glyphName="f" x="0" y="0" flags="0x204"/>
    </TTGlyph>
    <TTGlyph name="f.1" xMin="50" yMin="-3" xMax="464" yMax="761">
      <component glyphName="f" x="0" y="0" flags="0x204"/>
    </TTGlyph>
    <TTGlyph name="f.2" xMin="50" yMin="-3" xMax="464" yMax="761">
      <component glyphName="f" x="0" y="0" flags="0x204"/>
    </TTGlyph>
    <TTGlyph name="five" xMin="50" yMin="3" xMax="368" yMax="774">
      <contour>
        <pt x="50" y="4" on="1"/>
        <pt x="50" y="157" on="1"/>
        <pt x="62" y="154" on="0"/>
        <pt x="76" y="154" on="1"/>
        <pt x="121" y="154" on="0"/>
        <pt x="183" y="216" on="0"/>
        <pt x="183" y="260" on="1"/>
        <pt x="183" y="305" on="0"/>
        <pt x="121" y="367" on="0"/>
        <pt x="76" y="367" on="1"/>
        <pt x="62" y="367" on="0"/>
        <pt x="50" y="364" on="1"/>
        <pt x="50" y="397" on="1"/>
        <pt x="50" y="517" on="1"/>
        <pt x="50" y="773" on="1"/>
        <pt x="51" y="773" on="1"/>
        <pt x="51" y="774" on="1"/>
        <pt x="368" y="774" on="1"/>
        <pt x="367" y="622" on="1"/>
        <pt x="202" y="622" on="1"/>
        <pt x="202" y="485" on="1"/>
        <pt x="262" y="451" on="0"/>
        <pt x="334" y="332" on="0"/>
        <pt x="334" y="260" on="1"/>
        <pt x="334" y="153" on="0"/>
        <pt x="183" y="3" on="0"/>
        <pt x="76" y="3" on="1"/>
        <pt x="59" y="3" on="0"/>
      </contour>
    </TTGlyph>
    <TTGlyph name="five.0" xMin="50" yMin="3" xMax="368" yMax="774">
      <component glyphName="five" x="0" y="0" flags="0x204"/>
    </TTGlyph>
    <TTGlyph name="five.1" xMin="50" yMin="3" xMax="368" yMax="774">
      <component glyphName="five" x="0" y="0" flags="0x204"/>
    </TTGlyph>
    <TTGlyph name="five.2" xMin="50" yMin="3" xMax="368" yMax="774">
      <component glyphName="five" x="0" y="0" flags="0x204"/>
    </TTGlyph>
    <TTGlyph name="four" xMin="50" yMin="0" xMax="515" yMax="774">
      <contour>
        <pt x="378" y="341" on="1"/>
        <pt x="378" y="521" on="1"/>
        <pt x="280" y="344" on="1"/>
      </contour>
      <contour>
        <pt x="386" y="0" on="1"/>
        <pt x="386" y="192" on="1"/>
        <pt x="385" y="191" on="1"/>
        <pt x="50" y="191" on="1"/>
        <pt x="372" y="774" on="1"/>
        <pt x="515" y="774" on="1"/>
        <pt x="515" y="0" on="1"/>
      </contour>
    </TTGlyph>
    <TTGlyph name="four.0" xMin="50" yMin="0" xMax="515" yMax="774">
      <component glyphName="four" x="0" y="0" flags="0x204"/>
    </TTGlyph>
    <TTGlyph name="four.1" xMin="50" yMin="0" xMax="515" yMax="774">
      <component glyphName="four" x="0" y="0" flags="0x204"/>
    </TTGlyph>
    <TTGlyph name="four.2" xMin="50" yMin="0" xMax="515" yMax="774">
      <component glyphName="four" x="0" y="0" flags="0x204"/>
    </TTGlyph>
    <TTGlyph name="g" xMin="50" yMin="-205" xMax="570" yMax="518">
      <contour>
        <pt x="309" y="3" on="1"/>
        <pt x="308" y="3" on="1"/>
        <pt x="306" y="3" on="0"/>
        <pt x="304" y="3" on="1"/>
        <pt x="300" y="3" on="1"/>
        <pt x="263" y="3" on="0"/>
        <pt x="259" y="4" on="1"/>
        <pt x="161" y="11" on="0"/>
        <pt x="50" y="154" on="0"/>
        <pt x="50" y="260" on="1"/>
        <pt x="50" y="362" on="0"/>
        <pt x="189" y="511" on="0"/>
        <pt x="290" y="517" on="1"/>
        <pt x="296" y="518" on="0"/>
        <pt x="304" y="518" on="1"/>
        <pt x="306" y="518" on="0"/>
        <pt x="308" y="518" on="1"/>
        <pt x="309" y="518" on="1"/>
        <pt x="310" y="518" on="0"/>
        <pt x="312" y="518" on="1"/>
        <pt x="419" y="518" on="0"/>
        <pt x="570" y="368" on="0"/>
        <pt x="570" y="261" on="1"/>
        <pt x="570" y="260" on="1"/>
        <pt x="570" y="257" on="0"/>
        <pt x="570" y="253" on="1"/>
        <pt x="567" y="-18" on="1"/>
        <pt x="543" y="-101" on="0"/>
        <pt x="412" y="-205" on="0"/>
        <pt x="325" y="-205" on="1"/>
        <pt x="154" y="-205" on="0"/>
        <pt x="120" y="-196" on="1"/>
        <pt x="120" y="-28" on="1"/>
        <pt x="132" y="-38" on="0"/>
        <pt x="290" y="-54" on="0"/>
        <pt x="325" y="-54" on="1"/>
        <pt x="351" y="-54" on="0"/>
        <pt x="404" y="-34" on="0"/>
        <pt x="419" y="-17" on="1"/>
        <pt x="419" y="26" on="1"/>
        <pt x="368" y="3" on="0"/>
        <pt x="312" y="3" on="1"/>
        <pt x="311" y="3" on="0"/>
        <pt x="310" y="3" on="1"/>
      </contour>
      <contour>
        <pt x="310" y="367" on="1"/>
        <pt x="297" y="367" on="0"/>
        <pt x="286" y="364" on="1"/>
        <pt x="286" y="365" on="1"/>
        <pt x="249" y="357" on="0"/>
        <pt x="201" y="299" on="0"/>
        <pt x="201" y="260" on="1"/>
        <pt x="201" y="222" on="0"/>
        <pt x="249" y="164" on="0"/>
        <pt x="286" y="156" on="1"/>
        <pt x="286" y="157" on="1"/>
        <pt x="297" y="154" on="0"/>
        <pt x="310" y="154" on="1"/>
        <pt x="322" y="154" on="0"/>
        <pt x="334" y="157" on="1"/>
        <pt x="334" y="156" on="1"/>
        <pt x="371" y="164" on="0"/>
        <pt x="419" y="222" on="0"/>
        <pt x="419" y="260" on="1"/>
        <pt x="419" y="299" on="0"/>
        <pt x="371" y="357" on="0"/>
        <pt x="334" y="365" on="1"/>
        <pt x="334" y="364" on="1"/>
        <pt x="322" y="367" on="0"/>
      </contour>
    </TTGlyph>
    <TTGlyph name="g.0" xMin="50" yMin="-205" xMax="570" yMax="518">
      <component glyphName="g" x="0" y="0" flags="0x204"/>
    </TTGlyph>
    <TTGlyph name="g.1" xMin="50" yMin="-205" xMax="570" yMax="518">
      <component glyphName="g" x="0" y="0" flags="0x204"/>
    </TTGlyph>
    <TTGlyph name="g.2" xMin="50" yMin="-205" xMax="570" yMax="518">
      <component glyphName="g" x="0" y="0" flags="0x204"/>
    </TTGlyph>
    <TTGlyph name="gbreve" xMin="50" yMin="-205" xMax="570" yMax="702">
      <component glyphName="uni0306" x="309" y="-230" flags="0x4"/>
      <component glyphName="g" x="0" y="0" flags="0x204"/>
    </TTGlyph>
    <TTGlyph name="gbreve.0" xMin="50" yMin="-205" xMax="570" yMax="702">
      <component glyphName="gbreve" x="0" y="0" flags="0x204"/>
    </TTGlyph>
    <TTGlyph name="gbreve.1" xMin="50" yMin="-205" xMax="570" yMax="702">
      <component glyphName="gbreve" x="0" y="0" flags="0x204"/>
    </TTGlyph>
    <TTGlyph name="gbreve.2" xMin="50" yMin="-205" xMax="570" yMax="702">
      <component glyphName="gbreve" x="0" y="0" flags="0x204"/>
    </TTGlyph>
    <TTGlyph name="gcircumflex" xMin="50" yMin="-205" xMax="570" yMax="746">
      <component glyphName="uni0302" x="308" y="-188" flags="0x4"/>
      <component glyphName="g" x="0" y="0" flags="0x204"/>
    </TTGlyph>
    <TTGlyph name="gcircumflex.0" xMin="50" yMin="-205" xMax="570" yMax="746">
      <component glyphName="gcircumflex" x="0" y="0" flags="0x204"/>
    </TTGlyph>
    <TTGlyph name="gcircumflex.1" xMin="50" yMin="-205" xMax="570" yMax="746">
      <component glyphName="gcircumflex" x="0" y="0" flags="0x204"/>
    </TTGlyph>
    <TTGlyph name="gcircumflex.2" xMin="50" yMin="-205" xMax="570" yMax="746">
      <component glyphName="gcircumflex" x="0" y="0" flags="0x204"/>
    </TTGlyph>
    <TTGlyph name="gdotaccent" xMin="50" yMin="-205" xMax="570" yMax="720">
      <component glyphName="uni0307" x="308" y="80" flags="0x4"/>
      <component glyphName="g" x="0" y="0" flags="0x204"/>
    </TTGlyph>
    <TTGlyph name="gdotaccent.0" xMin="50" yMin="-205" xMax="570" yMax="720">
      <component glyphName="gdotaccent" x="0" y="0" flags="0x204"/>
    </TTGlyph>
    <TTGlyph name="gdotaccent.1" xMin="50" yMin="-205" xMax="570" yMax="720">
      <component glyphName="gdotaccent" x="0" y="0" flags="0x204"/>
    </TTGlyph>
    <TTGlyph name="gdotaccent.2" xMin="50" yMin="-205" xMax="570" yMax="720">
      <component glyphName="gdotaccent" x="0" y="0" flags="0x204"/>
    </TTGlyph>
    <TTGlyph name="germandbls" xMin="50" yMin="-7" xMax="786" yMax="876">
      <contour>
        <pt x="283" y="47" on="1"/>
        <pt x="350" y="159" on="1"/>
        <pt x="357" y="152" on="0"/>
        <pt x="372" y="147" on="1"/>
        <pt x="412" y="130" on="0"/>
        <pt x="475" y="138" on="0"/>
        <pt x="495" y="162" on="1"/>
        <pt x="518" y="189" on="0"/>
        <pt x="473" y="201" on="1"/>
        <pt x="461" y="204" on="0"/>
        <pt x="419" y="211" on="1"/>
        <pt x="353" y="237" on="0"/>
        <pt x="273" y="306" on="0"/>
        <pt x="257" y="390" on="0"/>
        <pt x="295" y="434" on="1"/>
        <pt x="303" y="444" on="0"/>
        <pt x="337" y="488" on="0"/>
        <pt x="355" y="509" on="0"/>
        <pt x="388" y="542" on="0"/>
        <pt x="416" y="555" on="0"/>
        <pt x="455" y="566" on="0"/>
        <pt x="500" y="559" on="0"/>
        <pt x="526" y="549" on="1"/>
        <pt x="527" y="549" on="0"/>
        <pt x="528" y="549" on="1"/>
        <pt x="573" y="549" on="0"/>
        <pt x="635" y="611" on="0"/>
        <pt x="635" y="656" on="1"/>
        <pt x="635" y="686" on="0"/>
        <pt x="444" y="718" on="0"/>
        <pt x="238" y="707" on="0"/>
        <pt x="217" y="683" on="1"/>
        <pt x="217" y="2" on="1"/>
        <pt x="50" y="2" on="1"/>
        <pt x="53" y="684" on="1"/>
        <pt x="77" y="767" on="0"/>
        <pt x="144" y="819" on="1"/>
        <pt x="185" y="851" on="0"/>
        <pt x="343" y="876" on="0"/>
        <pt x="519" y="856" on="0"/>
        <pt x="680" y="807" on="0"/>
        <pt x="786" y="713" on="0"/>
        <pt x="786" y="656" on="1"/>
        <pt x="786" y="579" on="0"/>
        <pt x="763" y="485" on="0"/>
        <pt x="723" y="447" on="0"/>
        <pt x="673" y="437" on="0"/>
        <pt x="612" y="444" on="0"/>
        <pt x="554" y="448" on="0"/>
        <pt x="492" y="427" on="0"/>
        <pt x="470" y="400" on="1"/>
        <pt x="454" y="382" on="0"/>
        <pt x="445" y="328" on="0"/>
        <pt x="471" y="280" on="0"/>
        <pt x="501" y="275" on="1"/>
        <pt x="540" y="258" on="0"/>
        <pt x="598" y="229" on="0"/>
        <pt x="651" y="189" on="0"/>
        <pt x="674" y="150" on="0"/>
        <pt x="669" y="101" on="0"/>
        <pt x="647" y="75" on="1"/>
        <pt x="600" y="18" on="0"/>
        <pt x="400" y="-7" on="0"/>
        <pt x="305" y="34" on="1"/>
        <pt x="297" y="36" on="0"/>
      </contour>
    </TTGlyph>
    <TTGlyph name="germandbls.0" xMin="50" yMin="-7" xMax="786" yMax="876">
      <component glyphName="germandbls" x="0" y="0" flags="0x204"/>
    </TTGlyph>
    <TTGlyph name="germandbls.1" xMin="50" yMin="-7" xMax="786" yMax="876">
      <component glyphName="germandbls" x="0" y="0" flags="0x204"/>
    </TTGlyph>
    <TTGlyph name="germandbls.2" xMin="50" yMin="-7" xMax="786" yMax="876">
      <component glyphName="germandbls" x="0" y="0" flags="0x204"/>
    </TTGlyph>
    <TTGlyph name="grave" xMin="50" yMin="516" xMax="340" yMax="805">
      <contour>
        <pt x="232" y="516" on="1"/>
        <pt x="50" y="698" on="1"/>
        <pt x="158" y="805" on="1"/>
        <pt x="340" y="623" on="1"/>
      </contour>
    </TTGlyph>
    <TTGlyph name="grave.0" xMin="50" yMin="516" xMax="340" yMax="805">
      <component glyphName="grave" x="0" y="0" flags="0x204"/>
    </TTGlyph>
    <TTGlyph name="grave.1" xMin="50" yMin="516" xMax="340" yMax="805">
      <component glyphName="grave" x="0" y="0" flags="0x204"/>
    </TTGlyph>
    <TTGlyph name="grave.2" xMin="50" yMin="516" xMax="340" yMax="805">
      <component glyphName="grave" x="0" y="0" flags="0x204"/>
    </TTGlyph>
    <TTGlyph name="gravecomb" xMin="-145" yMin="516" xMax="145" yMax="805">
      <contour>
        <pt x="37" y="516" on="1"/>
        <pt x="-145" y="698" on="1"/>
        <pt x="-37" y="805" on="1"/>
        <pt x="145" y="623" on="1"/>
      </contour>
    </TTGlyph>
    <TTGlyph name="gravecomb.0" xMin="-145" yMin="516" xMax="145" yMax="805">
      <component glyphName="gravecomb" x="0" y="0" flags="0x204"/>
    </TTGlyph>
    <TTGlyph name="gravecomb.1" xMin="-145" yMin="516" xMax="145" yMax="805">
      <component glyphName="gravecomb" x="0" y="0" flags="0x204"/>
    </TTGlyph>
    <TTGlyph name="gravecomb.2" xMin="-145" yMin="516" xMax="145" yMax="805">
      <component glyphName="gravecomb" x="0" y="0" flags="0x204"/>
    </TTGlyph>
    <TTGlyph name="greater" xMin="50" yMin="144" xMax="594" yMax="546">
      <contour>
        <pt x="50" y="546" on="1"/>
        <pt x="594" y="403" on="1"/>
        <pt x="594" y="402" on="1"/>
        <pt x="594" y="251" on="1"/>
        <pt x="594" y="250" on="1"/>
        <pt x="50" y="144" on="1"/>
        <pt x="50" y="296" on="1"/>
        <pt x="264" y="338" on="1"/>
        <pt x="50" y="394" on="1"/>
      </contour>
    </TTGlyph>
    <TTGlyph name="greater.0" xMin="50" yMin="144" xMax="594" yMax="546">
      <component glyphName="greater" x="0" y="0" flags="0x204"/>
    </TTGlyph>
    <TTGlyph name="greater.1" xMin="50" yMin="144" xMax="594" yMax="546">
      <component glyphName="greater" x="0" y="0" flags="0x204"/>
    </TTGlyph>
    <TTGlyph name="greater.2" xMin="50" yMin="144" xMax="594" yMax="546">
      <component glyphName="greater" x="0" y="0" flags="0x204"/>
    </TTGlyph>
    <TTGlyph name="guillemotleft" xMin="50" yMin="6" xMax="1194" yMax="663">
      <contour>
        <pt x="594" y="663" on="1"/>
        <pt x="594" y="511" on="1"/>
        <pt x="188" y="338" on="1"/>
        <pt x="594" y="158" on="1"/>
        <pt x="594" y="6" on="1"/>
        <pt x="50" y="250" on="1"/>
        <pt x="50" y="251" on="1"/>
        <pt x="50" y="402" on="1"/>
        <pt x="50" y="403" on="1"/>
      </contour>
      <contour>
        <pt x="1194" y="663" on="1"/>
        <pt x="1194" y="511" on="1"/>
        <pt x="788" y="338" on="1"/>
        <pt x="1194" y="158" on="1"/>
        <pt x="1194" y="6" on="1"/>
        <pt x="650" y="250" on="1"/>
        <pt x="650" y="251" on="1"/>
        <pt x="650" y="402" on="1"/>
        <pt x="650" y="403" on="1"/>
      </contour>
    </TTGlyph>
    <TTGlyph name="guillemotleft.0" xMin="50" yMin="6" xMax="1194" yMax="663">
      <component glyphName="guillemotleft" x="0" y="0" flags="0x204"/>
    </TTGlyph>
    <TTGlyph name="guillemotleft.1" xMin="50" yMin="6" xMax="1194" yMax="663">
      <component glyphName="guillemotleft" x="0" y="0" flags="0x204"/>
    </TTGlyph>
    <TTGlyph name="guillemotleft.2" xMin="50" yMin="6" xMax="1194" yMax="663">
      <component glyphName="guillemotleft" x="0" y="0" flags="0x204"/>
    </TTGlyph>
    <TTGlyph name="guillemotright" xMin="50" yMin="6" xMax="1194" yMax="663">
      <contour>
        <pt x="650" y="663" on="1"/>
        <pt x="1194" y="403" on="1"/>
        <pt x="1194" y="402" on="1"/>
        <pt x="1194" y="251" on="1"/>
        <pt x="1194" y="250" on="1"/>
        <pt x="650" y="6" on="1"/>
        <pt x="650" y="158" on="1"/>
        <pt x="1056" y="338" on="1"/>
        <pt x="650" y="511" on="1"/>
      </contour>
      <contour>
        <pt x="50" y="663" on="1"/>
        <pt x="594" y="403" on="1"/>
        <pt x="594" y="402" on="1"/>
        <pt x="594" y="251" on="1"/>
        <pt x="594" y="250" on="1"/>
        <pt x="50" y="6" on="1"/>
        <pt x="50" y="158" on="1"/>
        <pt x="456" y="338" on="1"/>
        <pt x="50" y="511" on="1"/>
      </contour>
    </TTGlyph>
    <TTGlyph name="guillemotright.0" xMin="50" yMin="6" xMax="1194" yMax="663">
      <component glyphName="guillemotright" x="0" y="0" flags="0x204"/>
    </TTGlyph>
    <TTGlyph name="guillemotright.1" xMin="50" yMin="6" xMax="1194" yMax="663">
      <component glyphName="guillemotright" x="0" y="0" flags="0x204"/>
    </TTGlyph>
    <TTGlyph name="guillemotright.2" xMin="50" yMin="6" xMax="1194" yMax="663">
      <component glyphName="guillemotright" x="0" y="0" flags="0x204"/>
    </TTGlyph>
    <TTGlyph name="h" xMin="50" yMin="6" xMax="547" yMax="768">
      <contour>
        <pt x="50" y="768" on="1"/>
        <pt x="219" y="768" on="1"/>
        <pt x="219" y="512" on="1"/>
        <pt x="258" y="524" on="0"/>
        <pt x="299" y="524" on="1"/>
        <pt x="386" y="524" on="0"/>
        <pt x="520" y="420" on="0"/>
        <pt x="544" y="337" on="1"/>
        <pt x="547" y="6" on="1"/>
        <pt x="380" y="6" on="1"/>
        <pt x="380" y="336" on="1"/>
        <pt x="348" y="373" on="0"/>
        <pt x="299" y="373" on="1"/>
        <pt x="251" y="373" on="0"/>
        <pt x="219" y="338" on="1"/>
        <pt x="219" y="6" on="1"/>
        <pt x="50" y="6" on="1"/>
      </contour>
    </TTGlyph>
    <TTGlyph name="h.0" xMin="50" yMin="6" xMax="547" yMax="768">
      <component glyphName="h" x="0" y="0" flags="0x204"/>
    </TTGlyph>
    <TTGlyph name="h.1" xMin="50" yMin="6" xMax="547" yMax="768">
      <component glyphName="h" x="0" y="0" flags="0x204"/>
    </TTGlyph>
    <TTGlyph name="h.2" xMin="50" yMin="6" xMax="547" yMax="768">
      <component glyphName="h" x="0" y="0" flags="0x204"/>
    </TTGlyph>
    <TTGlyph name="hbar" xMin="50" yMin="6" xMax="608" yMax="768">
      <contour>
        <pt x="338" y="731" on="1"/>
        <pt x="338" y="579" on="1"/>
        <pt x="280" y="579" on="1"/>
        <pt x="280" y="512" on="1"/>
        <pt x="319" y="524" on="0"/>
        <pt x="360" y="524" on="1"/>
        <pt x="447" y="524" on="0"/>
        <pt x="581" y="420" on="0"/>
        <pt x="605" y="337" on="1"/>
        <pt x="608" y="6" on="1"/>
        <pt x="441" y="6" on="1"/>
        <pt x="441" y="336" on="1"/>
        <pt x="409" y="373" on="0"/>
        <pt x="360" y="373" on="1"/>
        <pt x="312" y="373" on="0"/>
        <pt x="280" y="338" on="1"/>
        <pt x="280" y="6" on="1"/>
        <pt x="111" y="6" on="1"/>
        <pt x="111" y="579" on="1"/>
        <pt x="50" y="579" on="1"/>
        <pt x="50" y="731" on="1"/>
        <pt x="111" y="731" on="1"/>
        <pt x="111" y="768" on="1"/>
        <pt x="280" y="768" on="1"/>
        <pt x="280" y="731" on="1"/>
      </contour>
    </TTGlyph>
    <TTGlyph name="hbar.0" xMin="50" yMin="6" xMax="608" yMax="768">
      <component glyphName="hbar" x="0" y="0" flags="0x204"/>
    </TTGlyph>
    <TTGlyph name="hbar.1" xMin="50" yMin="6" xMax="608" yMax="768">
      <component glyphName="hbar" x="0" y="0" flags="0x204"/>
    </TTGlyph>
    <TTGlyph name="hbar.2" xMin="50" yMin="6" xMax="608" yMax="768">
      <component glyphName="hbar" x="0" y="0" flags="0x204"/>
    </TTGlyph>
    <TTGlyph name="hcircumflex" xMin="50" yMin="6" xMax="561" yMax="990">
      <component glyphName="uni0302" x="150" y="56" flags="0x4"/>
      <component glyphName="h" x="14" y="0" flags="0x4"/>
    </TTGlyph>
    <TTGlyph name="hcircumflex.0" xMin="50" yMin="6" xMax="561" yMax="990">
      <component glyphName="hcircumflex" x="0" y="0" flags="0x204"/>
    </TTGlyph>
    <TTGlyph name="hcircumflex.1" xMin="50" yMin="6" xMax="561" yMax="990">
      <component glyphName="hcircumflex" x="0" y="0" flags="0x204"/>
    </TTGlyph>
    <TTGlyph name="hcircumflex.2" xMin="50" yMin="6" xMax="561" yMax="990">
      <component glyphName="hcircumflex" x="0" y="0" flags="0x204"/>
    </TTGlyph>
    <TTGlyph name="hookabovecomb" xMin="-71" yMin="432" xMax="71" yMax="689">
      <contour>
        <pt x="-71" y="432" on="1"/>
        <pt x="-71" y="509" on="1"/>
        <pt x="-63" y="507" on="0"/>
        <pt x="-58" y="507" on="1"/>
        <pt x="-35" y="507" on="0"/>
        <pt x="-4" y="538" on="0"/>
        <pt x="-4" y="582" on="0"/>
        <pt x="-36" y="614" on="0"/>
        <pt x="-58" y="614" on="1"/>
        <pt x="-63" y="614" on="0"/>
        <pt x="-71" y="612" on="1"/>
        <pt x="-71" y="689" on="1"/>
        <pt x="-58" y="689" on="1"/>
        <pt x="-4" y="689" on="0"/>
        <pt x="71" y="614" on="0"/>
        <pt x="71" y="560" on="1"/>
        <pt x="71" y="507" on="0"/>
        <pt x="-4" y="432" on="0"/>
        <pt x="-58" y="432" on="1"/>
      </contour>
    </TTGlyph>
    <TTGlyph name="hookabovecomb.0" xMin="-71" yMin="432" xMax="71" yMax="689">
      <component glyphName="hookabovecomb" x="0" y="0" flags="0x4"/>
    </TTGlyph>
    <TTGlyph name="hookabovecomb.1" xMin="-71" yMin="432" xMax="71" yMax="689">
      <component glyphName="hookabovecomb" x="0" y="0" flags="0x4"/>
    </TTGlyph>
    <TTGlyph name="hookabovecomb.2" xMin="-71" yMin="432" xMax="71" yMax="689">
      <component glyphName="hookabovecomb" x="0" y="0" flags="0x4"/>
    </TTGlyph>
    <TTGlyph name="hungarumlaut" xMin="50" yMin="460" xMax="626" yMax="751">
      <component glyphName="uni030B" x="338" y="-54" flags="0x4"/>
    </TTGlyph>
    <TTGlyph name="hungarumlaut.0" xMin="50" yMin="460" xMax="626" yMax="751">
      <component glyphName="hungarumlaut" x="0" y="0" flags="0x204"/>
    </TTGlyph>
    <TTGlyph name="hungarumlaut.1" xMin="50" yMin="460" xMax="626" yMax="751">
      <component glyphName="hungarumlaut" x="0" y="0" flags="0x204"/>
    </TTGlyph>
    <TTGlyph name="hungarumlaut.2" xMin="50" yMin="460" xMax="626" yMax="751">
      <component glyphName="hungarumlaut" x="0" y="0" flags="0x204"/>
    </TTGlyph>
    <TTGlyph name="hyphen" xMin="50" yMin="344" xMax="594" yMax="496">
      <contour>
        <pt x="594" y="496" on="1"/>
        <pt x="594" y="344" on="1"/>
        <pt x="50" y="344" on="1"/>
        <pt x="50" y="496" on="1"/>
      </contour>
    </TTGlyph>
    <TTGlyph name="hyphen.0" xMin="50" yMin="344" xMax="594" yMax="496">
      <component glyphName="hyphen" x="0" y="0" flags="0x204"/>
    </TTGlyph>
    <TTGlyph name="hyphen.1" xMin="50" yMin="344" xMax="594" yMax="496">
      <component glyphName="hyphen" x="0" y="0" flags="0x204"/>
    </TTGlyph>
    <TTGlyph name="hyphen.2" xMin="50" yMin="344" xMax="594" yMax="496">
      <component glyphName="hyphen" x="0" y="0" flags="0x204"/>
    </TTGlyph>
    <TTGlyph name="i" xMin="50" yMin="-2" xMax="202" yMax="772">
      <contour>
        <pt x="50" y="772" on="1"/>
        <pt x="202" y="772" on="1"/>
        <pt x="202" y="630" on="1"/>
        <pt x="50" y="630" on="1"/>
      </contour>
      <contour>
        <pt x="50" y="512" on="1"/>
        <pt x="202" y="512" on="1"/>
        <pt x="202" y="-2" on="1"/>
        <pt x="50" y="-2" on="1"/>
      </contour>
    </TTGlyph>
    <TTGlyph name="i.0" xMin="50" yMin="-2" xMax="202" yMax="772">
      <component glyphName="i" x="0" y="0" flags="0x204"/>
    </TTGlyph>
    <TTGlyph name="i.1" xMin="50" yMin="-2" xMax="202" yMax="772">
      <component glyphName="i" x="0" y="0" flags="0x204"/>
    </TTGlyph>
    <TTGlyph name="i.2" xMin="50" yMin="-2" xMax="202" yMax="772">
      <component glyphName="i" x="0" y="0" flags="0x204"/>
    </TTGlyph>
    <TTGlyph name="iacute" xMin="18" yMin="-2" xMax="308" yMax="867">
      <component glyphName="acutecomb" x="163" y="62" flags="0x4"/>
      <component glyphName="dotlessi" x="0" y="0" flags="0x4"/>
    </TTGlyph>
    <TTGlyph name="iacute.0" xMin="18" yMin="-2" xMax="308" yMax="867">
      <component glyphName="iacute" x="0" y="0" flags="0x204"/>
    </TTGlyph>
    <TTGlyph name="iacute.1" xMin="18" yMin="-2" xMax="308" yMax="867">
      <component glyphName="iacute" x="0" y="0" flags="0x204"/>
    </TTGlyph>
    <TTGlyph name="iacute.2" xMin="18" yMin="-2" xMax="308" yMax="867">
      <component glyphName="iacute" x="0" y="0" flags="0x204"/>
    </TTGlyph>
    <TTGlyph name="ibreve" xMin="50" yMin="-2" xMax="306" yMax="702">
      <component glyphName="uni0306" x="178" y="-230" flags="0x4"/>
      <component glyphName="dotlessi" x="52" y="0" flags="0x4"/>
    </TTGlyph>
    <TTGlyph name="ibreve.0" xMin="50" yMin="-2" xMax="306" yMax="702">
      <component glyphName="ibreve" x="0" y="0" flags="0x204"/>
    </TTGlyph>
    <TTGlyph name="ibreve.1" xMin="50" yMin="-2" xMax="306" yMax="702">
      <component glyphName="ibreve" x="0" y="0" flags="0x204"/>
    </TTGlyph>
</ttFont>
